<svg version="1.1" xmlns="http://www.w3.org/2000/svg" viewBox="296.5 110.5 3046.5 2122.9">
<rect x="296.5" y="110.5" width="3046.5" height="2122.9" fill="#ffffff" />
<polyline points="397.0 260.0,395.0 262.0,394.0 265.0,395.0 268.0,400.0 268.0,403.0 266.0,406.0 265.0,408.0 263.0,413.0 257.0,416.0 254.0,419.0 250.0,422.0 245.0,424.0 240.0,427.0 235.0,429.0 230.0,432.0 221.0,432.0 216.0,431.0 214.0,428.0 213.0,426.0 214.0,424.0 216.0,420.0 222.0,417.0 226.0,415.0 231.0,412.0 236.0,410.0 243.0,407.0 250.0,405.0 258.0,403.0 267.0,402.0 276.0,399.0 296.0,398.0 306.0,396.0 344.0,398.0 343.0,399.0 341.0,399.0 337.0,397.0 335.0,393.0 334.0,390.0 335.0,387.0 335.0,383.0 337.0,380.0 338.0,375.0 340.0,372.0 341.0,370.0 343.0,369.0 348.0" style="fill:none;stroke:#000000;stroke-width:2"/>
<polyline points="465.0 212.0,463.0 213.0,460.0 215.0,457.0 218.0,455.0 221.0,452.0 224.0,450.0 228.0,448.0 234.0,444.0 248.0,443.0 257.0,442.0 274.0,442.0 283.0,443.0 290.0,444.0 296.0,446.0 300.0,448.0 303.0,452.0 304.0" style="fill:none;stroke:#000000;stroke-width:2"/>
<polyline points="483.0 266.0,481.0 264.0,483.0 260.0,485.0 259.0,492.0 257.0,495.0 257.0,501.0 259.0,501.0 263.0,500.0 269.0,499.0 272.0,495.0 277.0,493.0 279.0,490.0 281.0,488.0 284.0,485.0 286.0,483.0 288.0,481.0 287.0,482.0 283.0" style="fill:none;stroke:#000000;stroke-width:2"/>
<polyline points="506.0 262.0,505.0 264.0,501.0 269.0,499.0 271.0,498.0 276.0,498.0 281.0,500.0 282.0,503.0 284.0,508.0 283.0,511.0 281.0,514.0 280.0,517.0 278.0,519.0 277.0,523.0 274.0" style="fill:none;stroke:#000000;stroke-width:2"/>
<polyline points="540.0 280.0,540.0 283.0,539.0 289.0,539.0 293.0,538.0 297.0,538.0 300.0,537.0 303.0,536.0 308.0,538.0 302.0" style="fill:none;stroke:#000000;stroke-width:2"/>
<polyline points="561.0 256.0,560.0 260.0,560.0 263.0,559.0 265.0,558.0 268.0,558.0 271.0,559.0 275.0,560.0 278.0,564.0 278.0,566.0 276.0,570.0 271.0,572.0 268.0,579.0 256.0,580.0 254.0,578.0 259.0,578.0 264.0,579.0 272.0,580.0 275.0,581.0 279.0,583.0 283.0,584.0 287.0,586.0 300.0,585.0 304.0,581.0 316.0,579.0 319.0,575.0 323.0,573.0 324.0,570.0 324.0,568.0 321.0,568.0 317.0,569.0 315.0,570.0 312.0,571.0 310.0,573.0 308.0,578.0 304.0,580.0 301.0,582.0 299.0,588.0 294.0" style="fill:none;stroke:#000000;stroke-width:2"/>
<polyline points="593.0 199.0,596.0 198.0,601.0 202.0,603.0 204.0,609.0 211.0,612.0 215.0,617.0 224.0,619.0 230.0,621.0 237.0,621.0 244.0,617.0 267.0,615.0 273.0,611.0 284.0,609.0 287.0,605.0 296.0" style="fill:none;stroke:#000000;stroke-width:2"/>
<polyline points="694.0 235.0,690.0 236.0,688.0 237.0,685.0 238.0,679.0 239.0,676.0 241.0,672.0 243.0,668.0 244.0,666.0 245.0" style="fill:none;stroke:#000000;stroke-width:2"/>
<polyline points="680.0 264.0,678.0 265.0,666.0 270.0,663.0 271.0,659.0 271.0,655.0 273.0" style="fill:none;stroke:#000000;stroke-width:2"/>
<polyline points="761.0 248.0,761.0 244.0,760.0 241.0,761.0 239.0,762.0 234.0,764.0 232.0,769.0 233.0,771.0 236.0,772.0 238.0,773.0 242.0,773.0 246.0,772.0 248.0,772.0 251.0,771.0 253.0,768.0 258.0,767.0 260.0,765.0 263.0,763.0 265.0,760.0 267.0,758.0 266.0,758.0 262.0,759.0 258.0" style="fill:none;stroke:#000000;stroke-width:2"/>
<polyline points="780.0 235.0,778.0 237.0,775.0 242.0,773.0 243.0,772.0 245.0,771.0 249.0,770.0 251.0,771.0 256.0,773.0 263.0,775.0 265.0,779.0 265.0,782.0 264.0,784.0 262.0,790.0 255.0,792.0 251.0,795.0 245.0" style="fill:none;stroke:#000000;stroke-width:2"/>
<polyline points="824.0 226.0,823.0 230.0,823.0 233.0,822.0 243.0,823.0 246.0,823.0 250.0,824.0 255.0,825.0 253.0,826.0 249.0" style="fill:none;stroke:#000000;stroke-width:2"/>
<polyline points="829.0 241.0,825.0 242.0,821.0 242.0,817.0 243.0,815.0 244.0,812.0 245.0,809.0 247.0,810.0 249.0" style="fill:none;stroke:#000000;stroke-width:2"/>
<polyline points="844.0 236.0,843.0 240.0,843.0 244.0,844.0 248.0,844.0 251.0,846.0 254.0,850.0 251.0" style="fill:none;stroke:#000000;stroke-width:2"/>
<polyline points="852.0 210.0,849.0 209.0,849.0 213.0" style="fill:none;stroke:#000000;stroke-width:2"/>
<polyline points="942.0 233.0,945.0 235.0,947.0 238.0,945.0 239.0,942.0 240.0,939.0 240.0,935.0 241.0,931.0 241.0,929.0 242.0,926.0 244.0,925.0 246.0,923.0 251.0" style="fill:none;stroke:#000000;stroke-width:2"/>
<polyline points="962.0 220.0,962.0 216.0,963.0 211.0,965.0 210.0,968.0 208.0,971.0 208.0,975.0 209.0,976.0 212.0,975.0 217.0,975.0 220.0,973.0 224.0,972.0 227.0,970.0 232.0,968.0 235.0,966.0 239.0,963.0 246.0,962.0 250.0,961.0 253.0,960.0 258.0,960.0 263.0,961.0 266.0,962.0 268.0,965.0 269.0,969.0 268.0,972.0 266.0,974.0 265.0,980.0 261.0" style="fill:none;stroke:#000000;stroke-width:2"/>
<polyline points="1023.0 196.0,1021.0 198.0,1017.0 204.0,1012.0 214.0,1011.0 218.0,1010.0 223.0,1009.0 234.0,1008.0 240.0,1008.0 246.0,1009.0 257.0,1009.0 262.0,1010.0 265.0,1013.0 268.0,1018.0 269.0" style="fill:none;stroke:#000000;stroke-width:2"/>
<polyline points="1037.0 237.0,1038.0 231.0,1040.0 229.0,1044.0 227.0,1048.0 226.0,1051.0 229.0,1052.0 233.0,1052.0 237.0,1051.0 240.0,1049.0 245.0,1048.0 247.0,1046.0 249.0,1041.0 253.0,1038.0 252.0,1037.0 249.0,1038.0 245.0" style="fill:none;stroke:#000000;stroke-width:2"/>
<polyline points="1053.0 229.0,1052.0 232.0,1051.0 237.0,1050.0 239.0,1050.0 244.0,1051.0 246.0,1053.0 248.0,1058.0 248.0,1060.0 247.0,1063.0 246.0,1067.0 244.0,1071.0 241.0" style="fill:none;stroke:#000000;stroke-width:2"/>
<polyline points="1107.0 229.0,1106.0 231.0,1102.0 231.0,1094.0 232.0,1090.0 232.0,1087.0 234.0,1085.0 236.0" style="fill:none;stroke:#000000;stroke-width:2"/>
<polyline points="1122.0 233.0,1122.0 236.0,1123.0 238.0,1127.0 240.0" style="fill:none;stroke:#000000;stroke-width:2"/>
<polyline points="1130.0 198.0,1129.0 201.0,1129.0 205.0" style="fill:none;stroke:#000000;stroke-width:2"/>
<polyline points="1205.0 163.0,1208.0 162.0,1210.0 161.0,1215.0 164.0,1217.0 167.0,1219.0 172.0,1220.0 177.0,1221.0 184.0,1222.0 208.0,1221.0 216.0,1216.0 244.0,1213.0 254.0" style="fill:none;stroke:#000000;stroke-width:2"/>
<polyline points="869.0 246.0,871.0 247.0,870.0 245.0,869.0 242.0,867.0 244.0,867.0 249.0,868.0 251.0,869.0 255.0,870.0 257.0,873.0 259.0,876.0 259.0,878.0 258.0,880.0 256.0,882.0 253.0,883.0 251.0,884.0 247.0,884.0 244.0,882.0 248.0,882.0 252.0,883.0 256.0,884.0 259.0,884.0 262.0,886.0 266.0,889.0 275.0,890.0 279.0,891.0 284.0,891.0 288.0,890.0 293.0,889.0 297.0,888.0 300.0,885.0 304.0,883.0 307.0,880.0 309.0,877.0 310.0,873.0 308.0,870.0 305.0,871.0 301.0,874.0 298.0,876.0 297.0,882.0 293.0,888.0 290.0" style="fill:none;stroke:#000000;stroke-width:2"/>
<polyline points="1143.0 217.0,1143.0 220.0,1144.0 223.0,1144.0 226.0,1145.0 235.0,1146.0 238.0,1146.0 241.0,1147.0 243.0,1150.0 241.0,1152.0 239.0,1154.0 236.0,1159.0 233.0,1161.0 232.0,1163.0 230.0,1166.0 229.0,1167.0 227.0,1169.0 221.0,1168.0 219.0,1167.0 222.0,1165.0 229.0,1164.0 235.0,1163.0 248.0,1163.0 254.0,1164.0 267.0,1165.0 270.0,1167.0 275.0,1169.0 278.0,1170.0 281.0,1171.0 285.0,1171.0 290.0,1170.0 296.0,1169.0 303.0,1166.0 309.0,1163.0 314.0,1160.0 318.0,1156.0 321.0,1153.0 322.0,1148.0 322.0,1147.0 320.0,1147.0 317.0,1148.0 313.0,1150.0 308.0,1155.0 304.0,1159.0 300.0,1165.0 296.0,1177.0 290.0,1181.0 289.0,1190.0 294.0" style="fill:none;stroke:#000000;stroke-width:2"/>
<polyline points="1270.0 197.0,1271.0 199.0,1271.0 208.0,1272.0 213.0,1272.0 218.0,1273.0 223.0,1273.0 227.0,1274.0 231.0,1274.0 235.0,1275.0 242.0,1275.0 238.0" style="fill:none;stroke:#000000;stroke-width:2"/>
<polyline points="1276.0 224.0,1274.0 223.0,1269.0 224.0,1266.0 224.0,1263.0 225.0,1261.0 226.0,1257.0 229.0,1256.0 231.0,1254.0 235.0" style="fill:none;stroke:#000000;stroke-width:2"/>
<polyline points="1302.0 206.0,1301.0 204.0,1301.0 200.0,1303.0 196.0,1305.0 193.0,1307.0 192.0,1310.0 193.0,1312.0 195.0,1314.0 200.0,1314.0 203.0,1312.0 210.0,1311.0 214.0,1308.0 225.0,1307.0 227.0,1307.0 230.0,1308.0 232.0,1310.0 235.0,1314.0 238.0,1316.0 240.0,1325.0 248.0" style="fill:none;stroke:#000000;stroke-width:2"/>
<polyline points="688.0 445.0,686.0 446.0,682.0 447.0,679.0 447.0,676.0 448.0,671.0 449.0,668.0 450.0,663.0 452.0,660.0 454.0,658.0 455.0,656.0 458.0,655.0 460.0,657.0 466.0" style="fill:none;stroke:#000000;stroke-width:2"/>
<polyline points="675.0 479.0,672.0 481.0,669.0 482.0,666.0 482.0,664.0 483.0,661.0 484.0,659.0 486.0,658.0 491.0" style="fill:none;stroke:#000000;stroke-width:2"/>
<polyline points="750.0 460.0,748.0 458.0,748.0 454.0,749.0 452.0,751.0 450.0,754.0 448.0,756.0 447.0,759.0 446.0,763.0 446.0,766.0 447.0,767.0 449.0,767.0 454.0,766.0 461.0,765.0 465.0,764.0 468.0,761.0 473.0,759.0 475.0,753.0 479.0" style="fill:none;stroke:#000000;stroke-width:2"/>
<polyline points="767.0 453.0,769.0 454.0,768.0 457.0,767.0 461.0,766.0 463.0,765.0 466.0,764.0 470.0,764.0 474.0,766.0 477.0,769.0 478.0,771.0 477.0,774.0 477.0,777.0 475.0,782.0 471.0,787.0 465.0" style="fill:none;stroke:#000000;stroke-width:2"/>
<polyline points="802.0 439.0,803.0 442.0,804.0 448.0,803.0 451.0,803.0 454.0,804.0 465.0,805.0 468.0,806.0 470.0,808.0 471.0" style="fill:none;stroke:#000000;stroke-width:2"/>
<polyline points="812.0 458.0,810.0 459.0,807.0 460.0,805.0 461.0,797.0 465.0" style="fill:none;stroke:#000000;stroke-width:2"/>
<polyline points="826.0 448.0,826.0 452.0,827.0 461.0,831.0 461.0" style="fill:none;stroke:#000000;stroke-width:2"/>
<polyline points="837.0 415.0,835.0 421.0" style="fill:none;stroke:#000000;stroke-width:2"/>
<polyline points="855.0 439.0,856.0 437.0,855.0 434.0,852.0 438.0,851.0 441.0,851.0 445.0,852.0 451.0,853.0 454.0,854.0 456.0,856.0 455.0,858.0 453.0,866.0 444.0,868.0 443.0,870.0 440.0,873.0 436.0,873.0 444.0,874.0 452.0,876.0 457.0,877.0 462.0,879.0 468.0,881.0 475.0,884.0 489.0,885.0 496.0,884.0 503.0,882.0 515.0,880.0 519.0,878.0 522.0,876.0 524.0,871.0 524.0,869.0 522.0,867.0 519.0,865.0 515.0,864.0 511.0,865.0 507.0,867.0 503.0,870.0 500.0,873.0 496.0,878.0 493.0,899.0 484.0" style="fill:none;stroke:#000000;stroke-width:2"/>
<polyline points="933.0 444.0,930.0 442.0,926.0 442.0,924.0 443.0,921.0 443.0,916.0 444.0,914.0 445.0,911.0 447.0,909.0 448.0,908.0 453.0" style="fill:none;stroke:#000000;stroke-width:2"/>
<polyline points="949.0 415.0,950.0 412.0,951.0 410.0,954.0 407.0,956.0 408.0,958.0 411.0,959.0 413.0,959.0 416.0,958.0 422.0,956.0 429.0,955.0 434.0,954.0 437.0,952.0 441.0,946.0 452.0,945.0 456.0,943.0 458.0,942.0 462.0,943.0 465.0,947.0 465.0,949.0 463.0,952.0 461.0,955.0 460.0,957.0 458.0,959.0 457.0,962.0 456.0" style="fill:none;stroke:#000000;stroke-width:2"/>
<polyline points="974.0 432.0,976.0 433.0,979.0 432.0,980.0 429.0,982.0 430.0,983.0 435.0,983.0 438.0,982.0 446.0,981.0 450.0,980.0 453.0,978.0 456.0,977.0 458.0,975.0 460.0,973.0 461.0,975.0 452.0" style="fill:none;stroke:#000000;stroke-width:2"/>
<polyline points="989.0 434.0,990.0 436.0,989.0 438.0,989.0 441.0,988.0 444.0,989.0 446.0,990.0 449.0,991.0 451.0,994.0 454.0,997.0 456.0,1000.0 456.0,1011.0 454.0" style="fill:none;stroke:#000000;stroke-width:2"/>
<polyline points="1054.0 428.0,1054.0 432.0,1053.0 439.0,1053.0 443.0,1054.0 457.0,1055.0 460.0" style="fill:none;stroke:#000000;stroke-width:2"/>
<polyline points="1058.0 451.0,1043.0 450.0,1039.0 449.0,1036.0 450.0" style="fill:none;stroke:#000000;stroke-width:2"/>
<polyline points="1075.0 432.0,1077.0 428.0,1079.0 426.0,1081.0 423.0,1085.0 424.0,1086.0 426.0,1087.0 430.0,1087.0 434.0,1086.0 442.0,1085.0 447.0,1084.0 451.0,1082.0 454.0,1080.0 458.0,1079.0 461.0,1077.0 464.0,1076.0 467.0,1074.0 470.0,1075.0 473.0,1079.0 473.0,1081.0 472.0,1086.0 470.0,1089.0 469.0,1093.0 467.0,1097.0 464.0" style="fill:none;stroke:#000000;stroke-width:2"/>
<polyline points="1108.0 450.0,1109.0 453.0,1110.0 455.0,1110.0 458.0,1111.0 460.0,1111.0 464.0,1113.0 463.0" style="fill:none;stroke:#000000;stroke-width:2"/>
<polyline points="1113.0 423.0,1115.0 424.0,1114.0 426.0,1114.0 430.0" style="fill:none;stroke:#000000;stroke-width:2"/>
<polyline points="1134.0 448.0,1136.0 446.0,1135.0 444.0,1134.0 447.0,1133.0 449.0,1133.0 452.0,1134.0 465.0,1136.0 468.0,1142.0 468.0,1146.0 467.0,1148.0 466.0,1149.0 464.0,1151.0 461.0,1152.0 458.0,1153.0 460.0,1153.0 465.0,1154.0 468.0,1154.0 471.0,1153.0 483.0,1153.0 488.0,1152.0 492.0,1151.0 497.0,1148.0 505.0,1147.0 509.0,1145.0 512.0,1143.0 514.0,1142.0 516.0,1139.0 517.0,1140.0 511.0,1142.0 508.0,1147.0 503.0,1154.0 498.0,1157.0 495.0,1161.0 494.0,1171.0 493.0" style="fill:none;stroke:#000000;stroke-width:2"/>
<polyline points="1201.0 430.0,1202.0 433.0,1202.0 436.0,1203.0 449.0,1203.0 452.0,1204.0 455.0,1204.0 459.0,1205.0 465.0,1204.0 469.0" style="fill:none;stroke:#000000;stroke-width:2"/>
<polyline points="1208.0 446.0,1201.0 447.0,1197.0 448.0,1194.0 449.0,1193.0 451.0,1194.0 453.0" style="fill:none;stroke:#000000;stroke-width:2"/>
<polyline points="1218.0 421.0,1217.0 419.0,1218.0 417.0,1218.0 414.0,1219.0 411.0,1222.0 410.0,1226.0 411.0,1228.0 412.0,1231.0 415.0,1232.0 417.0,1233.0 422.0,1232.0 428.0,1231.0 432.0,1230.0 437.0,1229.0 441.0,1227.0 446.0,1226.0 450.0,1225.0 456.0,1226.0 459.0,1230.0 459.0,1242.0 458.0,1247.0 458.0,1251.0 456.0,1258.0 452.0" style="fill:none;stroke:#000000;stroke-width:2"/>
<polyline points="699.0 651.0,698.0 649.0,693.0 649.0,691.0 650.0,688.0 650.0,684.0 652.0,680.0 653.0,677.0 654.0,674.0 656.0,671.0 657.0,669.0 659.0,667.0 660.0,666.0 664.0" style="fill:none;stroke:#000000;stroke-width:2"/>
<polyline points="691.0 680.0,687.0 683.0,684.0 683.0,681.0 684.0,677.0 683.0,673.0 683.0,672.0 687.0" style="fill:none;stroke:#000000;stroke-width:2"/>
<polyline points="751.0 633.0,752.0 631.0,750.0 634.0,747.0 639.0,745.0 641.0,744.0 644.0,741.0 654.0,741.0 658.0,740.0 662.0,740.0 666.0,741.0 678.0,742.0 681.0,744.0 686.0,746.0 687.0,752.0 686.0" style="fill:none;stroke:#000000;stroke-width:2"/>
<polyline points="784.0 666.0,777.0 667.0,774.0 667.0,772.0 668.0,769.0 668.0,767.0 669.0,764.0 670.0,762.0 670.0" style="fill:none;stroke:#000000;stroke-width:2"/>
<polyline points="794.0 657.0,796.0 656.0,799.0 655.0,803.0 655.0,805.0 657.0,805.0 661.0,804.0 665.0,803.0 668.0,802.0 670.0,799.0 673.0,795.0 676.0,793.0 678.0,790.0 677.0" style="fill:none;stroke:#000000;stroke-width:2"/>
<polyline points="815.0 659.0,813.0 661.0,811.0 662.0,807.0 665.0,804.0 666.0,801.0 668.0,800.0 671.0,801.0 674.0,803.0 676.0,807.0 678.0,811.0 678.0,814.0 679.0,816.0 677.0,825.0 672.0" style="fill:none;stroke:#000000;stroke-width:2"/>
<polyline points="862.0 643.0,863.0 646.0,863.0 650.0,864.0 657.0,864.0 661.0,864.0 670.0" style="fill:none;stroke:#000000;stroke-width:2"/>
<polyline points="871.0 657.0,868.0 658.0,866.0 659.0,862.0 659.0,858.0 660.0,857.0 659.0" style="fill:none;stroke:#000000;stroke-width:2"/>
<polyline points="884.0 645.0,883.0 643.0,884.0 640.0,886.0 635.0,889.0 633.0,893.0 633.0,896.0 635.0,897.0 637.0,896.0 642.0,896.0 645.0,895.0 648.0,894.0 650.0,892.0 653.0,887.0 661.0,885.0 664.0,884.0 666.0,883.0 669.0,882.0 671.0,881.0 677.0,884.0 677.0,889.0 676.0,892.0 674.0,898.0 669.0,900.0 666.0,904.0 661.0" style="fill:none;stroke:#000000;stroke-width:2"/>
<polyline points="909.0 609.0,911.0 611.0,913.0 612.0,916.0 615.0,917.0 617.0,919.0 620.0,923.0 627.0,924.0 632.0,925.0 638.0,926.0 651.0,925.0 658.0,925.0 664.0,924.0 671.0,923.0 677.0,923.0 682.0,922.0 686.0,920.0 690.0,918.0 695.0" style="fill:none;stroke:#000000;stroke-width:2"/>
<polyline points="983.0 642.0,984.0 645.0,984.0 649.0,985.0 654.0,986.0 657.0,986.0 661.0,985.0 671.0,985.0 669.0" style="fill:none;stroke:#000000;stroke-width:2"/>
<polyline points="992.0 655.0,990.0 657.0,985.0 657.0,982.0 659.0,980.0 660.0,977.0 661.0,976.0 662.0" style="fill:none;stroke:#000000;stroke-width:2"/>
<polyline points="1032.0 636.0,1033.0 639.0,1033.0 643.0" style="fill:none;stroke:#000000;stroke-width:2"/>
<polyline points="1033.0 647.0,1033.0 643.0,1034.0 636.0,1036.0 633.0,1038.0 632.0,1042.0 632.0,1045.0 633.0,1047.0 635.0,1051.0 641.0,1052.0 644.0,1052.0 649.0,1051.0 653.0,1049.0 660.0,1048.0 662.0,1046.0 664.0,1042.0 664.0,1041.0 661.0,1045.0 660.0,1047.0 661.0,1051.0 662.0,1053.0 664.0,1055.0 667.0,1057.0 671.0,1058.0 675.0,1058.0 678.0,1057.0 680.0,1055.0 682.0,1053.0 683.0,1047.0 685.0,1045.0 686.0,1041.0 686.0,1033.0 685.0,1030.0 686.0" style="fill:none;stroke:#000000;stroke-width:2"/>
<polyline points="1072.0 666.0,1071.0 668.0,1070.0 672.0,1071.0 676.0,1072.0 678.0,1074.0 681.0,1076.0 682.0,1080.0 685.0,1083.0 686.0,1087.0 687.0,1093.0 686.0,1095.0 684.0,1097.0 681.0,1098.0 678.0,1097.0 674.0,1096.0 676.0,1096.0 682.0,1097.0 685.0,1097.0 689.0,1098.0 693.0,1098.0 696.0,1099.0 700.0,1099.0 704.0,1100.0 707.0,1100.0 711.0,1099.0 714.0,1099.0 718.0,1097.0 724.0,1094.0 729.0,1092.0 730.0,1088.0 731.0,1085.0 729.0,1084.0 727.0,1082.0 724.0,1083.0 721.0,1084.0 719.0,1086.0 716.0,1088.0 714.0,1091.0 712.0,1093.0 710.0,1096.0 706.0,1098.0 705.0" style="fill:none;stroke:#000000;stroke-width:2"/>
<polyline points="1134.0 663.0,1136.0 667.0,1137.0 670.0,1138.0 672.0,1142.0 676.0" style="fill:none;stroke:#000000;stroke-width:2"/>
<polyline points="1130.0 629.0,1135.0 629.0,1137.0 628.0,1136.0 627.0" style="fill:none;stroke:#000000;stroke-width:2"/>
<polyline points="497.9 690.6,492.4 691.7,490.2 693.9,490.2 696.1,492.4 693.9,495.7 691.7,497.9 689.5,500.1 688.4,502.3 686.2,508.9 678.5,511.1 675.2,514.4 669.7,516.6 664.2,517.7 657.6,519.9 648.8,521.0 641.1,523.2 620.2,523.2 613.6,522.1 603.7,521.0 599.3,518.8 596.0,516.6 593.8,514.4 594.9,513.3 598.2,511.1 601.5,508.9 608.1,507.8 614.7,506.7 623.5,503.4 643.3,502.3 668.6,503.4 682.9,504.5 703.8,504.5 711.5,506.7 724.7,510.0 751.1,512.2 762.1,514.4 772.0,515.5 781.9,517.7 788.5,519.9 798.4,522.1 797.3,522.1 794.0,521.0 783.0,518.8 780.8,513.3 777.5,506.7 776.4,502.3 776.4,499.0 777.5,496.8 777.5,494.6 779.7,494.6 781.9" style="fill:none;stroke:#000000;stroke-width:2"/>
<polyline points="552.9 587.2,550.7 589.4,547.4 593.8,545.2 597.1,543.0 601.5,541.9 608.1,539.7 614.7,539.7 622.4,538.6 631.2,538.6 641.1,539.7 659.8,540.8 669.7,545.2 693.9,547.4 701.6,548.5 706.0,551.8 712.6,554.0 712.6,558.4 708.2" style="fill:none;stroke:#000000;stroke-width:2"/>
<polyline points="565.0 680.7,565.0 678.5,563.9 671.9,563.9 669.7,562.8 664.2,562.8 662.0,563.9 658.7,563.9 656.5,565.0 654.3,567.2 648.8,569.4 645.5,571.6 645.5,572.7 648.8,571.6 652.1,571.6 655.4,572.7 664.2,572.7 666.4,573.8 670.8,573.8 673.0,574.9 676.3,576.0 680.7,578.2 685.1,579.3 689.5,579.3 693.9,580.4 699.4,581.5 706.0,581.5 713.7,582.6 729.1,582.6 736.8,583.7 744.5,583.7 751.1,584.8 757.7,584.8 763.2,583.7 766.5,583.7 770.9,582.6 774.2,582.6 776.4,579.3 776.4,578.2 774.2,578.2 770.9,577.1 765.4,577.1 761.0,578.2 745.6,579.3 739.0,580.4 734.6,582.6 729.1,584.8 725.8,589.2 720.3,590.3 718.1,594.7 707.1" style="fill:none;stroke:#000000;stroke-width:2"/>
<polyline points="588.1 569.6,591.4 574.0,599.1 583.9,602.4 589.4,605.7 597.1,610.1 604.8,613.4 614.7,618.9 636.7,621.1 648.8,622.2 662.0,625.5 686.2,626.6 696.1,626.6 703.8,624.4 719.2" style="fill:none;stroke:#000000;stroke-width:2"/>
<polyline points="1266.8 651.0,1264.6 652.1,1261.3 653.2,1259.1 654.3,1249.2 658.7,1247.0 658.7,1244.8 659.8,1242.6 659.8,1239.3 660.9,1237.1 665.3" style="fill:none;stroke:#000000;stroke-width:2"/>
<polyline points="1261.3 687.3,1256.9 688.4,1253.6 688.4,1241.5 690.6" style="fill:none;stroke:#000000;stroke-width:2"/>
<polyline points="1379.0 686.2,1376.8 688.4,1376.8 690.6,1375.7 687.3,1375.7 685.1,1374.6 678.5,1374.6 676.3,1373.5 671.9,1374.6 668.6,1374.6 666.4,1376.8 663.1,1380.1 658.7,1383.4 656.5,1386.7 655.4,1388.9 656.5,1390.0 658.7,1391.1 664.2,1392.2 667.5,1392.2 670.8,1393.3 688.4,1393.3 692.8,1394.4 702.7,1394.4 708.2,1395.5 720.3,1396.6 724.7,1397.7 730.2,1397.7 735.7,1398.8 740.1,1398.8 744.5,1399.9 748.9,1399.9 753.3,1398.8 762.1,1397.7 764.3,1394.4 766.5,1388.9 768.7,1386.7 766.5,1383.4 762.1,1382.3 758.8,1381.2 752.2,1382.3 747.8,1382.3 745.6,1385.6 739.0,1387.8 735.7,1392.2 730.2,1395.5 728.0,1397.7 726.9,1405.4 724.7,1408.7 728.0" style="fill:none;stroke:#000000;stroke-width:2"/>
<polyline points="1465.9 673.0,1459.3 674.1,1457.1 674.1,1451.6 675.2,1448.3 675.2,1440.6 676.3,1438.4 677.4,1435.1 679.6" style="fill:none;stroke:#000000;stroke-width:2"/>
<polyline points="1487.9 636.7,1487.9 633.4,1489.0 626.8,1490.1 624.6,1492.3 624.6,1494.5 625.7,1497.8 627.9,1500.0 630.1,1500.0 632.3,1502.2 636.7,1502.2 638.9,1501.1 644.4,1501.1 647.7,1500.0 651.0,1498.9 655.4,1493.4 667.5,1492.3 670.8,1491.2 675.2,1490.1 678.5,1489.0 680.7,1489.0 684.0,1490.1 691.7,1494.5 696.1,1497.8 697.2,1501.1 695.0,1505.5 691.7" style="fill:none;stroke:#000000;stroke-width:2"/>
<polyline points="1525.3 685.1,1524.2 682.9,1523.1 679.6,1520.9 674.1,1519.8 670.8,1519.8 668.6,1520.9 660.9,1522.0 658.7,1525.3 655.4,1526.4 652.1,1528.6 651.0,1529.7 648.8,1531.9 647.7,1533.0 645.5,1536.3 643.3,1535.2 645.5,1535.2 647.7,1534.1 651.0,1535.2 654.3,1535.2 656.5,1536.3 662.0,1537.4 665.3,1540.7 676.3,1542.9 681.8,1544.0 686.2,1546.2 690.6,1547.3 696.1,1547.3 701.6,1546.2 728.0,1545.1 731.3,1542.9 736.8,1541.8 739.0,1539.6 740.1,1536.3 742.3,1534.1 742.3,1531.9 739.0,1531.9 736.8,1535.2 719.2,1536.3 715.9,1538.5 712.6,1539.6 709.3,1541.8 703.8,1541.8 701.6,1541.8 699.4" style="fill:none;stroke:#000000;stroke-width:2"/>
<polyline points="1546.2 630.1,1544.0 631.2,1538.5 634.5,1536.3 635.6,1533.0 636.7,1529.7 636.7,1527.5 637.8,1524.2 640.0" style="fill:none;stroke:#000000;stroke-width:2"/>
<polyline points="1591.3 637.8,1591.3 641.1,1592.4 643.3,1592.4 646.6,1593.5 653.2,1593.5 657.6,1594.6 660.9,1597.9 667.5,1599.0 670.8,1602.3 676.3" style="fill:none;stroke:#000000;stroke-width:2"/>
<polyline points="1605.6 660.9,1602.3 659.8,1599.0 659.8,1595.7 658.7,1592.4 658.7,1585.8 659.8,1583.6 659.8,1581.4 660.9,1579.2 660.9,1579.2 663.1" style="fill:none;stroke:#000000;stroke-width:2"/>
<polyline points="1615.5 635.6,1616.6 633.4,1617.7 630.1,1619.9 626.8,1621.0 623.5,1623.2 618.0,1625.4 616.9,1627.6 616.9,1630.9 621.3,1632.0 623.5,1633.1 629.0,1633.1 632.3,1632.0 636.7,1629.8 640.0,1628.7 643.3,1626.5 646.6,1623.2 652.1,1622.1 657.6,1622.1 659.8,1623.2 663.1,1625.4 665.3,1628.7 666.4,1630.9 666.4,1633.1 667.5,1640.8 665.3,1644.1 663.1,1646.3 664.2" style="fill:none;stroke:#000000;stroke-width:2"/>
<polyline points="604.6 1023.9,605.7 1028.3,607.9 1031.6,609.0 1033.8,609.0 1030.5,610.1 1019.5,611.2 1017.3,613.4 1014.0,615.6 1011.8,617.8 1010.7,620.0 1008.5,624.4 1005.2,626.6 1005.2,627.7 1007.4,628.8 1010.7,629.9 1012.9,631.0 1016.2,631.0 1020.6,632.1 1023.9,632.1 1028.3,633.2 1031.6,633.2 1036.0,634.3 1040.4,634.3 1045.9,635.4 1051.4,636.5 1058.0,638.7 1064.6,639.8 1070.1,640.9 1076.7,642.0 1082.2,643.1 1088.8,643.1 1094.3,642.0 1108.6,642.0 1111.9,639.8 1115.2,638.7 1117.4,636.5 1118.5,631.0 1119.6,627.7 1118.5,626.6 1116.3,623.3 1108.6,623.3 1105.3,624.4 1093.2,625.5 1091.0,627.7 1085.5,628.8 1083.3,631.0 1081.1,632.1 1078.9,634.3 1075.6,636.5 1072.3" style="fill:none;stroke:#000000;stroke-width:2"/>
<polyline points="677.2 1022.8,676.1 1025.0,673.9 1025.0,670.6 1027.2,669.5 1029.4,665.1 1031.6,662.9 1031.6,661.8 1033.8" style="fill:none;stroke:#000000;stroke-width:2"/>
<polyline points="688.2 1001.9,688.2 998.6,689.3 996.4,690.4 993.1,691.5 990.9,694.8 989.8,697.0 989.8,700.3 993.1,703.6 998.6,704.7 1000.8,705.8 1004.1,705.8 1007.4,704.7 1017.3,703.6 1020.6,701.4 1023.9,700.3 1027.2,698.1 1030.5,695.9 1037.1,695.9 1039.3,697.0 1044.8,699.2 1042.6,702.5 1041.5,704.7 1040.4,710.2 1037.1" style="fill:none;stroke:#000000;stroke-width:2"/>
<polyline points="727.8 1034.9,727.8 1031.6,726.7 1029.4,725.6 1026.1,725.6 1023.9,726.7 1019.5,726.7 1017.3,727.8 1015.1,731.1 1009.6,732.2 1007.4,735.5 1005.2,737.7 1003.0,739.9 1003.0,739.9 1005.2,742.1 1007.4,743.2 1009.6,743.2 1011.8,744.3 1015.1,744.3 1019.5,743.2 1037.1,743.2 1042.6,744.3 1064.6,745.4 1070.1,745.4 1075.6,746.5 1080.0,747.6 1085.5,747.6 1089.9,748.7 1093.2,748.7 1096.5,747.6 1102.0,746.5 1104.2,744.3 1104.2,741.0 1103.1,736.6 1100.9,735.5 1098.7,733.3 1096.5,732.2 1094.3,731.1 1091.0,730.0 1088.8,730.0 1085.5,731.1 1076.7,732.2 1073.4,734.4 1071.2,735.5 1069.0,737.7 1066.8,739.9 1065.7,743.2 1063.5" style="fill:none;stroke:#000000;stroke-width:2"/>
<polyline points="750.9 978.8,745.4 981.0,743.2 982.1,739.9 983.2,736.6 983.2,734.4 984.3,731.1 988.7" style="fill:none;stroke:#000000;stroke-width:2"/>
<polyline points="805.9 993.1,805.9 996.4,804.8 998.6,804.8 1000.8,804.8 1023.9" style="fill:none;stroke:#000000;stroke-width:2"/>
<polyline points="811.4 1011.8,807.0 1014.0,803.7 1016.2,801.5 1017.3,797.1 1018.4,794.9 1018.4,791.6 1018.4" style="fill:none;stroke:#000000;stroke-width:2"/>
<polyline points="826.8 997.5,825.7 995.3,824.6 988.7,824.6 986.5,825.7 982.1,827.9 978.8,830.1 976.6,832.3 975.5,835.6 974.4,837.8 974.4,841.1 977.7,843.3 978.8,844.4 982.1,844.4 985.4,845.5 988.7,845.5 992.0,844.4 996.4,843.3 999.7,842.2 1004.1,837.8 1017.3,836.7 1021.7,836.7 1023.9,835.6 1026.1,835.6 1028.3,837.8 1026.1,843.3 1021.7,844.4 1019.5,846.6 1018.4,849.9 1016.2,853.2 1014.0" style="fill:none;stroke:#000000;stroke-width:2"/>
<polyline points="940.1 990.9,935.7 989.8,932.4 989.8,922.5 990.9,918.1 992.0,914.8 992.0,910.4 993.1,907.1 994.2,903.8 994.2,900.5 995.3,897.2 995.3,898.3 998.6" style="fill:none;stroke:#000000;stroke-width:2"/>
<polyline points="912.6 1012.9,903.8 1011.8,900.5 1011.8,895.0 1010.7,892.8 1011.8,893.9 1017.3" style="fill:none;stroke:#000000;stroke-width:2"/>
<polyline points="966.5 1011.8,964.3 1009.6,962.1 1004.1,959.9 1000.8,959.9 998.6,957.7 996.4,958.8 994.2,961.0 994.2,963.2 993.1,966.5 990.9,968.7 989.8,970.9 987.6,973.1 986.5,976.4 984.3,979.7 984.3,980.8 986.5,981.9 990.9,983.0 999.7,983.0 1004.1,984.1 1008.5,985.2 1014.0,986.3 1025.0,987.4 1032.7,989.6 1039.3,990.7 1047.0,994.0 1061.3,994.0 1069.0,995.1 1075.6,994.0 1081.1,992.9 1085.5,990.7 1091.0,988.5 1095.4,986.3 1098.7,983.0 1102.0,978.6 1103.1,969.8 1104.2,966.5 1103.1,961.0 1099.8,959.9 1097.6,958.8 1093.2,958.8 1089.9,961.0 1087.7,963.2 1084.4,966.5 1081.1,978.6 1070.1,983.0 1067.9,991.8 1064.6,996.2 1063.5,999.5 1063.5,1003.9 1066.8" style="fill:none;stroke:#000000;stroke-width:2"/>
<polyline points="653.9 1259.4,653.0 1255.7,651.2 1253.0,650.3 1251.2,649.3 1247.5,648.4 1245.7,648.4 1243.0,647.5 1241.2,647.5 1234.8,648.4 1232.1,649.3 1230.3,650.3 1227.5,651.2 1225.7,653.0 1224.8,654.8 1223.0,658.4 1221.2,661.2 1223.0,662.1 1224.8,663.9 1227.5,664.8 1229.4,665.7 1232.1,670.3 1248.5,671.2 1251.2,673.9 1257.5,674.8 1260.3,675.7 1266.6,676.6 1269.4,677.5 1273.0,678.4 1277.5,678.4 1281.2,679.3 1285.7,680.3 1289.4,680.3 1293.9,679.3 1302.1,679.3 1305.7,677.5 1310.3,676.6 1313.9,673.9 1320.3,673.0 1323.0,671.2 1323.9,668.4 1323.9,667.5 1320.3,667.5 1317.5,668.4 1309.4,668.4 1303.9,669.3 1299.4,669.3 1293.9,671.2 1286.6,672.1 1284.8,673.9 1282.1,674.8 1280.3,675.7 1278.5" style="fill:none;stroke:#000000;stroke-width:2"/>
<polyline points="704.8 1234.8,697.5 1235.7,694.8 1235.7,693.9 1236.6" style="fill:none;stroke:#000000;stroke-width:2"/>
<polyline points="716.6 1214.8,718.4 1213.0,723.0 1209.4,726.6 1209.4,728.4 1211.2,732.1 1217.5,733.0 1220.3,733.0 1223.9,732.1 1231.2,732.1 1234.8,731.2 1237.5,729.3 1242.1,728.4 1243.9,727.5 1248.5,728.4 1251.2,729.3 1253.0,731.2 1253.9,733.9 1253.9,740.3 1253.0,744.8 1252.1,746.6 1250.3,748.4 1247.5" style="fill:none;stroke:#000000;stroke-width:2"/>
<polyline points="764.8 1247.5,763.9 1245.7,762.1 1243.0,761.2 1239.4,760.3 1234.8,760.3 1232.1,761.2 1219.4,762.1 1216.6,763.9 1214.8,766.6 1213.9,770.3 1213.9,772.1 1214.8,775.7 1215.7,777.5 1216.6,778.4 1218.5,777.5 1225.7,777.5 1229.4,776.6 1233.9,776.6 1238.5,777.5 1247.5,777.5 1252.1,779.3 1256.6,780.3 1261.2,781.2 1264.8,783.0 1268.5,783.9 1271.2,786.6 1274.8,788.4 1276.6,789.3 1279.4,788.4 1282.1,787.5 1283.9,784.8 1286.6,781.2 1286.6,776.6 1283.9,775.7 1282.1,774.8 1279.4,774.8 1276.6,775.7 1272.1,776.6 1269.4,780.3 1256.6,780.3 1250.3" style="fill:none;stroke:#000000;stroke-width:2"/>
<polyline points="787.5 1189.4,785.7 1190.3,782.1 1193.0,780.3 1193.9,777.5 1194.8,773.9 1194.8,771.2 1193.9,769.3 1192.1" style="fill:none;stroke:#000000;stroke-width:2"/>
<polyline points="839.3 1217.5,836.6 1218.5,833.0 1218.5,829.3 1220.3,824.8 1223.9,824.8 1229.4" style="fill:none;stroke:#000000;stroke-width:2"/>
<polyline points="866.6 1240.3,865.7 1237.5,864.8 1233.9,864.8 1231.2,863.9 1228.5,863.0 1223.0,863.0 1218.5,863.9 1215.7,865.7 1213.0,867.5 1211.2,871.2 1211.2,882.1 1212.1,882.1 1215.7,881.2 1221.2,881.2 1224.8,880.3 1228.5,880.3 1233.0,881.2 1259.4,881.2 1264.8,883.0 1276.6,883.0 1281.2,883.9 1287.5,884.8 1293.0,885.7 1303.0,885.7 1308.5,884.8 1312.1,884.8 1315.7,883.9 1319.4,882.1 1322.1,879.3 1326.6,877.5 1327.5,874.8 1327.5,870.3 1325.7,867.5 1323.0,865.7 1320.3,861.2 1311.2,861.2 1308.5,863.9 1299.4,865.7 1297.5,868.4 1295.7,870.3 1293.9,872.1 1293.0,874.8 1292.1,876.6 1291.2,879.3 1289.4,883.0 1285.7" style="fill:none;stroke:#000000;stroke-width:2"/>
<polyline points="937.5 1212.1,935.7 1213.0,931.2 1213.0,928.4 1213.9,926.6 1214.8,923.0 1215.7,921.2 1216.6,917.5 1217.5,916.6 1218.5" style="fill:none;stroke:#000000;stroke-width:2"/>
<polyline points="933.9 1231.2,923.9 1232.1,923.0 1233.0" style="fill:none;stroke:#000000;stroke-width:2"/>
<polyline points="967.5 1217.5,966.6 1214.8,964.8 1212.1,963.9 1209.4,963.0 1207.5,962.1 1204.8,963.0 1203.0,966.6 1198.5,968.4 1196.6,970.3 1195.7,973.0 1194.8,977.5 1194.8,981.2 1196.6,982.1 1198.5,983.0 1201.2,983.0 1203.9,982.1 1210.3,981.2 1212.1,980.3 1214.8,978.4 1217.5,973.9 1223.0,972.1 1225.7,971.2 1228.5,969.3 1231.2,970.3 1236.6,973.9 1238.5,977.5 1238.5,982.1 1239.4,986.6 1239.4,992.1 1238.5,996.6 1237.5,1000.3 1235.7,1003.0 1234.8" style="fill:none;stroke:#000000;stroke-width:2"/>
<polyline points="1199.9 1688.8,1195.9 1686.8,1193.9 1684.8,1188.9 1682.8,1186.9 1681.8,1183.9 1681.8,1180.9 1682.8,1176.9 1683.8,1173.9 1686.8,1170.9 1690.8,1168.9 1694.8,1166.9 1699.8,1164.9 1703.8,1164.9 1709.8,1163.9 1714.8,1165.9 1725.8,1170.9 1740.8,1172.9 1745.8,1176.9 1749.8,1191.9 1765.8,1194.9 1769.8,1198.9 1778.8,1198.9 1782.8,1197.9 1789.8,1195.9 1792.8,1192.9 1794.8,1188.9 1797.8,1179.9 1802.8,1174.9 1803.8,1169.9 1805.8,1164.9 1805.8,1154.9 1804.8,1149.9 1803.8,1145.9 1802.8,1142.9 1800.8,1140.9 1799.8,1141.9 1797.8,1145.9 1798.8" style="fill:none;stroke:#000000;stroke-width:2"/>
<polyline points="1230.9 1820.8,1231.9 1818.8,1229.9 1816.8,1225.9 1814.8,1218.9 1818.8,1214.9 1820.8,1211.9 1824.8,1202.9 1837.8,1200.9 1842.8,1198.9 1848.8,1197.9 1854.8,1197.9 1861.8,1198.9 1868.8,1200.9 1874.8,1205.9 1885.8,1208.9 1890.8,1211.9 1893.8,1215.9 1895.8,1218.9 1896.8,1226.9 1892.8,1232.9 1889.8" style="fill:none;stroke:#000000;stroke-width:2"/>
<polyline points="1205.9 1834.8,1206.9 1836.8,1207.9 1841.8,1207.9 1845.8,1208.9 1857.8,1208.9 1861.8,1209.9 1873.8,1209.9 1876.8,1210.9 1880.8,1212.9 1885.8" style="fill:none;stroke:#000000;stroke-width:2"/>
<polyline points="1317.9 1740.8,1312.9 1741.8,1309.9 1742.8,1305.9 1743.8,1293.9 1745.8,1290.9 1745.8,1286.9 1746.8,1284.9 1747.8" style="fill:none;stroke:#000000;stroke-width:2"/>
<polyline points="1307.9 1760.8,1302.9 1761.8,1298.9 1762.8,1291.9 1764.8,1289.9 1765.8,1285.9 1767.8" style="fill:none;stroke:#000000;stroke-width:2"/>
<polyline points="1377.9 1678.8,1375.9 1680.8,1373.9 1683.8,1371.9 1685.8,1370.9 1688.8,1370.9 1692.8,1369.9 1695.8,1369.9 1698.8,1370.9 1705.8,1371.9 1709.8,1372.9 1714.8,1374.9 1719.8,1379.9 1730.8,1382.9 1735.8,1384.9 1741.8,1388.9 1758.8,1388.9 1763.8,1386.9 1768.8,1383.9 1773.8,1380.9 1777.8,1376.9 1779.8,1371.9 1781.8,1366.9 1781.8,1361.9 1780.8,1357.9 1779.8,1349.9 1773.8,1346.9 1770.8,1344.9 1767.8,1343.9 1765.8,1343.9 1761.8,1345.9 1758.8,1350.9 1758.8,1352.9 1759.8,1355.9 1760.8,1357.9 1762.8,1362.9 1768.8,1364.9 1771.8,1365.9 1775.8,1365.9 1780.8,1364.9 1790.8,1363.9 1796.8,1360.9 1808.8,1358.9 1814.8,1355.9 1826.8,1354.9 1833.8,1353.9 1839.8,1346.9 1890.8,1346.9 1894.8,1347.9 1897.8,1349.9 1899.8,1351.9 1902.8,1354.9 1903.8,1358.9 1904.8,1362.9 1904.8,1372.9 1902.8,1383.9 1897.8,1388.9 1893.8,1392.9 1889.8,1396.9 1886.8,1398.9 1883.8,1401.9 1879.8" style="fill:none;stroke:#000000;stroke-width:2"/>
<polyline points="1461.9 1761.8,1464.9 1759.8,1465.9 1757.8,1467.9 1754.8,1469.9 1750.8,1472.9 1746.8,1479.9 1738.8,1482.9 1733.8,1486.9 1729.8,1489.9 1725.8,1491.9 1721.8,1496.9 1709.8,1495.9 1713.8,1493.9 1722.8,1493.9 1727.8,1492.9 1732.8,1491.9 1738.8,1491.9 1744.8,1490.9 1755.8,1491.9 1760.8,1491.9 1764.8,1492.9 1771.8,1495.9 1771.8" style="fill:none;stroke:#000000;stroke-width:2"/>
<polyline points="1557.9 1661.8,1559.9 1659.8,1562.9 1658.8,1567.9 1657.8,1569.9 1658.8,1573.9 1659.8,1575.9 1660.8,1578.9 1662.8,1582.9 1667.8,1584.9 1670.8,1584.9 1674.8,1585.9 1679.8,1585.9 1683.8,1584.9 1693.8,1584.9 1698.8,1583.9 1703.8,1579.9 1717.8,1578.9 1721.8,1577.9 1724.8,1575.9 1733.8,1574.9 1735.8,1575.9 1738.8,1579.9 1739.8,1582.9 1739.8,1584.9 1740.8,1588.9 1740.8,1591.9 1741.8,1595.9 1741.8,1601.9 1740.8,1604.9 1738.8,1609.9 1734.8,1611.9 1732.8,1612.9 1730.8,1612.9 1726.8,1610.9 1724.8,1607.9 1725.8,1601.9 1729.8,1597.9 1732.8,1594.9 1736.8,1591.9 1741.8,1586.9 1751.8,1585.9 1757.8,1584.9 1762.8,1583.9 1770.8,1582.9 1773.8,1583.9 1777.8,1583.9 1780.8,1585.9 1783.8,1586.9 1788.8,1589.9 1792.8,1592.9 1797.8,1598.9 1808.8,1601.9 1813.8,1606.9 1824.8,1607.9 1830.8,1608.9 1843.8,1607.9 1850.8,1602.9 1865.8,1597.9 1873.8,1592.9 1880.8,1577.9 1893.8,1570.9 1897.8,1562.9 1900.8,1555.9 1902.8,1550.9 1902.8,1546.9 1901.8,1543.9 1899.8,1543.9 1896.8,1544.9 1891.8,1547.9 1886.8,1551.9 1881.8,1560.9 1871.8,1563.9 1868.8,1566.9 1870.8" style="fill:none;stroke:#000000;stroke-width:2"/>
<polyline points="713.9 2091.8,712.9 2095.8,711.9 2101.8,711.9 2104.8,713.9 2120.8,714.9 2126.8,715.9 2131.8,716.9 2137.8,717.9 2142.8,719.9 2151.8,720.9 2154.8,720.9 2157.8" style="fill:none;stroke:#000000;stroke-width:2"/>
<polyline points="688.9 2118.8,687.9 2115.8,686.9 2110.8,687.9 2106.8,687.9 2103.8,688.9 2101.8,690.9 2099.8,696.9 2094.8,700.9 2091.8,711.9 2088.8,717.9 2089.8,724.9 2090.8,730.9 2094.8,737.9 2098.8,742.9 2104.8,751.9 2117.8,754.9 2124.8,756.9 2132.8,757.9 2139.8,755.9 2149.8,752.9 2152.8,746.9 2157.8,742.9 2158.8,739.9 2160.8,735.9 2162.8,732.9 2163.8,729.9 2165.8,727.9 2166.8,724.9 2166.8,720.9 2163.8" style="fill:none;stroke:#000000;stroke-width:2"/>
<polyline points="782.9 2137.8,780.9 2135.8,777.9 2134.8,772.9 2136.8,770.9 2138.8,767.9 2143.8,766.9 2146.8,766.9 2150.8,767.9 2156.8,768.9 2159.8,770.9 2162.8,774.9 2164.8,779.9 2159.8,780.9 2155.8,781.9 2148.8,781.9 2145.8,780.9 2142.8,776.9 2142.8,769.9 2145.8" style="fill:none;stroke:#000000;stroke-width:2"/>
<polyline points="801.9 2159.8,800.9 2156.8,800.9 2151.8,801.9 2149.8,802.9 2146.8,805.9 2143.8,809.9 2141.8,811.9 2143.8,812.9 2145.8,813.9 2149.8,813.9 2153.8,812.9 2164.8,811.9 2169.8,813.9 2166.8" style="fill:none;stroke:#000000;stroke-width:2"/>
<polyline points="830.9 2141.8,827.9 2143.8,825.9 2145.8,822.9 2147.8,821.9 2149.8,819.9 2152.8,819.9 2155.8,821.9 2160.8,824.9 2165.8,827.9 2166.8,829.9 2167.8,833.9 2168.8,836.9 2168.8,839.9 2166.8,842.9 2165.8,845.9 2163.8,851.9 2159.8" style="fill:none;stroke:#000000;stroke-width:2"/>
<polyline points="891.9 2133.8,890.9 2136.8,890.9 2142.8,891.9 2159.8,891.9 2163.8,893.9 2163.8" style="fill:none;stroke:#000000;stroke-width:2"/>
<polyline points="889.9 2086.8,889.9 2090.8,890.9 2099.8,892.9 2101.8" style="fill:none;stroke:#000000;stroke-width:2"/>
<polyline points="915.9 2054.8,915.9 2057.8,914.9 2101.8,914.9 2113.8,915.9 2125.8,917.9 2136.8,919.9 2146.8,921.9 2153.8,923.9 2159.8,925.9 2162.8,926.9 2164.8,930.9 2161.8" style="fill:none;stroke:#000000;stroke-width:2"/>
<polyline points="1026.9 2149.8,1028.9 2151.8,1030.9 2152.8,1032.9 2150.8,1036.9 2149.8,1039.9 2146.8,1042.9 2142.8,1043.9 2140.8,1044.9 2137.8,1045.9 2135.8,1045.9 2132.8,1044.9 2128.8,1041.9 2126.8,1038.9 2127.8,1036.9 2128.8,1033.9 2130.8,1032.9 2132.8,1030.9 2135.8,1029.9 2138.8,1028.9 2144.8,1029.9 2147.8,1029.9 2150.8,1030.9 2153.8,1032.9 2156.8,1033.9 2158.8,1035.9 2159.8,1041.9 2159.8,1045.9 2156.8,1047.9 2154.8,1050.9 2152.8,1052.9 2150.8,1057.9 2146.8,1059.9 2144.8,1062.9 2143.8,1064.9 2145.8,1065.9 2147.8,1066.9 2150.8,1067.9 2155.8,1066.9 2158.8,1065.9 2162.8,1064.9 2164.8,1062.9 2165.8,1058.9 2166.8,1052.9 2167.8,1050.9 2165.8,1050.9 2161.8" style="fill:none;stroke:#000000;stroke-width:2"/>
<polyline points="1079.9 2142.8,1073.9 2144.8,1071.9 2146.8,1070.9 2148.8,1069.9 2151.8,1069.9 2154.8,1071.9 2161.8,1072.9 2163.8,1074.9 2164.8,1078.9 2165.8,1081.9 2164.8,1083.9 2163.8,1086.9 2162.8,1088.9 2161.8,1093.9 2159.8" style="fill:none;stroke:#000000;stroke-width:2"/>
<polyline points="1120.9 2133.8,1120.9 2136.8,1121.9 2139.8,1121.9 2143.8,1122.9 2149.8,1126.9 2158.8" style="fill:none;stroke:#000000;stroke-width:2"/>
<polyline points="1117.9 2104.8,1120.9 2108.8,1121.9 2111.8,1122.9 2127.8" style="fill:none;stroke:#000000;stroke-width:2"/>
<polyline points="1140.9 2151.8,1141.9 2148.8,1141.9 2145.8,1142.9 2143.8,1144.9 2138.8,1146.9 2135.8,1148.9 2133.8,1152.9 2132.8,1155.9 2133.8,1161.9 2136.8,1164.9 2138.8,1166.9 2139.8,1167.9 2141.8,1166.9 2146.8,1165.9 2149.8,1163.9 2152.8,1160.9 2154.8,1158.9 2155.8,1155.9 2157.8,1153.9 2158.8,1149.9 2159.8,1147.9 2158.8,1144.9 2155.8" style="fill:none;stroke:#000000;stroke-width:2"/>
<polyline points="1176.9 2048.8,1179.9 2053.8,1180.9 2058.8,1181.9 2065.8,1183.9 2074.8,1184.9 2083.8,1187.9 2102.8,1189.9 2111.8,1192.9 2120.8,1197.9 2128.8,1201.9 2135.8,1206.9 2140.8,1215.9 2145.8" style="fill:none;stroke:#000000;stroke-width:2"/>
<polyline points="1198.9 2105.8,1195.9 2104.8,1190.9 2103.8,1182.9 2102.8,1181.9 2104.8,1179.9 2109.8,1179.9 2123.8" style="fill:none;stroke:#000000;stroke-width:2"/>
<polyline points="1223.9 2138.8,1227.9 2138.8,1233.9 2137.8,1235.9 2136.8,1236.9 2134.8,1238.9 2128.8,1239.9 2126.8,1240.9 2122.8,1237.9 2125.8,1236.9 2128.8,1234.9 2131.8,1232.9 2135.8,1231.9 2138.8,1229.9 2145.8,1230.9 2150.8,1232.9 2152.8,1235.9 2153.8,1241.9 2154.8,1245.9 2154.8,1248.9 2153.8,1254.9 2149.8" style="fill:none;stroke:#000000;stroke-width:2"/>
<polyline points="1319.9 2119.8,1319.9 2123.8,1320.9 2125.8,1320.9 2128.8,1321.9 2131.8,1321.9 2134.8,1322.9 2137.8,1325.9 2143.8,1328.9 2147.8,1330.9 2148.8,1334.9 2148.8,1336.9 2147.8,1337.9 2145.8,1339.9 2142.8,1340.9 2140.8,1343.9 2132.8,1343.9 2128.8,1342.9 2113.8,1341.9 2110.8,1340.9 2108.8,1340.9 2112.8,1341.9 2115.8,1341.9 2119.8,1342.9 2123.8,1342.9 2134.8" style="fill:none;stroke:#000000;stroke-width:2"/>
<polyline points="1358.9 2148.8,1359.9 2146.8,1360.9 2142.8,1360.9 2139.8,1361.9 2133.8,1361.9 2129.8,1362.9 2126.8,1364.9 2123.8,1367.9 2119.8,1370.9 2118.8,1371.9 2120.8,1373.9 2125.8,1374.9 2129.8,1375.9 2132.8,1376.9 2136.8,1376.9 2140.8,1377.9 2147.8,1379.9 2145.8" style="fill:none;stroke:#000000;stroke-width:2"/>
<polyline points="1422.9 2144.8,1423.9 2141.8,1422.9 2136.8,1422.9 2133.8,1423.9 2124.8,1426.9 2121.8,1432.9 2116.8,1435.9 2113.8,1438.9 2111.8,1440.9 2110.8,1442.9 2112.8,1443.9 2115.8,1444.9 2119.8,1444.9 2123.8,1445.9 2148.8,1446.9 2149.8" style="fill:none;stroke:#000000;stroke-width:2"/>
<polyline points="1472.9 2110.8,1470.9 2112.8,1467.9 2113.8,1465.9 2115.8,1461.9 2118.8,1458.9 2121.8,1453.9 2128.8,1452.9 2131.8,1452.9 2134.8,1453.9 2139.8,1455.9 2140.8,1460.9 2140.8,1466.9 2139.8,1469.9 2137.8,1472.9 2136.8,1474.9 2133.8,1476.9 2128.8,1476.9 2125.8,1474.9 2121.8,1472.9 2118.8,1469.9 2115.8,1466.9 2113.8,1463.9 2112.8,1458.9 2111.8,1456.9 2112.8,1455.9 2114.8,1459.9 2119.8" style="fill:none;stroke:#000000;stroke-width:2"/>
<polyline points="1498.9 2137.8,1497.9 2135.8,1495.9 2129.8,1492.9 2121.8,1492.9 2117.8,1493.9 2105.8,1495.9 2102.8,1498.9 2100.8,1503.9 2102.8,1506.9 2104.8,1508.9 2108.8,1511.9 2122.8,1510.9 2126.8,1508.9 2133.8,1507.9 2135.8,1506.9 2131.8,1507.9 2127.8,1507.9 2121.8,1508.9 2116.8,1510.9 2109.8,1513.9 2108.8,1515.9 2109.8,1518.9 2110.8,1521.9 2113.8,1527.9 2120.8,1529.9 2123.8,1530.9 2125.8,1532.9 2122.8,1532.9 2119.8,1531.9 2115.8,1531.9 2112.8,1534.9 2114.8,1536.9 2118.8,1541.9 2129.8,1543.9 2134.8,1547.9 2142.8,1550.9 2143.8,1551.9 2141.8,1553.9 2139.8,1554.9 2135.8,1556.9 2131.8,1558.9 2124.8" style="fill:none;stroke:#000000;stroke-width:2"/>
<polyline points="1553.9 2055.8,1550.9 2057.8,1550.9 2062.8,1551.9 2071.8,1553.9 2076.8,1556.9 2089.8,1559.9 2097.8,1561.9 2104.8,1566.9 2117.8,1569.9 2126.8,1571.9 2129.8,1574.9 2131.8,1575.9 2127.8,1575.9 2123.8,1574.9 2117.8,1574.9 2112.8,1575.9 2103.8,1576.9 2099.8,1578.9 2097.8,1581.9 2098.8,1583.9 2099.8,1586.9 2101.8,1589.9 2104.8,1591.9 2107.8,1596.9 2115.8,1596.9 2118.8,1595.9 2123.8,1593.9 2126.8,1588.9 2131.8,1583.9 2135.8,1580.9 2136.8,1575.9 2136.8,1573.9 2135.8,1570.9 2131.8" style="fill:none;stroke:#000000;stroke-width:2"/>
<polyline points="1611.9 2121.8,1610.9 2118.8,1609.9 2113.8,1608.9 2111.8,1608.9 2107.8,1609.9 2102.8,1610.9 2099.8,1610.9 2096.8,1611.9 2093.8,1612.9 2089.8,1613.9 2087.8,1615.9 2085.8,1618.9 2087.8,1620.9 2088.8,1622.9 2090.8,1625.9 2089.8,1628.9 2089.8" style="fill:none;stroke:#000000;stroke-width:2"/>
<polyline points="1642.9 2109.8,1642.9 2105.8,1643.9 2103.8,1644.9 2100.8,1643.9 2102.8,1642.9 2105.8,1640.9 2107.8,1638.9 2110.8,1637.9 2114.8,1636.9 2117.8,1636.9 2123.8,1638.9 2127.8,1640.9 2128.8,1643.9 2129.8,1647.9 2130.8,1651.9 2130.8,1656.9 2131.8,1661.9 2131.8,1665.9 2130.8,1674.9 2125.8" style="fill:none;stroke:#000000;stroke-width:2"/>
<polyline points="1731.9 2086.8,1729.9 2087.8,1724.9 2090.8,1721.9 2093.8,1719.9 2096.8,1716.9 2099.8,1714.9 2102.8,1712.9 2106.8,1711.9 2109.8,1711.9 2112.8,1712.9 2119.8,1713.9 2123.8,1715.9 2125.8,1721.9 2131.8" style="fill:none;stroke:#000000;stroke-width:2"/>
<polyline points="1749.9 2102.8,1747.9 2104.8,1746.9 2106.8,1744.9 2111.8,1744.9 2114.8,1743.9 2117.8,1743.9 2122.8,1744.9 2126.8,1745.9 2129.8,1749.9 2130.8,1751.9 2129.8,1757.9 2125.8,1759.9 2123.8,1760.9 2120.8,1761.9 2116.8,1761.9 2112.8,1759.9 2105.8,1758.9 2102.8,1756.9 2100.8,1754.9 2099.8,1748.9 2103.8,1746.9 2105.8,1745.9 2108.8,1744.9 2113.8,1745.9 2118.8" style="fill:none;stroke:#000000;stroke-width:2"/>
<polyline points="1783.9 2119.8,1783.9 2116.8,1784.9 2106.8,1788.9 2104.8,1794.9 2108.8,1796.9 2110.8,1799.9 2117.8,1801.9 2121.8,1802.9 2124.8,1803.9 2126.8,1801.9 2123.8,1800.9 2120.8,1799.9 2113.8,1800.9 2106.8,1800.9 2103.8,1801.9 2101.8,1803.9 2104.8,1806.9 2110.8,1808.9 2115.8,1810.9 2118.8,1816.9 2125.8,1819.9 2126.8,1820.9 2123.8,1821.9 2121.8,1826.9 2117.8,1828.9 2119.8,1829.9 2121.8,1831.9 2122.8,1833.9 2124.8,1835.9 2123.8,1837.9 2121.8,1839.9 2118.8,1842.9 2117.8" style="fill:none;stroke:#000000;stroke-width:2"/>
<polyline points="1844.9 2102.8,1844.9 2105.8,1845.9 2109.8,1846.9 2112.8,1846.9 2115.8,1847.9 2119.8,1848.9 2124.8,1850.9 2128.8,1851.9 2134.8,1855.9 2152.8,1856.9 2158.8,1857.9 2163.8,1858.9 2172.8,1859.9 2174.8,1859.9 2171.8,1858.9 2147.8,1857.9 2143.8,1857.9 2139.8,1858.9 2134.8,1858.9 2129.8,1859.9 2120.8,1859.9 2115.8,1860.9 2112.8,1861.9 2107.8,1864.9 2108.8,1865.9 2110.8,1866.9 2113.8,1866.9 2118.8,1865.9 2123.8,1864.9 2125.8,1863.9 2128.8,1861.9 2132.8,1858.9 2136.8,1856.9 2138.8" style="fill:none;stroke:#000000;stroke-width:2"/>
<polyline points="1869.9 2040.8,1870.9 2043.8,1872.9 2053.8,1872.9 2057.8,1873.9 2067.8,1873.9 2073.8,1874.9 2079.8,1875.9 2084.8,1881.9 2110.8,1881.9 2113.8,1882.9 2116.8" style="fill:none;stroke:#000000;stroke-width:2"/>
<polyline points="1896.9 2105.8,1900.9 2102.8,1902.9 2100.8,1905.9 2095.8,1906.9 2093.8,1907.9 2089.8,1903.9 2090.8,1900.9 2093.8,1899.9 2096.8,1897.9 2098.8,1897.9 2101.8,1896.9 2104.8,1896.9 2107.8,1897.9 2109.8,1898.9 2112.8,1900.9 2113.8,1904.9 2114.8,1907.9 2115.8,1910.9 2115.8,1913.9 2116.8,1920.9 2118.8" style="fill:none;stroke:#000000;stroke-width:2"/>
<polyline points="1919.9 2108.8,1921.9 2107.8,1923.9 2104.8,1923.9 2099.8,1925.9 2097.8,1927.9 2098.8,1930.9 2100.8,1931.9 2102.8,1933.9 2107.8,1933.9 2110.8,1932.9 2119.8,1931.9 2121.8,1928.9 2122.8,1925.9 2120.8,1923.9 2116.8" style="fill:none;stroke:#000000;stroke-width:2"/>
<polyline points="1943.9 2095.8,1941.9 2098.8,1940.9 2100.8,1938.9 2102.8,1937.9 2104.8,1935.9 2105.8,1934.9 2109.8,1935.9 2112.8,1936.9 2114.8,1939.9 2115.8,1942.9 2115.8,1948.9 2114.8,1951.9 2114.8,1954.9 2113.8,1966.9 2109.8" style="fill:none;stroke:#000000;stroke-width:2"/>
<polyline points="1964.9 2100.8,1966.9 2099.8,1969.9 2096.8,1965.9 2098.8,1963.9 2100.8,1960.9 2105.8,1959.9 2107.8,1960.9 2112.8,1962.9 2115.8,1966.9 2117.8,1971.9 2119.8,1976.9 2120.8,1982.9 2120.8,1986.9 2118.8,1991.9 2110.8" style="fill:none;stroke:#000000;stroke-width:2"/>
<polyline points="2038.9 2037.8,2039.9 2040.8,2039.9 2044.8,2040.9 2049.8,2039.9 2061.8,2039.9 2067.8,2038.9 2073.8,2038.9 2079.8,2039.9 2090.8,2039.9 2094.8,2041.9 2098.8,2044.9 2103.8" style="fill:none;stroke:#000000;stroke-width:2"/>
<polyline points="2049.9 2071.8,2048.9 2073.8,2045.9 2074.8,2042.9 2076.8,2038.9 2078.8,2035.9 2080.8,2032.9 2083.8,2025.9 2089.8" style="fill:none;stroke:#000000;stroke-width:2"/>
<polyline points="2062.9 2092.8,2064.9 2089.8,2063.9 2086.8,2061.9 2087.8,2058.9 2089.8,2057.9 2091.8,2055.9 2094.8,2054.9 2097.8,2053.9 2104.8,2053.9 2107.8,2054.9 2109.8,2056.9 2112.8,2058.9 2113.8,2061.9 2113.8,2064.9 2112.8,2070.9 2109.8,2076.9 2106.8" style="fill:none;stroke:#000000;stroke-width:2"/>
<polyline points="2096.9 2033.8,2096.9 2036.8,2095.9 2083.8,2095.9 2086.8,2094.9 2094.8" style="fill:none;stroke:#000000;stroke-width:2"/>
<polyline points="2155.9 2091.8,2155.9 2087.8,2153.9 2084.8,2151.9 2082.8,2149.9 2081.8,2145.9 2081.8,2142.9 2083.8,2140.9 2084.8,2138.9 2087.8,2136.9 2089.8,2135.9 2092.8,2135.9 2095.8,2136.9 2099.8,2137.9 2102.8,2139.9 2104.8,2141.9 2105.8,2146.9 2105.8,2148.9 2100.8,2149.9 2097.8,2150.9 2093.8,2150.9 2090.8,2151.9 2145.8,2151.9 2150.8,2152.9 2163.8" style="fill:none;stroke:#000000;stroke-width:2"/>
<polyline points="2168.9 2082.8,2170.9 2083.8,2170.9 2087.8,2171.9 2089.8,2172.9 2093.8,2173.9 2095.8,2176.9 2097.8,2179.9 2097.8,2182.9 2095.8,2184.9 2093.8,2184.9 2090.8,2185.9 2088.8,2185.9 2085.8,2184.9 2075.8,2185.9 2083.8" style="fill:none;stroke:#000000;stroke-width:2"/>
<polyline points="2207.9 2087.8,2209.9 2084.8,2210.9 2081.8,2210.9 2077.8,2209.9 2073.8,2207.9 2072.8,2204.9 2075.8,2200.9 2080.8,2199.9 2083.8,2198.9 2092.8,2198.9 2095.8,2201.9 2097.8,2203.9 2098.8,2206.9 2098.8,2214.9 2095.8" style="fill:none;stroke:#000000;stroke-width:2"/>
<polyline points="2304.9 2098.8,2304.9 2094.8,2303.9 2092.8,2303.9 2089.8,2304.9 2074.8,2305.9 2070.8,2306.9 2068.8,2309.9 2066.8,2314.9 2063.8,2316.9 2062.8,2320.9 2063.8,2322.9 2065.8,2323.9 2069.8,2324.9 2074.8,2325.9 2080.8,2325.9 2085.8,2324.9 2091.8,2324.9 2096.8,2323.9 2100.8,2320.9 2111.8,2320.9 2115.8,2321.9 2123.8,2322.9 2127.8,2324.9 2130.8,2326.9 2134.8,2329.9 2138.8,2331.9 2143.8,2333.9 2147.8,2335.9 2152.8,2337.9 2156.8,2337.9 2161.8,2335.9 2173.8,2332.9 2176.8,2329.9 2178.8,2326.9 2178.8,2322.9 2179.8,2319.9 2178.8,2314.9 2175.8,2312.9 2172.8,2311.9 2168.8,2310.9 2163.8,2308.9 2152.8,2308.9 2147.8,2309.9 2142.8,2312.9 2133.8,2314.9 2130.8,2317.9 2129.8,2330.9 2127.8" style="fill:none;stroke:#000000;stroke-width:2"/>
<polyline points="2392.9 2072.8,2393.9 2069.8,2391.9 2067.8,2389.9 2068.8,2386.9 2068.8,2383.9 2069.8,2376.9 2070.8,2368.9 2073.8,2365.9 2074.8,2362.9 2076.8,2359.9 2083.8" style="fill:none;stroke:#000000;stroke-width:2"/>
<polyline points="2384.9 2093.8,2378.9 2094.8,2374.9 2095.8,2371.9 2096.8,2366.9 2099.8,2364.9 2100.8,2363.9 2106.8" style="fill:none;stroke:#000000;stroke-width:2"/>
<polyline points="2451.9 2094.8,2449.9 2092.8,2448.9 2090.8,2447.9 2086.8,2451.9 2088.8" style="fill:none;stroke:#000000;stroke-width:2"/>
<polyline points="2453.9 2093.8,2452.9 2090.8,2451.9 2088.8,2450.9 2084.8,2449.9 2081.8,2449.9 2077.8,2451.9 2074.8,2452.9 2072.8,2454.9 2070.8,2457.9 2068.8,2460.9 2067.8,2464.9 2067.8,2469.9 2068.8,2470.9 2072.8,2470.9 2076.8,2469.9 2082.8,2468.9 2086.8,2468.9 2091.8,2469.9 2094.8,2471.9 2101.8,2472.9 2105.8,2474.9 2109.8,2476.9 2115.8,2477.9 2121.8,2479.9 2128.8,2480.9 2135.8,2481.9 2149.8,2480.9 2156.8,2478.9 2163.8,2475.9 2169.8,2472.9 2174.8,2468.9 2178.8,2464.9 2181.8,2460.9 2182.8,2456.9 2182.8,2452.9 2181.8,2449.9 2179.8,2447.9 2181.8,2445.9 2182.8,2440.9 2182.8,2440.9 2163.8,2443.9 2159.8,2444.9 2155.8,2446.9 2152.8,2452.9 2147.8,2456.9 2144.8,2461.9 2141.8,2472.9 2137.8" style="fill:none;stroke:#000000;stroke-width:2"/>
<polyline points="2528.9 2083.8,2524.9 2086.8,2521.9 2087.8,2518.9 2089.8,2515.9 2089.8,2512.9 2090.8,2509.9 2090.8,2503.9 2089.8" style="fill:none;stroke:#000000;stroke-width:2"/>
<polyline points="2540.9 2051.8,2543.9 2048.8,2550.9 2042.8,2552.9 2041.8,2556.9 2041.8,2558.9 2042.8,2561.9 2045.8,2562.9 2048.8,2563.9 2050.8,2562.9 2053.8,2560.9 2060.8,2559.9 2064.8,2557.9 2069.8,2554.9 2077.8,2552.9 2080.8,2551.9 2083.8,2550.9 2085.8,2549.9 2089.8,2550.9 2091.8,2551.9 2094.8,2553.9 2096.8,2555.9 2095.8,2559.9 2092.8,2561.9 2091.8,2563.9 2089.8,2568.9 2088.8" style="fill:none;stroke:#000000;stroke-width:2"/>
<polyline points="2589.9 2093.8,2588.9 2088.8,2587.9 2084.8,2586.9 2082.8,2585.9 2079.8,2585.9 2074.8,2586.9 2072.8,2587.9 2069.8,2589.9 2066.8,2592.9 2064.8,2595.9 2065.8,2598.9 2067.8,2597.9 2070.8,2597.9 2075.8,2596.9 2078.8,2596.9 2081.8,2595.9 2085.8,2595.9 2089.8,2596.9 2099.8,2597.9 2103.8,2603.9 2125.8,2603.9 2130.8,2604.9 2135.8,2604.9 2139.8,2603.9 2143.8,2602.9 2146.8,2600.9 2148.8,2599.9 2150.8,2597.9 2151.8,2593.9 2152.8,2589.9 2152.8,2587.9 2149.8,2588.9 2146.8,2588.9 2143.8,2589.9 2140.8,2591.9 2133.8,2592.9 2129.8,2594.9 2124.8,2597.9 2115.8,2598.9 2111.8,2599.9 2109.8,2602.9 2107.8" style="fill:none;stroke:#000000;stroke-width:2"/>
<polyline points="2615.9 2045.8,2613.9 2046.8,2608.9 2049.8,2605.9 2050.8,2596.9 2054.8,2593.9 2055.8,2593.9 2058.8" style="fill:none;stroke:#000000;stroke-width:2"/>
<polyline points="2661.9 2057.8,2660.9 2061.8,2660.9 2067.8,2661.9 2075.8,2662.9 2079.8,2662.9 2083.8,2663.9 2086.8,2663.9 2089.8,2664.9 2091.8,2664.9 2093.8" style="fill:none;stroke:#000000;stroke-width:2"/>
<polyline points="2664.9 2073.8,2665.9 2075.8,2664.9 2077.8,2662.9 2078.8,2659.9 2079.8,2656.9 2079.8,2649.9 2077.8,2645.9 2073.8" style="fill:none;stroke:#000000;stroke-width:2"/>
<polyline points="2690.9 2036.8,2690.9 2032.8,2692.9 2029.8,2694.9 2028.8,2699.9 2026.8,2702.9 2027.8,2704.9 2028.8,2706.9 2030.8,2707.9 2033.8,2708.9 2037.8,2708.9 2042.8,2707.9 2047.8,2704.9 2056.8,2702.9 2061.8,2700.9 2064.8,2698.9 2070.8,2698.9 2073.8,2699.9 2076.8,2703.9 2077.8,2706.9 2077.8,2711.9 2076.8,2720.9 2073.8,2729.9 2068.8,2733.9 2066.8" style="fill:none;stroke:#000000;stroke-width:2"/>
<polyline points="2817.5 2058.2,2817.5 2054.2,2815.5 2051.2,2812.5 2050.2,2810.5 2051.2,2807.5 2052.2,2805.5 2053.2,2802.5 2055.2,2801.5 2057.2,2799.5 2062.2,2800.5 2067.2,2801.5 2071.2,2803.5 2073.2,2807.5 2073.2,2809.5 2070.2,2810.5 2068.2,2811.5 2065.2,2812.5 2063.2,2813.5 2060.2,2813.5 2057.2,2812.5 2107.2,2812.5 2112.2,2811.5 2120.2,2813.5 2115.2" style="fill:none;stroke:#000000;stroke-width:2"/>
<polyline points="2831.5 2052.2,2831.5 2055.2,2832.5 2067.2,2832.5 2070.2,2833.5 2072.2,2836.5 2075.2,2839.5 2076.2,2841.5 2074.2,2843.5 2073.2,2844.5 2070.2,2845.5 2065.2,2846.5 2062.2,2846.5 2059.2,2845.5 2049.2,2847.5 2055.2" style="fill:none;stroke:#000000;stroke-width:2"/>
<polyline points="2863.5 2052.2,2864.5 2055.2,2864.5 2059.2,2865.5 2066.2,2866.5 2068.2,2867.5 2065.2" style="fill:none;stroke:#000000;stroke-width:2"/>
<polyline points="2860.5 2010.2,2863.5 2008.2,2866.5 2009.2,2869.5 2014.2" style="fill:none;stroke:#000000;stroke-width:2"/>
<polyline points="2914.5 2061.2,2918.5 2060.2,2922.5 2057.2,2924.5 2054.2,2925.5 2050.2,2926.5 2043.2,2926.5 2040.2,2922.5 2040.2,2920.5 2043.2,2919.5 2045.2,2917.5 2047.2,2916.5 2051.2,2915.5 2054.2,2913.5 2057.2,2913.5 2061.2,2912.5 2064.2,2912.5 2069.2,2913.5 2072.2,2915.5 2073.2,2918.5 2075.2,2922.5 2075.2,2925.5 2074.2,2927.5 2073.2,2928.5 2070.2,2930.5 2068.2,2934.5 2060.2,2936.5 2055.2,2937.5 2053.2,2937.5 2049.2,2936.5 2046.2,2939.5 2048.2,2941.5 2049.2,2944.5 2051.2,2946.5 2053.2,2948.5 2054.2,2949.5 2056.2,2950.5 2062.2,2949.5 2066.2,2947.5 2068.2,2944.5 2070.2,2940.5 2070.2,2938.5 2068.2,2937.5 2066.2,2938.5 2062.2" style="fill:none;stroke:#000000;stroke-width:2"/>
<polyline points="2960.5 1990.2,2962.5 1994.2,2962.5 1997.2,2963.5 2008.2,2963.5 2014.2,2965.5 2030.2,2967.5 2038.2,2969.5 2045.2,2972.5 2052.2,2975.5 2057.2,2979.5 2061.2,2983.5 2063.2,2990.5 2061.2" style="fill:none;stroke:#000000;stroke-width:2"/>
<polyline points="2981.5 2039.2,2966.5 2040.2,2959.5 2041.2,2952.5 2041.2,2945.5 2040.2,2932.5 2040.2" style="fill:none;stroke:#000000;stroke-width:2"/>
<polyline points="3052.5 2062.2,3050.5 2059.2,3048.5 2057.2,3047.5 2055.2,3046.5 2051.2,3047.5 2049.2,3048.5 2046.2,3050.5 2044.2,3060.5 2035.2,3064.5 2035.2,3066.5 2037.2,3066.5 2041.2,3065.5 2048.2,3065.5 2051.2,3066.5 2053.2,3066.5 2056.2,3067.5 2058.2,3067.5 2061.2,3068.5 2064.2,3069.5 2070.2,3069.5 2078.2,3068.5 2083.2,3068.5 2088.2,3067.5 2093.2,3065.5 2097.2,3064.5 2102.2,3062.5 2106.2,3057.5 2117.2,3055.5 2120.2,3054.5 2123.2,3051.5 2125.2,3049.5 2123.2,3048.5 2121.2,3047.5 2118.2,3046.5 2114.2,3046.5 2110.2,3045.5 2107.2,3045.5 2103.2,3046.5 2099.2,3046.5 2096.2,3047.5 2092.2,3048.5 2089.2,3050.5 2087.2,3053.5 2085.2,3055.5 2084.2,3059.5 2084.2,3065.5 2085.2,3067.5 2087.2" style="fill:none;stroke:#000000;stroke-width:2"/>
<polyline points="3142.5 2049.2,3144.5 2047.2,3145.5 2045.2,3148.5 2041.2,3150.5 2037.2,3155.5 2030.2,3157.5 2025.2,3162.5 2017.2,3163.5 2014.2,3164.5 2012.2,3164.5 2016.2,3162.5 2027.2,3159.5 2039.2,3157.5 2044.2,3154.5 2053.2,3154.5 2056.2,3153.5 2058.2,3153.5 2062.2,3155.5 2059.2" style="fill:none;stroke:#000000;stroke-width:2"/>
<polyline points="3185.5 2029.2,3185.5 2033.2,3184.5 2038.2,3183.5 2040.2,3183.5 2043.2,3182.5 2045.2,3181.5 2049.2,3182.5 2052.2" style="fill:none;stroke:#000000;stroke-width:2"/>
<polyline points="3188.5 2046.2,3184.5 2045.2,3181.5 2044.2,3176.5 2043.2,3170.5 2046.2,3171.5 2050.2" style="fill:none;stroke:#000000;stroke-width:2"/>
<polyline points="3218.5 2029.2,3220.5 2027.2,3219.5 2023.2,3217.5 2024.2,3212.5 2027.2,3209.5 2031.2,3207.5 2034.2,3205.5 2038.2,3200.5 2050.2,3200.5 2053.2,3201.5 2057.2,3203.5 2058.2,3208.5 2060.2,3212.5 2060.2,3215.5 2059.2,3219.5 2056.2,3222.5 2053.2,3226.5 2048.2,3228.5 2043.2,3231.5 2033.2,3232.5 2030.2,3231.5 2028.2,3227.5 2026.2,3223.5 2025.2,3217.5 2025.2,3217.5 2029.2" style="fill:none;stroke:#000000;stroke-width:2"/>
<polyline points="3253.5 2041.2,3254.5 2043.2,3254.5 2046.2,3255.5 2052.2,3255.5 2055.2,3256.5 2059.2,3261.5 2058.2" style="fill:none;stroke:#000000;stroke-width:2"/>
<polyline points="3258.5 1999.2,3262.5 2003.2,3267.5 2009.2,3269.5 2011.2,3270.5 2015.2" style="fill:none;stroke:#000000;stroke-width:2"/>
<polyline points="731.6 1443.1,726.1 1444.0,724.3 1444.9,721.6 1444.9,719.8 1445.8,717.0 1446.7,715.2 1447.6,708.9 1451.3" style="fill:none;stroke:#000000;stroke-width:2"/>
<polyline points="743.4 1433.1,742.5 1431.3,741.6 1428.6,742.5 1426.7,744.3 1424.0,747.0 1422.2,749.8 1421.3,753.4 1423.1,755.2 1425.8,756.1 1429.5,756.1 1432.2,755.2 1434.0,755.2 1436.7,754.3 1439.5,752.5 1446.7,750.7 1452.2,749.8 1455.8,749.8 1458.6,750.7 1465.8,751.6 1468.6,753.4 1467.6,757.9 1464.9,759.8 1464.0,760.7 1462.2,762.5 1461.3,764.3 1458.6,765.2 1456.7" style="fill:none;stroke:#000000;stroke-width:2"/>
<polyline points="775.2 1457.6,773.4 1454.9,772.5 1451.3,771.6 1448.6,770.7 1446.7,771.6 1444.0,773.4 1439.5,775.2 1438.6,777.9 1436.7,780.7 1436.7,785.2 1437.6,786.1 1439.5,786.1 1442.2,785.2 1444.9,784.3 1448.6,784.3 1451.3,785.2 1463.1,785.2 1466.7,786.1 1470.4,787.0 1474.9,788.9 1477.6,789.8 1481.3,791.6 1484.9,792.5 1488.6,794.3 1491.3,795.2 1494.9,797.0 1501.3,797.0 1504.0,796.1 1505.8,795.2 1508.6,794.3 1510.4,791.6 1512.2,787.9 1511.3,786.1 1510.4,783.4 1507.6,780.7 1503.1,778.9 1499.5,777.9 1494.9,778.9 1493.1,779.8 1490.4,780.7 1488.6,782.5 1485.8,784.3 1484.0,788.9 1478.6,792.5 1474.0" style="fill:none;stroke:#000000;stroke-width:2"/>
<polyline points="792.5 1421.3,789.8 1422.2,785.2 1424.0,782.5 1424.9,779.8 1424.9,777.9 1425.8,774.3 1425.8,772.5 1426.7" style="fill:none;stroke:#000000;stroke-width:2"/>
<polyline points="838.9 1428.6,836.1 1429.5,834.3 1430.4,831.6 1430.4,818.9 1431.3,817.0 1432.2,814.3 1434.0,814.3 1437.6" style="fill:none;stroke:#000000;stroke-width:2"/>
<polyline points="831.6 1443.1,828.9 1444.0,824.3 1444.9,821.6 1445.8,818.9 1445.8,816.1 1447.6,814.3 1450.4,817.0 1456.7" style="fill:none;stroke:#000000;stroke-width:2"/>
<polyline points="875.9 1433.5,872.2 1434.4,869.5 1433.5,867.7 1434.4,865.0 1434.4,862.2 1435.3,860.4 1437.1,863.1 1438.0" style="fill:none;stroke:#000000;stroke-width:2"/>
<polyline points="890.4 1421.7,891.3 1419.9,893.1 1419.0,895.9 1417.1,898.6 1416.2,900.4 1418.0,901.3 1419.9,901.3 1422.6,900.4 1424.4,900.4 1428.0,899.5 1430.8,898.6 1435.3,897.7 1438.0,896.8 1439.9,896.8 1442.6,895.9 1444.4,895.0 1447.1,895.0 1450.8,896.8 1451.7,899.5 1451.7,901.3 1450.8,905.0 1449.9,906.8 1449.0,909.5 1447.1,910.4 1444.4" style="fill:none;stroke:#000000;stroke-width:2"/>
<polyline points="959.5 1220.8,953.1 1221.7,950.4 1222.6,945.9 1222.6,944.1 1221.7,943.1 1220.8" style="fill:none;stroke:#000000;stroke-width:2"/>
<polyline points="835.3 1554.0,832.6 1554.9,828.1 1555.8,826.2 1556.7,822.6 1556.7,820.8 1557.6,817.1 1558.5,815.3 1559.4,816.2 1561.3" style="fill:none;stroke:#000000;stroke-width:2"/>
<polyline points="835.3 1574.0,832.6 1575.8,829.0 1576.7,824.4 1576.7" style="fill:none;stroke:#000000;stroke-width:2"/>
<polyline points="761.7 1587.6,759.9 1586.7,759.0 1584.0,757.1 1579.4,756.2 1576.7,756.2 1573.1,759.0 1571.3,761.7 1570.4,763.5 1569.4,768.1 1569.4,771.7 1570.4,773.5 1574.0,773.5 1576.7,772.6 1580.4,772.6 1584.0,773.5 1589.4,774.4 1591.3,776.2 1594.0,777.1 1596.7,779.9 1602.2,780.8 1605.8,781.7 1608.5,783.5 1616.7,783.5 1619.4,782.6 1624.0,781.7 1625.8,778.1 1625.8,776.2 1623.1,774.4 1619.4,773.5 1614.9,773.5 1611.3,774.4 1609.4,775.3 1606.7,778.1 1603.1,779.0 1601.3,781.7 1599.4,783.5 1598.5" style="fill:none;stroke:#000000;stroke-width:2"/>
<polyline points="771.7 1555.8,767.1 1556.7,764.4 1556.7,757.1 1557.6,753.5 1557.6,751.7 1559.4,755.3 1564.0" style="fill:none;stroke:#000000;stroke-width:2"/>
<polyline points="878.1 1570.4,879.9 1569.4,881.7 1567.6,882.6 1565.8,887.1 1558.5,889.0 1555.8,892.6 1549.4,893.5 1546.7,895.3 1544.0,896.2 1541.3,897.1 1539.4,899.0 1536.7,899.9 1539.4,899.0 1543.1,898.1 1547.6,898.1 1550.4,897.1 1553.1,897.1 1555.8,896.2 1570.4,896.2 1573.1,895.3 1579.4,895.3 1577.6" style="fill:none;stroke:#000000;stroke-width:2"/>
<polyline points="909.9 1573.1,908.1 1574.9,905.3 1576.7,903.5 1577.6,900.8 1578.5,897.1 1579.4,893.5 1581.3,890.8 1582.2,888.1 1584.0,883.5 1586.7,881.7 1587.6,879.9 1589.4" style="fill:none;stroke:#000000;stroke-width:2"/>
<polyline points="778.4 1687.8,777.2 1685.0,775.6 1680.4,775.6 1678.2,776.1 1674.2,777.2 1672.5,780.1 1672.0,782.3 1673.1,783.5 1674.8,784.0 1677.6,784.6 1681.0,785.2 1683.3,786.3 1688.3,786.8 1690.6,787.4 1693.4,788.0 1698.5,788.5 1701.3,789.1 1703.6,790.2 1706.4,790.8 1709.2,792.5 1714.3,793.1 1719.4,793.6 1722.8,792.5 1725.0,790.8 1726.7,789.1 1727.9,786.3 1726.2,784.6 1723.9,783.5 1720.5,782.9 1718.3,782.3 1714.9,782.3 1712.6,782.9 1709.2,785.2 1704.7,786.8 1701.9,788.5 1700.2,790.8 1699.6,791.4 1699.1" style="fill:none;stroke:#000000;stroke-width:2"/>
<polyline points="808.9 1674.8,805.5 1676.5,802.6 1676.5,800.4 1677.1,798.1 1678.8" style="fill:none;stroke:#000000;stroke-width:2"/>
<polyline points="813.9 1687.2,812.2 1688.3,810.0 1688.9,807.7 1688.9,804.3 1688.3" style="fill:none;stroke:#000000;stroke-width:2"/>
<polyline points="832.6 1673.1,836.0 1672.0,838.2 1670.3,839.9 1667.5,841.0 1665.8,842.7 1663.5,844.4 1661.8,846.1 1664.1,846.7 1666.3,846.7 1669.2,846.1 1678.2,844.9 1678.1" style="fill:none;stroke:#000000;stroke-width:2"/>
<polyline points="854.1 1675.4,851.4 1674.5,850.5 1676.4,848.7 1678.2,845.1 1680.9,844.1 1682.7,842.3 1683.6,839.6 1686.4,835.1 1690.0,834.1 1690.9" style="fill:none;stroke:#000000;stroke-width:2"/>
<polyline points="3109.1 2029.7,3104.7 2031.2,3101.8 2031.2,3094.4 2032.6,3091.5 2034.1,3078.3 2041.4,3075.4 2042.9,3068.1 2045.8" style="fill:none;stroke:#000000;stroke-width:2"/>
<polyline points="3117.9 2061.9,3114.9 2063.4,3104.7 2067.8,3101.8 2067.8,3097.4 2069.3,3094.4 2069.3,3088.6 2069.3" style="fill:none;stroke:#000000;stroke-width:2"/>
</svg>