<svg version="1.1" xmlns="http://www.w3.org/2000/svg" viewBox="0 0 13549.6333694458 1086.2166748046875" width="13549.6333694458" height="1086.2166748046875">
  <!-- svg-source:excalidraw -->
  
  <defs>
    <style class="style-fonts">
      @font-face {
        font-family: "Virgil";
        src: url("https://excalidraw.com/Virgil.woff2");
      }
      @font-face {
        font-family: "Cascadia";
        src: url("https://excalidraw.com/Cascadia.woff2");
      }
      @font-face {
        font-family: "Assistant";
        src: url("https://excalidraw.com/Assistant-Regular.woff2");
      }
    </style>
    
  </defs>
  <rect x="0" y="0" width="13549.6333694458" height="1086.2166748046875" fill="#ffffff"></rect><g stroke-linecap="round" transform="translate(10 513.0750122070312) rotate(0 92.38333129882812 22)"><path d="M0 0 C45.52 -0.37, 92.61 1.09, 184.77 0 M0 0 C51.22 -0.17, 103.45 0.75, 184.77 0 M184.77 0 C185.76 14.77, 184.31 30.12, 184.77 44 M184.77 0 C184.56 16.37, 183.66 32.47, 184.77 44 M184.77 44 C142.51 42.65, 95.51 42.02, 0 44 M184.77 44 C128 43.02, 72.47 43.12, 0 44 M0 44 C1.32 28.07, 1.8 13.63, 0 0 M0 44 C-0.55 34.83, -0.01 25.06, 0 0" stroke="#1e1e1e" stroke-width="2" fill="none"></path></g><g stroke-linecap="round" transform="translate(805.5416412353516 386.6416778564453) rotate(0 99.67500305175781 22)"><path d="M11 0 C49.42 1.25, 88.56 1.82, 188.35 0 M11 0 C56 1.66, 102.77 0.98, 188.35 0 M188.35 0 C196.6 1.31, 198.73 3.52, 199.35 11 M188.35 0 C194.92 1.53, 198.04 2.79, 199.35 11 M199.35 11 C199.88 16.47, 201.27 22.4, 199.35 33 M199.35 11 C199.34 19.67, 199.33 28.1, 199.35 33 M199.35 33 C198.59 38.88, 196.63 42.76, 188.35 44 M199.35 33 C200.46 39.12, 197.27 45.25, 188.35 44 M188.35 44 C138.78 42.6, 94 42.41, 11 44 M188.35 44 C134.53 42.89, 79.91 42.69, 11 44 M11 44 C4.72 43.08, -0.35 39.6, 0 33 M11 44 C2.19 44.72, 1.58 41.03, 0 33 M0 33 C-1.69 24.98, -0.02 18.57, 0 11 M0 33 C0.62 28.63, -0.85 23.68, 0 11 M0 11 C-0.62 3.54, 1.96 1.05, 11 0 M0 11 C0.2 5.7, 1.57 2.24, 11 0" stroke="#1e1e1e" stroke-width="2" fill="none"></path></g><g stroke-linecap="round" transform="translate(1136.0833129882812 332.52500915527344) rotate(0 202.5500030517578 202.5500030517578)"><path d="M203 0 C244.2 42.51, 285.72 83.21, 405.1 203 M203 0 C243.63 40.93, 284.83 83.38, 405.1 203 M405.1 203 C351.64 255.99, 295.7 311.28, 203 405.1 M405.1 203 C337.58 269.8, 271.55 335.53, 203 405.1 M203 405.1 C137.99 339.28, 71.8 273.21, 0 203 M203 405.1 C156.46 357.78, 110.44 312.61, 0 203 M0 203 C52.12 146.89, 109.05 92.07, 203 0 M0 203 C63.36 141.17, 125.55 78.69, 203 0" stroke="#1e1e1e" stroke-width="2" fill="none"></path></g><g stroke-linecap="round" transform="translate(244.76666259765625 446.71669006347656) rotate(0 214.79165649414062 214.79165649414062)"><path d="M215 0 C274.23 58.92, 333.59 119.44, 429.58 215 M215 0 C279.64 65.25, 342.61 128.38, 429.58 215 M429.58 215 C372.79 271.45, 316.44 327.41, 215 429.58 M429.58 215 C358.49 286.54, 289.98 354.89, 215 429.58 M215 429.58 C151.61 365.93, 87.65 304.18, 0 215 M215 429.58 C163.53 378.03, 111.59 327.09, 0 215 M0 215 C69.55 147.67, 136.06 81.18, 215 0 M0 215 C53.94 160.51, 108.57 105.95, 215 0" stroke="#1e1e1e" stroke-width="2" fill="none"></path></g><g stroke-linecap="round" transform="translate(724.3499755859375 480.6416778564453) rotate(0 180.86666870117188 180.86666870117188)"><path d="M181 0 C234.63 56.07, 291.92 113.78, 361.73 181 M181 0 C222.66 40.29, 263.89 82.19, 361.73 181 M361.73 181 C317.69 223.57, 273.77 267.86, 181 361.73 M361.73 181 C289.4 252.98, 218.08 324.52, 181 361.73 M181 361.73 C127.09 309.08, 74.33 256.23, 0 181 M181 361.73 C134.98 318.45, 90.56 272.39, 0 181 M0 181 C38.77 142.2, 77.44 104.28, 181 0 M0 181 C48.86 132.26, 97.38 83.24, 181 0" stroke="#1e1e1e" stroke-width="2" fill="none"></path></g><g stroke-linecap="round" transform="translate(1591.1833190917969 334.29168701171875) rotate(0 200.7833251953125 200.7833251953125)"><path d="M201 0 C243.14 45.49, 285.78 89.2, 401.57 201 M201 0 C273.55 74.05, 346.65 146.69, 401.57 201 M401.57 201 C341.25 259.81, 281.25 320.29, 201 401.57 M401.57 201 C323.33 278.79, 244.75 357.21, 201 401.57 M201 401.57 C148.5 350.47, 95.98 298.24, 0 201 M201 401.57 C130.38 331.05, 58.47 261.15, 0 201 M0 201 C41.2 160.51, 83.46 118.25, 201 0 M0 201 C49.43 151.05, 99.45 101.2, 201 0" stroke="#1e1e1e" stroke-width="2" fill="none"></path></g><g stroke-linecap="round" transform="translate(2616.3499603271484 119.2500228881836) rotate(0 184.52499389648438 184.52499389648438)"><path d="M185 0 C227.35 43.79, 273.1 86.34, 369.05 185 M185 0 C237.96 52.9, 292.35 107.59, 369.05 185 M369.05 185 C331.5 221.89, 292.08 263.27, 185 369.05 M369.05 185 C323.54 230.32, 277.94 275.21, 185 369.05 M185 369.05 C120.82 306.95, 58.29 241.44, 0 185 M185 369.05 C114.15 298.55, 44.07 228.49, 0 185 M0 185 C48.82 136.2, 97.1 87.72, 185 0 M0 185 C46.71 138.82, 94.74 91.85, 185 0" stroke="#1e1e1e" stroke-width="2" fill="none"></path></g><g stroke-linecap="round" transform="translate(3078.949951171875 138.02501678466797) rotate(0 165.75 165.75)"><path d="M166 0 C223.99 56.9, 280.66 114.93, 331.5 166 M166 0 C225.87 61.56, 285.74 122.36, 331.5 166 M331.5 166 C294.85 204.52, 252.91 243.49, 166 331.5 M331.5 166 C280.57 215.7, 230.78 266.3, 166 331.5 M166 331.5 C109.86 274.34, 52.49 217.46, 0 166 M166 331.5 C131.51 297.63, 97.09 262.42, 0 166 M0 166 C59.7 106.13, 119.89 44.81, 166 0 M0 166 C45.17 122.12, 88.64 78.21, 166 0" stroke="#1e1e1e" stroke-width="2" fill="none"></path></g><g stroke-linecap="round" transform="translate(3460.4499588012695 379.96666717529297) rotate(0 155.10833740234375 155.10833740234375)"><path d="M156 0 C210.12 53.82, 264.76 107.38, 310.22 156 M156 0 C195.68 40.7, 236.26 82.14, 310.22 156 M310.22 156 C279.66 187.07, 249.84 217.9, 156 310.22 M310.22 156 C266.01 198.6, 221.9 242.79, 156 310.22 M156 310.22 C99.06 253.11, 38.57 194.56, 0 156 M156 310.22 C100.83 254.49, 45.64 199.22, 0 156 M0 156 C53.68 101.17, 107.66 46.55, 156 0 M0 156 C51.09 103.97, 103 51.54, 156 0" stroke="#1e1e1e" stroke-width="2" fill="none"></path></g><g stroke-linecap="round" transform="translate(2042.7499694824219 526.3500137329102) rotate(0 240.02499389648438 240.02499389648438)"><path d="M241 0 C306.07 64.59, 368.97 130.23, 480.05 241 M241 0 C316.96 78.64, 394.46 157.02, 480.05 241 M480.05 241 C401.66 318.4, 323.8 395.6, 241 480.05 M480.05 241 C426.75 294.04, 372.51 349.13, 241 480.05 M241 480.05 C173.63 414.78, 110.71 350.26, 0 241 M241 480.05 C168.03 405.73, 93.92 332.2, 0 241 M0 241 C85.29 155.38, 171.24 72.11, 241 0 M0 241 C79.44 160.74, 158.44 81.65, 241 0" stroke="#1e1e1e" stroke-width="2" fill="none"></path></g><g stroke-linecap="round" transform="translate(2572.7999572753906 538.3000106811523) rotate(0 228.0749969482422 228.0749969482422)"><path d="M229 0 C290.16 62.09, 351.67 121.95, 456.15 229 M229 0 C300.8 73.24, 375.15 146.31, 456.15 229 M456.15 229 C389.36 295.02, 321.87 362.89, 229 456.15 M456.15 229 C403.28 282.66, 348.47 336.94, 229 456.15 M229 456.15 C159.59 382.5, 87.2 312.17, 0 229 M229 456.15 C170.19 397.68, 112.11 340.04, 0 229 M0 229 C65.75 166.23, 130.48 101.12, 229 0 M0 229 C68.38 160.67, 138.42 90.37, 229 0" stroke="#1e1e1e" stroke-width="2" fill="none"></path></g><g stroke-linecap="round" transform="translate(3078.949951171875 600.6250076293945) rotate(0 165.75 165.75)"><path d="M166 0 C206.08 38.8, 246.24 79.53, 331.5 166 M166 0 C229.89 63.55, 294.71 129.32, 331.5 166 M331.5 166 C281.68 214.67, 233.45 263.09, 166 331.5 M331.5 166 C291.27 208.35, 250.7 247.87, 166 331.5 M166 331.5 C129.04 293.46, 91.9 259, 0 166 M166 331.5 C120.8 285.53, 75.18 240.73, 0 166 M0 166 C39.23 126.58, 77.95 87.91, 166 0 M0 166 C36.44 129.4, 72.16 94.9, 166 0" stroke="#1e1e1e" stroke-width="2" fill="none"></path></g><g stroke-linecap="round" transform="translate(3820.666618347168 401.5416946411133) rotate(0 133.5333251953125 133.5333251953125)"><path d="M134 0 C175.32 40.71, 217.22 80.73, 267.07 134 M134 0 C186.39 53.26, 238.51 105.56, 267.07 134 M267.07 134 C230 170.46, 195.32 205.74, 134 267.07 M267.07 134 C219.66 181.27, 171.59 229.89, 134 267.07 M134 267.07 C104.98 240.01, 77.33 211.85, 0 134 M134 267.07 C99.54 232.73, 65.49 200.07, 0 134 M0 134 C49.06 85.46, 96.67 34.17, 134 0 M0 134 C39.85 95.81, 80.45 55.25, 134 0" stroke="#1e1e1e" stroke-width="2" fill="none"></path></g><g stroke-linecap="round" transform="translate(4137.7332763671875 361.5166778564453) rotate(0 173.55833435058594 173.55833435058594)"><path d="M174 0 C212.92 36.47, 249.95 75.76, 347.12 174 M174 0 C216.51 42.69, 258.92 85.09, 347.12 174 M347.12 174 C285.25 235.94, 226.9 294.41, 174 347.12 M347.12 174 C281.12 238.71, 215.53 303.79, 174 347.12 M174 347.12 C128.47 303.27, 82.42 257.92, 0 174 M174 347.12 C129.54 302.9, 86.46 258.94, 0 174 M0 174 C57.95 113.18, 118.72 54.69, 174 0 M0 174 C36.56 136.97, 71.59 100.44, 174 0" stroke="#1e1e1e" stroke-width="2" fill="none"></path></g><g stroke-linecap="round" transform="translate(4534.849945068359 10) rotate(0 264.4583435058594 264.4583435058594)"><path d="M265 0 C330.61 65.15, 391.82 128.01, 528.92 265 M265 0 C345.19 80.65, 426.25 161.59, 528.92 265 M528.92 265 C436.86 357.61, 345.29 450.01, 265 528.92 M528.92 265 C471.61 321.43, 416.51 376.54, 265 528.92 M265 528.92 C168.86 434.68, 72.9 338.22, 0 265 M265 528.92 C196.69 460.13, 126.77 390.5, 0 265 M0 265 C99.38 167.74, 196.32 69.52, 265 0 M0 265 C95.8 167.22, 193.46 69.92, 265 0" stroke="#1e1e1e" stroke-width="2" fill="none"></path></g><g stroke-linecap="round" transform="translate(5113.766632080078 24.833343505859375) rotate(0 249.625 249.625)"><path d="M250 0 C300.65 49.53, 351.27 99.53, 499.25 250 M250 0 C320.99 72.28, 392.29 143.85, 499.25 250 M499.25 250 C409.15 341.66, 314.99 432.42, 250 499.25 M499.25 250 C407.97 339.38, 319.05 429.07, 250 499.25 M250 499.25 C163.96 413.9, 77.84 327.31, 0 250 M250 499.25 C166.38 417.23, 83.77 334.12, 0 250 M0 250 C67.44 181.11, 138.09 113.15, 250 0 M0 250 C81.41 169.9, 161.37 89.98, 250 0" stroke="#1e1e1e" stroke-width="2" fill="none"></path></g><g stroke-linecap="round" transform="translate(4693.833290100098 690.216682434082) rotate(0 105.4749984741211 105.4749984741211)"><path d="M106 0 C139.61 34.33, 173.29 68.13, 210.95 106 M106 0 C130.86 24.24, 154.94 49.42, 210.95 106 M210.95 106 C181.7 132.77, 156.42 160.85, 106 210.95 M210.95 106 C178.96 137.45, 146.57 169.46, 106 210.95 M106 210.95 C68.34 172.45, 32.3 138.07, 0 106 M106 210.95 C71.24 175.47, 35.26 141.63, 0 106 M0 106 C37.26 72.2, 71.28 34.33, 106 0 M0 106 C29.66 76.41, 60.79 46.58, 106 0" stroke="#1e1e1e" stroke-width="2" fill="none"></path></g><g stroke-linecap="round" transform="translate(5141.783294677734 574.0833435058594) rotate(0 221.60833740234375 221.60833740234375)"><path d="M222 0 C286.81 64.74, 350.91 131.11, 443.22 222 M222 0 C275.95 54.1, 327.94 107.16, 443.22 222 M443.22 222 C373.42 288.64, 303.45 358.63, 222 443.22 M443.22 222 C388.36 277.35, 332.25 333.54, 222 443.22 M222 443.22 C160.26 380.64, 97.49 317.72, 0 222 M222 443.22 C153.18 374.59, 86.04 306.64, 0 222 M0 222 C69.19 149.86, 138.63 80.63, 222 0 M0 222 C66.55 156.66, 130.97 91.58, 222 0" stroke="#1e1e1e" stroke-width="2" fill="none"></path></g><g stroke-linecap="round" transform="translate(5663.016632080078 654.3250122070312) rotate(0 141.36666870117188 141.36666870117188)"><path d="M142 0 C181.51 43.01, 222.89 84.56, 282.73 142 M142 0 C177.48 35.14, 212.73 68.58, 282.73 142 M282.73 142 C252.98 170.7, 221.18 203.43, 142 282.73 M282.73 142 C245.73 179.01, 206.85 217.28, 142 282.73 M142 282.73 C108.68 251.34, 74.66 218.71, 0 142 M142 282.73 C112 251.42, 81.2 222.63, 0 142 M0 142 C51.3 90.64, 103.3 37.82, 142 0 M0 142 C49.15 91.66, 99.4 41.56, 142 0" stroke="#1e1e1e" stroke-width="2" fill="none"></path></g><g stroke-linecap="round" transform="translate(5995.749969482422 531.7166748046875) rotate(0 263.9750061035156 263.9750061035156)"><path d="M264 0 C331.23 69, 400.5 138.42, 527.95 264 M264 0 C357.07 91.69, 449.97 186.1, 527.95 264 M527.95 264 C472.34 319.32, 417.4 374.26, 264 527.95 M527.95 264 C462.55 329.18, 396.12 395.74, 264 527.95 M264 527.95 C166.27 432.21, 67.91 333.77, 0 264 M264 527.95 C184.62 447.9, 105.93 368.64, 0 264 M0 264 C57.85 205.77, 116.26 149.24, 264 0 M0 264 C103.61 160.43, 207.13 57.7, 264 0" stroke="#1e1e1e" stroke-width="2" fill="none"></path></g><g stroke-linecap="round" transform="translate(6573.699989318848 654.466667175293) rotate(0 141.22500610351562 141.22500610351562)"><path d="M142 0 C188.84 50.02, 239.75 97.33, 282.45 142 M142 0 C194.51 55.59, 247.57 108.8, 282.45 142 M282.45 142 C244.33 180.67, 207.02 217.73, 142 282.45 M282.45 142 C245.91 177.45, 211.58 213.1, 142 282.45 M142 282.45 C91.78 234.99, 44.98 188.14, 0 142 M142 282.45 C112.87 254.37, 81.83 224.76, 0 142 M0 142 C39.22 105.06, 78.05 65.07, 142 0 M0 142 C58.07 85, 113.22 27.31, 142 0" stroke="#1e1e1e" stroke-width="2" fill="none"></path></g><g stroke-linecap="round" transform="translate(6906.150001525879 649.1083297729492) rotate(0 146.58334350585938 146.58334350585938)"><path d="M147 0 C198.15 49.73, 249.46 101.67, 293.17 147 M147 0 C175.83 30.17, 207 60.57, 293.17 147 M293.17 147 C238.96 201.47, 186.07 253.18, 147 293.17 M293.17 147 C254.47 186.15, 215.75 224.39, 147 293.17 M147 293.17 C93.69 239.28, 37.7 184.95, 0 147 M147 293.17 C91.43 239.61, 37.88 185.99, 0 147 M0 147 C32.44 113.71, 64.16 82.47, 147 0 M0 147 C56.54 87.34, 115.93 30.28, 147 0" stroke="#1e1e1e" stroke-width="2" fill="none"></path></g><g stroke-linecap="round" transform="translate(7249.316680908203 560.8666839599609) rotate(0 234.8249969482422 234.8249969482422)"><path d="M235 0 C323.53 87.39, 407.84 172.83, 469.65 235 M235 0 C317.62 84.02, 402.62 168.59, 469.65 235 M469.65 235 C387.29 316.55, 306.47 396.86, 235 469.65 M469.65 235 C393.32 313.22, 315.81 390.32, 235 469.65 M235 469.65 C169.28 405.94, 106.95 342.22, 0 235 M235 469.65 C160.61 393.99, 84.75 319.02, 0 235 M0 235 C72.46 162.91, 144.99 92.45, 235 0 M0 235 C88.37 149.62, 174.27 62.6, 235 0" stroke="#1e1e1e" stroke-width="2" fill="none"></path></g><g stroke-linecap="round" transform="translate(7768.9666748046875 576.2833557128906) rotate(0 219.4083251953125 219.4083251953125)"><path d="M220 0 C278.89 57.89, 339.96 117.01, 438.82 220 M220 0 C287.03 68.06, 354.08 135.45, 438.82 220 M438.82 220 C360.35 296.02, 284.11 375.14, 220 438.82 M438.82 220 C367.66 291.77, 294.67 364.67, 220 438.82 M220 438.82 C149.89 367.86, 76.71 293.63, 0 220 M220 438.82 C157.22 376.77, 95.24 314.71, 0 220 M0 220 C45.76 176.38, 91.32 128.46, 220 0 M0 220 C48.27 169.43, 99.06 119.45, 220 0" stroke="#1e1e1e" stroke-width="2" fill="none"></path></g><g stroke-linecap="round" transform="translate(8257.783325195312 531.7166748046875) rotate(0 263.9750061035156 263.9750061035156)"><path d="M264 0 C345.87 82.82, 427.83 166.09, 527.95 264 M264 0 C332.29 67.18, 399.34 134.22, 527.95 264 M527.95 264 C453.12 338.42, 378.49 412.71, 264 527.95 M527.95 264 C448.63 342.93, 368.67 422.68, 264 527.95 M264 527.95 C179.99 444.83, 96.35 362.28, 0 264 M264 527.95 C187.97 451.89, 109.89 374.5, 0 264 M0 264 C59.26 202.03, 117.47 143.85, 264 0 M0 264 C92.55 172.46, 182.97 80.64, 264 0" stroke="#1e1e1e" stroke-width="2" fill="none"></path></g><g stroke-linecap="round" transform="translate(8835.733337402344 563.4750061035156) rotate(0 232.2166748046875 232.2166748046875)"><path d="M233 0 C284.58 51.81, 334.39 104.06, 464.43 233 M233 0 C296.85 63.66, 359.14 126.92, 464.43 233 M464.43 233 C410.76 289.25, 355.81 344.23, 233 464.43 M464.43 233 C414.27 282.32, 364.2 333.38, 233 464.43 M233 464.43 C147.39 378.21, 62.44 292.97, 0 233 M233 464.43 C150.06 384.89, 68 303.25, 0 233 M0 233 C86.61 146.39, 176.95 55.74, 233 0 M0 233 C73.81 156.87, 149.73 81.5, 233 0" stroke="#1e1e1e" stroke-width="2" fill="none"></path></g><g stroke-linecap="round" transform="translate(9350.166687011719 518.8000183105469) rotate(0 276.89166259765625 276.89166259765625)"><path d="M277 0 C334.42 59.21, 392.46 116.89, 553.78 277 M277 0 C347.11 69.94, 416.2 139.75, 553.78 277 M553.78 277 C452.33 380.47, 349.3 481.36, 277 553.78 M553.78 277 C471.53 358.74, 389 441.29, 277 553.78 M277 553.78 C216.64 491.82, 156.81 432.43, 0 277 M277 553.78 C170.41 448.35, 63.67 340.66, 0 277 M0 277 C68.6 208.08, 135.24 142.44, 277 0 M0 277 C92.19 186.8, 183.31 96.37, 277 0" stroke="#1e1e1e" stroke-width="2" fill="none"></path></g><g stroke-linecap="round" transform="translate(9953.95002746582 519.9916534423828) rotate(0 275.70001220703125 275.70001220703125)"><path d="M276 0 C347.27 72.03, 419.38 144.63, 551.4 276 M276 0 C345.27 70.84, 415.96 140.91, 551.4 276 M551.4 276 C456.47 370.84, 363.43 465.5, 276 551.4 M551.4 276 C494.67 334.56, 436.46 391.7, 276 551.4 M276 551.4 C202.49 476.06, 128.69 400.83, 0 276 M276 551.4 C168 443.94, 57.55 333.71, 0 276 M0 276 C106.01 171.04, 212.54 62.82, 276 0 M0 276 C68.66 208.75, 136.29 140.89, 276 0" stroke="#1e1e1e" stroke-width="2" fill="none"></path></g><g stroke-linecap="round" transform="translate(10555.350051879883 528.1166534423828) rotate(0 267.57501220703125 267.57501220703125)"><path d="M268 0 C363.72 97, 460.53 193.24, 535.15 268 M268 0 C337.7 70.23, 407.86 140.62, 535.15 268 M535.15 268 C434.95 366.78, 335.02 465.44, 268 535.15 M535.15 268 C437.57 366.39, 339.73 464.58, 268 535.15 M268 535.15 C210.68 476.84, 153.25 419.7, 0 268 M268 535.15 C160.41 430.23, 55.33 325.34, 0 268 M0 268 C65.52 200.41, 130.12 135.87, 268 0 M0 268 C63.24 204.03, 127.41 139.16, 268 0" stroke="#1e1e1e" stroke-width="2" fill="none"></path></g><g stroke-linecap="round" transform="translate(11140.500061035156 624.683349609375) rotate(0 171.00833129882812 171.00833129882812)"><path d="M172 0 C229.18 58.3, 287.98 116.86, 342.02 172 M172 0 C229.62 56.56, 286.16 112.79, 342.02 172 M342.02 172 C293.82 219.33, 249.82 266.81, 172 342.02 M342.02 172 C285.99 226.34, 230.93 281.44, 172 342.02 M172 342.02 C119.26 287.01, 66.13 237.07, 0 172 M172 342.02 C109.97 278.52, 45.22 215.49, 0 172 M0 172 C59.61 112.33, 120.37 52.65, 172 0 M0 172 C49.16 121.81, 98.69 73.59, 172 0" stroke="#1e1e1e" stroke-width="2" fill="none"></path></g><g stroke-linecap="round" transform="translate(11532.516723632812 515.1666870117188) rotate(0 280.5249938964844 280.5249938964844)"><path d="M281 0 C378.66 98.7, 478.26 199.37, 561.05 281 M281 0 C374.61 92.31, 466.6 185.64, 561.05 281 M561.05 281 C468.04 374.3, 375.2 464.93, 281 561.05 M561.05 281 C480.31 360.95, 401.09 440.91, 281 561.05 M281 561.05 C221.87 502.34, 162.92 442.29, 0 281 M281 561.05 C215.43 498.26, 152.18 434.62, 0 281 M0 281 C57.51 224.52, 115.39 166.18, 281 0 M0 281 C95.11 187.9, 189.18 93.05, 281 0" stroke="#1e1e1e" stroke-width="2" fill="none"></path></g><g stroke-linecap="round" transform="translate(12143.566711425781 551.1750183105469) rotate(0 244.51666259765625 244.51666259765625)"><path d="M245 0 C313.81 71.19, 382.79 140.1, 489.03 245 M245 0 C320.2 75.88, 394.8 149.81, 489.03 245 M489.03 245 C413.5 321.87, 336.12 399.43, 245 489.03 M489.03 245 C416.12 318.03, 343.85 389.69, 245 489.03 M245 489.03 C188.75 434.15, 131.25 380.63, 0 245 M245 489.03 C161.48 405.16, 75.74 320.21, 0 245 M0 245 C71.9 172.56, 143.65 100.95, 245 0 M0 245 C62.94 180.66, 126.22 117.86, 245 0" stroke="#1e1e1e" stroke-width="2" fill="none"></path></g><g stroke-linecap="round" transform="translate(12682.600036621094 530.0333557128906) rotate(0 265.6583251953125 265.6583251953125)"><path d="M266 0 C329.46 62.14, 391.72 125.23, 531.32 266 M266 0 C323.05 56.88, 380.24 115.28, 531.32 266 M531.32 266 C434.61 361.17, 337.85 457.38, 266 531.32 M531.32 266 C437.33 361.6, 343.86 455.16, 266 531.32 M266 531.32 C162.71 430.39, 62.87 327.66, 0 266 M266 531.32 C178.55 445.66, 93.08 359.85, 0 266 M0 266 C97.02 169.26, 192.44 73.2, 266 0 M0 266 C104.82 162.46, 209.05 58.59, 266 0" stroke="#1e1e1e" stroke-width="2" fill="none"></path></g><g stroke-linecap="round" transform="translate(13263.916694641113 657.8333358764648) rotate(0 137.85833740234375 137.85833740234375)"><path d="M138 0 C189.25 51.68, 238.24 100.63, 275.72 138 M138 0 C179.77 43.23, 221.48 84.06, 275.72 138 M275.72 138 C245.28 165.96, 216.38 197.93, 138 275.72 M275.72 138 C220.22 193.8, 168.25 247.06, 138 275.72 M138 275.72 C106.59 242.53, 72.81 211.46, 0 138 M138 275.72 C94.03 229.29, 49.57 184.66, 0 138 M0 138 C36.57 100.2, 77.15 61.43, 138 0 M0 138 C41.75 96.89, 81.09 56.55, 138 0" stroke="#1e1e1e" stroke-width="2" fill="none"></path></g><g stroke-linecap="round"><g transform="translate(123.30899999999929 513.0749999999998) rotate(0 340.8665000000001 -52.216499999999996)"><path d="M0.84 -1.01 C16.78 -18.42, -17.39 -87.02, 96.15 -104.44 C209.69 -121.86, 584.46 -105.67, 682.09 -105.53 M-0.18 1.08 C15.54 -16.14, -18.57 -85.26, 95.04 -102.91 C208.66 -120.55, 583.64 -104.32, 681.51 -104.79" stroke="#1e1e1e" stroke-width="2" fill="none"></path></g><g transform="translate(123.30899999999929 513.0749999999998) rotate(0 340.8665000000001 -52.216499999999996)"><path d="M657.86 -96.68 C664.25 -100.12, 673.99 -101.79, 681.51 -104.79 M657.86 -96.68 C663.43 -98.31, 666.89 -100.37, 681.51 -104.79" stroke="#1e1e1e" stroke-width="2" fill="none"></path></g><g transform="translate(123.30899999999929 513.0749999999998) rotate(0 340.8665000000001 -52.216499999999996)"><path d="M658.18 -113.77 C664.46 -111.38, 674.1 -107.21, 681.51 -104.79 M658.18 -113.77 C663.7 -111.85, 667.09 -110.34, 681.51 -104.79" stroke="#1e1e1e" stroke-width="2" fill="none"></path></g></g><mask></mask><g stroke-linecap="round"><g transform="translate(1005.3919999999998 409.1419999999998) rotate(0 101.51850000000013 26.793999999999983)"><path d="M-0.31 -0.01 C33.45 8.91, 169.47 43.42, 203.39 52.49 M1.73 -1.06 C35.29 8.05, 169.16 44.52, 202.63 53.45" stroke="#1e1e1e" stroke-width="2" fill="none"></path></g><g transform="translate(1005.3919999999998 409.1419999999998) rotate(0 101.51850000000013 26.793999999999983)"><path d="M177.72 55.58 C186.94 55.45, 194.34 54.37, 202.63 53.45 M177.72 55.58 C186.04 54.59, 195.7 53.89, 202.63 53.45" stroke="#1e1e1e" stroke-width="2" fill="none"></path></g><g transform="translate(1005.3919999999998 409.1419999999998) rotate(0 101.51850000000013 26.793999999999983)"><path d="M182.18 39.07 C189.61 45.03, 195.36 50.06, 202.63 53.45 M182.18 39.07 C188.97 44.16, 196.99 49.52, 202.63 53.45" stroke="#1e1e1e" stroke-width="2" fill="none"></path></g></g><mask></mask><g stroke-linecap="round"><g transform="translate(123.30899999999929 557.5749999999998) rotate(0 60.72900000000027 51.966499999999996)"><path d="M0.36 -1.1 C16.51 16.36, 76.33 87.19, 96.64 104.74 C116.95 122.29, 118.27 104.35, 122.24 104.19 M-0.92 0.94 C15.13 18.06, 75.32 85.59, 95.79 103.04 C116.25 120.49, 117.81 105.35, 121.88 105.64" stroke="#1e1e1e" stroke-width="2" fill="none"></path></g><g transform="translate(123.30899999999929 557.5749999999998) rotate(0 60.72900000000027 51.966499999999996)"><path d="M114.94 116.03 C115.7 113.35, 119.59 111.12, 121.88 105.64 M114.94 116.03 C117.06 112.66, 118.95 109.69, 121.88 105.64" stroke="#1e1e1e" stroke-width="2" fill="none"></path></g><g transform="translate(123.30899999999929 557.5749999999998) rotate(0 60.72900000000027 51.966499999999996)"><path d="M109.88 109.13 C112.03 108.33, 117.31 107.99, 121.88 105.64 M109.88 109.13 C113.57 107.99, 117.09 107.24, 121.88 105.64" stroke="#1e1e1e" stroke-width="2" fill="none"></path></g></g><mask></mask><g stroke-linecap="round"><g transform="translate(675.3500000000004 662.5079999999998) rotate(0 24.5 -0.5)"><path d="M0.18 0.81 C4.25 0.87, 16.81 -0.41, 24.78 -0.75 C32.75 -1.08, 44.05 -1.13, 48.02 -1.18 M-1.18 0.19 C2.77 -0.04, 15.65 -2.71, 24.24 -2.73 C32.84 -2.76, 46.33 -0.41, 50.4 0.04" stroke="#1e1e1e" stroke-width="2" fill="none"></path></g><g transform="translate(675.3500000000004 662.5079999999998) rotate(0 24.5 -0.5)"><path d="M38.18 2.67 C43.08 2.6, 46.53 -0.1, 50.4 0.04 M38.18 2.67 C41.14 2.26, 45.21 1.73, 50.4 0.04" stroke="#1e1e1e" stroke-width="2" fill="none"></path></g><g transform="translate(675.3500000000004 662.5079999999998) rotate(0 24.5 -0.5)"><path d="M39.35 -5.8 C43.78 -3.08, 46.85 -2.99, 50.4 0.04 M39.35 -5.8 C41.95 -3.8, 45.68 -1.91, 50.4 0.04" stroke="#1e1e1e" stroke-width="2" fill="none"></path></g></g><mask></mask><g stroke-linecap="round"><g transform="translate(1087.0830000000005 661.5079999999998) rotate(0 60.672999999999774 -26.54400000000004)"><path d="M0.78 0.25 C4.59 0.09, 2.99 8.72, 23.02 -0.18 C43.05 -9.09, 104.76 -44.45, 120.97 -53.17 M-0.27 -0.66 C3.89 -0.7, 5.17 9.8, 25.22 1.26 C45.27 -7.28, 104.21 -42.57, 120.01 -51.89" stroke="#1e1e1e" stroke-width="2" fill="none"></path></g><g transform="translate(1087.0830000000005 661.5079999999998) rotate(0 60.672999999999774 -26.54400000000004)"><path d="M104.14 -32.58 C109.43 -40.4, 113.71 -45.47, 120.01 -51.89 M104.14 -32.58 C109.05 -37.44, 112.71 -43.02, 120.01 -51.89" stroke="#1e1e1e" stroke-width="2" fill="none"></path></g><g transform="translate(1087.0830000000005 661.5079999999998) rotate(0 60.672999999999774 -26.54400000000004)"><path d="M95.44 -47.3 C103.57 -50.54, 110.59 -50.97, 120.01 -51.89 M95.44 -47.3 C102.77 -47.89, 108.99 -49.15, 120.01 -51.89" stroke="#1e1e1e" stroke-width="2" fill="none"></path></g></g><mask></mask><g stroke-linecap="round"><g transform="translate(1542.183000000001 536.0749999999998) rotate(0 24.5 -0.5)"><path d="M-0.98 -0.18 C2.83 -0.4, 15.47 -1.05, 23.63 -1.08 C31.79 -1.11, 43.73 -0.56, 47.98 -0.37 M0.71 -1.32 C4.26 -1.37, 14.21 0.59, 22.48 0.42 C30.75 0.24, 45.85 -1.99, 50.33 -2.38" stroke="#1e1e1e" stroke-width="2" fill="none"></path></g><g transform="translate(1542.183000000001 536.0749999999998) rotate(0 24.5 -0.5)"><path d="M39.16 3.22 C43.03 0.88, 47.22 -1.84, 50.33 -2.38 M39.16 3.22 C42.52 1.75, 46.58 -0.23, 50.33 -2.38" stroke="#1e1e1e" stroke-width="2" fill="none"></path></g><g transform="translate(1542.183000000001 536.0749999999998) rotate(0 24.5 -0.5)"><path d="M38.17 -5.28 C42.43 -4.51, 46.98 -4.13, 50.33 -2.38 M38.17 -5.28 C41.89 -3.75, 46.3 -2.74, 50.33 -2.38" stroke="#1e1e1e" stroke-width="2" fill="none"></path></g></g><mask></mask><g stroke-linecap="round"><g transform="translate(1892.1470000000008 434.47199999999975) rotate(0 362.10149999999976 -65.3485)"><path d="M-0.37 -0.08 C20.55 -21.73, 3.8 -108.47, 124.58 -130.06 C245.36 -151.66, 624.55 -129.72, 724.31 -129.63 M1.63 -1.17 C23.01 -23.15, 6.43 -110.15, 126.75 -131.86 C247.08 -153.56, 624.26 -131.48, 723.6 -131.42" stroke="#1e1e1e" stroke-width="2" fill="none"></path></g><g transform="translate(1892.1470000000008 434.47199999999975) rotate(0 362.10149999999976 -65.3485)"><path d="M699.87 -123.53 C704.94 -126.89, 711.31 -126.73, 723.6 -131.42 M699.87 -123.53 C708.43 -125.87, 719.19 -129.2, 723.6 -131.42" stroke="#1e1e1e" stroke-width="2" fill="none"></path></g><g transform="translate(1892.1470000000008 434.47199999999975) rotate(0 362.10149999999976 -65.3485)"><path d="M700.36 -140.63 C705.29 -140.25, 711.55 -136.36, 723.6 -131.42 M700.36 -140.63 C708.57 -136.32, 719.14 -133, 723.6 -131.42" stroke="#1e1e1e" stroke-width="2" fill="none"></path></g></g><mask></mask><g stroke-linecap="round"><g transform="translate(2986.3999999999996 304.7750000000001) rotate(0 46.274999999999636 -0.5)"><path d="M-1.02 0.63 C10.31 0.66, 52.24 0.14, 67.65 0.06 C83.07 -0.01, 87.45 0.15, 91.46 0.17 M0.64 -0.08 C11.86 -0.36, 51.24 -1.25, 66.76 -1.5 C82.28 -1.75, 89.66 -1.51, 93.77 -1.56" stroke="#1e1e1e" stroke-width="2" fill="none"></path></g><g transform="translate(2986.3999999999996 304.7750000000001) rotate(0 46.274999999999636 -0.5)"><path d="M82.02 2.69 C85.84 1.75, 89.45 -0.64, 93.77 -1.56 M82.02 2.69 C87.22 1.32, 91.02 -1.26, 93.77 -1.56" stroke="#1e1e1e" stroke-width="2" fill="none"></path></g><g transform="translate(2986.3999999999996 304.7750000000001) rotate(0 46.274999999999636 -0.5)"><path d="M82.04 -5.86 C85.85 -4.5, 89.45 -4.59, 93.77 -1.56 M82.04 -5.86 C87.17 -3.83, 90.97 -3.01, 93.77 -1.56" stroke="#1e1e1e" stroke-width="2" fill="none"></path></g></g><mask></mask><g stroke-linecap="round"><g transform="translate(3411.4500000000007 304.7750000000001) rotate(0 68.10199999999986 71.048)"><path d="M0.1 1.06 C4.09 0.99, 0.37 -23.7, 22.91 0.17 C45.44 24.03, 116.28 120.28, 135.33 144.24 M-1.3 0.58 C3.13 0.14, 1.86 -25, 25.04 -1.34 C48.22 22.31, 118.95 118.64, 137.76 142.5" stroke="#1e1e1e" stroke-width="2" fill="none"></path></g><g transform="translate(3411.4500000000007 304.7750000000001) rotate(0 68.10199999999986 71.048)"><path d="M116.73 128.99 C123.09 130.04, 127.78 133.31, 137.76 142.5 M116.73 128.99 C124.57 133.45, 134.33 139.98, 137.76 142.5" stroke="#1e1e1e" stroke-width="2" fill="none"></path></g><g transform="translate(3411.4500000000007 304.7750000000001) rotate(0 68.10199999999986 71.048)"><path d="M130.34 118.63 C133.83 121.92, 135.6 127.41, 137.76 142.5 M130.34 118.63 C132.88 127.28, 137.26 137.91, 137.76 142.5" stroke="#1e1e1e" stroke-width="2" fill="none"></path></g></g><mask></mask><g stroke-linecap="round"><g transform="translate(1892.1470000000008 637.6779999999999) rotate(0 75.30149999999958 64.3485)"><path d="M-1.09 1.17 C19.68 22.63, 99.28 108.45, 124.73 129.84 C150.17 151.23, 147.38 129.87, 151.57 129.53 M0.53 0.73 C21.67 22.41, 101.85 107.17, 126.98 128.32 C152.11 149.47, 147.52 127.6, 151.32 127.63" stroke="#1e1e1e" stroke-width="2" fill="none"></path></g><g transform="translate(1892.1470000000008 637.6779999999999) rotate(0 75.30149999999958 64.3485)"><path d="M149.61 140.01 C151.24 135.29, 151.75 133.39, 151.32 127.63 M149.61 140.01 C150.85 135.73, 150.6 131.02, 151.32 127.63" stroke="#1e1e1e" stroke-width="2" fill="none"></path></g><g transform="translate(1892.1470000000008 637.6779999999999) rotate(0 75.30149999999958 64.3485)"><path d="M142.05 136.02 C146.05 132.6, 148.89 131.93, 151.32 127.63 M142.05 136.02 C146.06 133.27, 148.6 130.03, 151.32 127.63" stroke="#1e1e1e" stroke-width="2" fill="none"></path></g></g><mask></mask><g stroke-linecap="round"><g transform="translate(2523.7999999999993 767.375) rotate(0 24.5 -0.5)"><path d="M-0.88 1.14 C3.47 0.92, 16.77 0.34, 24.97 -0.16 C33.16 -0.67, 44.12 -1.82, 48.3 -1.87 M0.87 0.7 C5.23 0.65, 16.2 -1.56, 24.53 -1.85 C32.86 -2.13, 46.44 -0.87, 50.82 -1.01" stroke="#1e1e1e" stroke-width="2" fill="none"></path></g><g transform="translate(2523.7999999999993 767.375) rotate(0 24.5 -0.5)"><path d="M38.96 2.93 C42.59 3.2, 44.75 0.64, 50.82 -1.01 M38.96 2.93 C41.28 2.12, 44.66 1.25, 50.82 -1.01" stroke="#1e1e1e" stroke-width="2" fill="none"></path></g><g transform="translate(2523.7999999999993 767.375) rotate(0 24.5 -0.5)"><path d="M39.2 -5.62 C42.87 -3.56, 44.97 -4.34, 50.82 -1.01 M39.2 -5.62 C41.54 -4.48, 44.86 -3.41, 50.82 -1.01" stroke="#1e1e1e" stroke-width="2" fill="none"></path></g></g><mask></mask><g stroke-linecap="round"><g transform="translate(3029.9500000000007 767.375) rotate(0 24.5 -0.5)"><path d="M0.97 0.84 C5 0.33, 15.12 -1.66, 23.3 -1.87 C31.48 -2.09, 45.86 -0.64, 50.03 -0.45 M0.02 0.23 C4.51 0.36, 17.34 -0.34, 25.64 -0.79 C33.94 -1.25, 46.04 -2.72, 49.8 -2.5" stroke="#1e1e1e" stroke-width="2" fill="none"></path></g><g transform="translate(3029.9500000000007 767.375) rotate(0 24.5 -0.5)"><path d="M38.21 2.18 C41.67 0.29, 42.53 1.03, 49.8 -2.5 M38.21 2.18 C42.59 0.71, 45.66 -1.42, 49.8 -2.5" stroke="#1e1e1e" stroke-width="2" fill="none"></path></g><g transform="translate(3029.9500000000007 767.375) rotate(0 24.5 -0.5)"><path d="M37.92 -6.36 C41.52 -6.31, 42.44 -3.63, 49.8 -2.5 M37.92 -6.36 C42.34 -4.88, 45.52 -4.05, 49.8 -2.5" stroke="#1e1e1e" stroke-width="2" fill="none"></path></g></g><mask></mask><g stroke-linecap="round"><g transform="translate(3411.4500000000007 766.375) rotate(0 68.10199999999986 -71.548)"><path d="M-0.7 -0.87 C3.31 -0.92, 2.32 24.21, 25.03 0.55 C47.74 -23.11, 116.9 -118.93, 135.54 -142.82 M1.13 1.28 C4.99 0.81, 2.41 22.49, 24.62 -1.28 C46.84 -25.05, 115.62 -117.98, 134.43 -141.35" stroke="#1e1e1e" stroke-width="2" fill="none"></path></g><g transform="translate(3411.4500000000007 766.375) rotate(0 68.10199999999986 -71.548)"><path d="M126.85 -117.53 C128.12 -124.84, 133.37 -136.73, 134.43 -141.35 M126.85 -117.53 C128.21 -125.78, 131.52 -133.55, 134.43 -141.35" stroke="#1e1e1e" stroke-width="2" fill="none"></path></g><g transform="translate(3411.4500000000007 766.375) rotate(0 68.10199999999986 -71.548)"><path d="M113.31 -127.97 C119.8 -131.23, 130.22 -139.14, 134.43 -141.35 M113.31 -127.97 C119.1 -132.89, 126.79 -137.28, 134.43 -141.35" stroke="#1e1e1e" stroke-width="2" fill="none"></path></g></g><mask></mask><g stroke-linecap="round"><g transform="translate(3771.6669999999995 536.0749999999998) rotate(0 24.5 -0.5)"><path d="M1.03 0.55 C5.04 0.58, 15.23 -0.52, 23.34 -0.72 C31.44 -0.92, 45.56 -0.52, 49.65 -0.67 M0.11 -0.2 C4.57 -0.48, 17.51 -2.87, 25.7 -2.7 C33.88 -2.53, 45.59 0.52, 49.22 0.82" stroke="#1e1e1e" stroke-width="2" fill="none"></path></g><g transform="translate(3771.6669999999995 536.0749999999998) rotate(0 24.5 -0.5)"><path d="M36.93 3.09 C40.49 1.75, 43.17 2.56, 49.22 0.82 M36.93 3.09 C40.92 2.04, 45.39 1.59, 49.22 0.82" stroke="#1e1e1e" stroke-width="2" fill="none"></path></g><g transform="translate(3771.6669999999995 536.0749999999998) rotate(0 24.5 -0.5)"><path d="M38.34 -5.34 C41.5 -4.64, 43.84 -1.78, 49.22 0.82 M38.34 -5.34 C41.79 -3.64, 45.8 -1.33, 49.22 0.82" stroke="#1e1e1e" stroke-width="2" fill="none"></path></g></g><mask></mask><g stroke-linecap="round"><g transform="translate(4088.733 536.0749999999998) rotate(0 24.5 -0.5)"><path d="M-0.66 0.28 C3.27 0.08, 16.56 -0.35, 24.65 -0.67 C32.73 -0.99, 43.81 -1.46, 47.85 -1.64 M1.19 -0.62 C4.93 -1.25, 15.88 -2.61, 24.04 -2.62 C32.2 -2.63, 45.97 -0.93, 50.14 -0.65" stroke="#1e1e1e" stroke-width="2" fill="none"></path></g><g transform="translate(4088.733 536.0749999999998) rotate(0 24.5 -0.5)"><path d="M38.05 2.53 C42.99 2.04, 47.71 -1.06, 50.14 -0.65 M38.05 2.53 C41.43 1.73, 43.86 1.25, 50.14 -0.65" stroke="#1e1e1e" stroke-width="2" fill="none"></path></g><g transform="translate(4088.733 536.0749999999998) rotate(0 24.5 -0.5)"><path d="M38.83 -5.99 C43.51 -3.19, 47.92 -3.01, 50.14 -0.65 M38.83 -5.99 C42.01 -4.69, 44.25 -3.06, 50.14 -0.65" stroke="#1e1e1e" stroke-width="2" fill="none"></path></g></g><mask></mask><g stroke-linecap="round"><g transform="translate(4387.342000000001 437.567) rotate(0 73.75400000000081 -81.55449999999996)"><path d="M0.65 0.33 C20.98 -27.01, 96.9 -136.39, 121.36 -163.75 C145.81 -191.11, 142.91 -163.91, 147.39 -163.83 M-0.47 -0.54 C20.27 -27.76, 98.96 -135.49, 123.46 -162.54 C147.97 -189.6, 142.33 -162.93, 146.56 -162.88" stroke="#1e1e1e" stroke-width="2" fill="none"></path></g><g transform="translate(4387.342000000001 437.567) rotate(0 73.75400000000081 -81.55449999999996)"><path d="M137.92 -171.91 C140.4 -170.95, 141.51 -167.66, 146.56 -162.88 M137.92 -171.91 C139.9 -169.51, 141.74 -167.83, 146.56 -162.88" stroke="#1e1e1e" stroke-width="2" fill="none"></path></g><g transform="translate(4387.342000000001 437.567) rotate(0 73.75400000000081 -81.55449999999996)"><path d="M145.75 -175.36 C146.32 -173.51, 145.51 -169.38, 146.56 -162.88 M145.75 -175.36 C145.86 -172.14, 145.82 -169.63, 146.56 -162.88" stroke="#1e1e1e" stroke-width="2" fill="none"></path></g></g><mask></mask><g stroke-linecap="round"><g transform="translate(5064.767 275.4580000000001) rotate(0 24.5 -0.5)"><path d="M-1.15 -0.64 C2.72 -0.98, 15.4 -1.63, 23.88 -1.72 C32.37 -1.8, 45.61 -1.35, 49.75 -1.16 M0.45 1.64 C4.09 1.41, 14.72 -0.29, 22.87 -0.56 C31.03 -0.82, 45.06 -0.14, 49.37 0.07" stroke="#1e1e1e" stroke-width="2" fill="none"></path></g><g transform="translate(5064.767 275.4580000000001) rotate(0 24.5 -0.5)"><path d="M37.44 3.8 C40.99 2.48, 45.13 2.06, 49.37 0.07 M37.44 3.8 C40.48 2.42, 44.06 2.18, 49.37 0.07" stroke="#1e1e1e" stroke-width="2" fill="none"></path></g><g transform="translate(5064.767 275.4580000000001) rotate(0 24.5 -0.5)"><path d="M37.84 -4.74 C41.27 -3.05, 45.27 -0.44, 49.37 0.07 M37.84 -4.74 C40.74 -3.67, 44.21 -1.46, 49.37 0.07" stroke="#1e1e1e" stroke-width="2" fill="none"></path></g></g><mask></mask><g stroke-linecap="round"><g transform="translate(4387.342000000001 634.5830000000001) rotate(0 153.2455 80.55450000000002)"><path d="M-0.12 -0.72 C20.62 26.21, 72.2 133.91, 123.26 160.95 C174.31 187.99, 275.78 161.6, 306.19 161.54 M-1.64 1.52 C19.11 28.7, 71.55 136.09, 122.7 162.4 C173.85 188.72, 274.78 159.58, 305.26 159.42" stroke="#1e1e1e" stroke-width="2" fill="none"></path></g><g transform="translate(4387.342000000001 634.5830000000001) rotate(0 153.2455 80.55450000000002)"><path d="M283.09 170.96 C286.48 169.88, 291.94 165.77, 305.26 159.42 M283.09 170.96 C290.23 168.08, 297.25 163.26, 305.26 159.42" stroke="#1e1e1e" stroke-width="2" fill="none"></path></g><g transform="translate(4387.342000000001 634.5830000000001) rotate(0 153.2455 80.55450000000002)"><path d="M280.86 154.01 C284.61 156.38, 290.52 155.74, 305.26 159.42 M280.86 154.01 C288.64 156.83, 296.41 157.7, 305.26 159.42" stroke="#1e1e1e" stroke-width="2" fill="none"></path></g></g><mask></mask><g stroke-linecap="round"><g transform="translate(4905.782999999999 796.692) rotate(0 118 -0.5)"><path d="M0.75 -0.16 C31.21 -0.14, 143.6 -0.35, 182.68 -0.57 C221.76 -0.8, 226.43 -1.63, 235.24 -1.52 M-0.32 -1.29 C29.97 -1.57, 141.9 -2.61, 181.58 -2.47 C221.25 -2.34, 228.74 -0.57, 237.74 -0.48" stroke="#1e1e1e" stroke-width="2" fill="none"></path></g><g transform="translate(4905.782999999999 796.692) rotate(0 118 -0.5)"><path d="M213.84 6.85 C220.55 4.07, 228.47 1.19, 237.74 -0.48 M213.84 6.85 C219.21 4.7, 225.97 2.91, 237.74 -0.48" stroke="#1e1e1e" stroke-width="2" fill="none"></path></g><g transform="translate(4905.782999999999 796.692) rotate(0 118 -0.5)"><path d="M214.72 -10.23 C221.08 -8.05, 228.74 -5.97, 237.74 -0.48 M214.72 -10.23 C219.8 -7.98, 226.34 -5.4, 237.74 -0.48" stroke="#1e1e1e" stroke-width="2" fill="none"></path></g></g><mask></mask><g stroke-linecap="round"><g transform="translate(5586 796.692) rotate(0 38.50849999999991 -0.5)"><path d="M-0.3 0.43 C8.12 0.2, 38.45 -1.46, 51.26 -1.52 C64.07 -1.58, 72.44 0, 76.57 0.08 M1.74 -0.39 C10.48 -0.45, 41.27 -0.04, 53.58 -0.26 C65.88 -0.48, 71.86 -1.75, 75.57 -1.7" stroke="#1e1e1e" stroke-width="2" fill="none"></path></g><g transform="translate(5586 796.692) rotate(0 38.50849999999991 -0.5)"><path d="M64.11 3.29 C68.71 0.72, 71.88 -0.76, 75.57 -1.7 M64.11 3.29 C68.52 1.37, 73.59 -0.81, 75.57 -1.7" stroke="#1e1e1e" stroke-width="2" fill="none"></path></g><g transform="translate(5586 796.692) rotate(0 38.50849999999991 -0.5)"><path d="M63.58 -5.24 C68.37 -4.72, 71.72 -3.11, 75.57 -1.7 M63.58 -5.24 C68.13 -3.84, 73.4 -2.69, 75.57 -1.7" stroke="#1e1e1e" stroke-width="2" fill="none"></path></g></g><mask></mask><g stroke-linecap="round"><g transform="translate(5946.75 796.692) rotate(0 24.5 -0.5)"><path d="M-0.76 -0.52 C3.22 -0.58, 15.42 0.17, 23.55 0.08 C31.69 -0.01, 43.84 -0.89, 48.05 -1.06 M1.05 1.82 C4.85 1.41, 14.14 -1.22, 22.37 -1.48 C30.6 -1.75, 46.01 -0.05, 50.44 0.23" stroke="#1e1e1e" stroke-width="2" fill="none"></path></g><g transform="translate(5946.75 796.692) rotate(0 24.5 -0.5)"><path d="M38.38 3.51 C41.14 2.22, 46.12 0.79, 50.44 0.23 M38.38 3.51 C42.45 2.32, 45.15 1.59, 50.44 0.23" stroke="#1e1e1e" stroke-width="2" fill="none"></path></g><g transform="translate(5946.75 796.692) rotate(0 24.5 -0.5)"><path d="M39.09 -5.01 C41.69 -3.97, 46.47 -3.05, 50.44 0.23 M39.09 -5.01 C42.94 -3.68, 45.43 -1.9, 50.44 0.23" stroke="#1e1e1e" stroke-width="2" fill="none"></path></g></g><mask></mask><g stroke-linecap="round"><g transform="translate(6524.700000000001 796.692) rotate(0 24.5 -0.5)"><path d="M-0.45 1.08 C3.52 0.99, 14.84 -0.72, 23.05 -1.06 C31.26 -1.4, 44.32 -0.9, 48.81 -0.96 M1.52 0.59 C5.92 0.75, 17.52 0.48, 25.26 0.45 C33 0.41, 43.7 0.54, 47.94 0.38" stroke="#1e1e1e" stroke-width="2" fill="none"></path></g><g transform="translate(6524.700000000001 796.692) rotate(0 24.5 -0.5)"><path d="M36.26 4.83 C40.17 2.83, 41.76 2.57, 47.94 0.38 M36.26 4.83 C39.42 3.54, 43.07 2.53, 47.94 0.38" stroke="#1e1e1e" stroke-width="2" fill="none"></path></g><g transform="translate(6524.700000000001 796.692) rotate(0 24.5 -0.5)"><path d="M36.13 -3.72 C40.04 -3.7, 41.65 -1.93, 47.94 0.38 M36.13 -3.72 C39.4 -2.41, 43.09 -0.83, 47.94 0.38" stroke="#1e1e1e" stroke-width="2" fill="none"></path></g></g><mask></mask><g stroke-linecap="round"><g transform="translate(6857.15 796.692) rotate(0 24.5 -0.5)"><path d="M-0.95 -0.06 C3.09 -0.4, 15.32 -0.73, 23.81 -0.96 C32.3 -1.18, 45.88 -1.41, 49.97 -1.41 M0.75 -1.14 C4.66 -0.75, 14.6 0.46, 22.76 0.6 C30.92 0.74, 45.47 -0.24, 49.72 -0.31" stroke="#1e1e1e" stroke-width="2" fill="none"></path></g><g transform="translate(6857.15 796.692) rotate(0 24.5 -0.5)"><path d="M38.16 4.45 C41.09 3.09, 44.23 3.05, 49.72 -0.31 M38.16 4.45 C41.01 3.54, 44.47 2.17, 49.72 -0.31" stroke="#1e1e1e" stroke-width="2" fill="none"></path></g><g transform="translate(6857.15 796.692) rotate(0 24.5 -0.5)"><path d="M37.8 -4.09 C40.9 -3.2, 44.14 -1, 49.72 -0.31 M37.8 -4.09 C40.7 -2.73, 44.25 -1.83, 49.72 -0.31" stroke="#1e1e1e" stroke-width="2" fill="none"></path></g></g><mask></mask><g stroke-linecap="round"><g transform="translate(7200.316999999999 796.692) rotate(0 24.5 -0.5)"><path d="M-0.19 0.04 C4.13 -0.18, 16.88 -1.24, 24.97 -1.41 C33.06 -1.58, 44.4 -1.14, 48.33 -0.96 M-1.75 -0.98 C2.58 -1.03, 16.37 -0.31, 24.53 -0.09 C32.69 0.14, 43.21 0.78, 47.21 0.38" stroke="#1e1e1e" stroke-width="2" fill="none"></path></g><g transform="translate(7200.316999999999 796.692) rotate(0 24.5 -0.5)"><path d="M35.56 4.93 C38.18 4.95, 40.28 2.24, 47.21 0.38 M35.56 4.93 C39.25 3.73, 42.5 2, 47.21 0.38" stroke="#1e1e1e" stroke-width="2" fill="none"></path></g><g transform="translate(7200.316999999999 796.692) rotate(0 24.5 -0.5)"><path d="M35.37 -3.62 C38.02 -1.71, 40.16 -2.54, 47.21 0.38 M35.37 -3.62 C39.08 -2.22, 42.39 -1.36, 47.21 0.38" stroke="#1e1e1e" stroke-width="2" fill="none"></path></g></g><mask></mask><g stroke-linecap="round"><g transform="translate(7719.967000000001 796.692) rotate(0 24.5 -0.5)"><path d="M0.97 -0.41 C4.89 -0.58, 15.4 -0.98, 23.33 -0.96 C31.25 -0.94, 44.2 -0.38, 48.52 -0.31 M0.02 -1.67 C4.35 -1.63, 17.77 0.7, 25.69 0.6 C33.6 0.5, 43.51 -1.72, 47.51 -2.29" stroke="#1e1e1e" stroke-width="2" fill="none"></path></g><g transform="translate(7719.967000000001 796.692) rotate(0 24.5 -0.5)"><path d="M36.66 3.91 C39.31 1.36, 42.86 -0.19, 47.51 -2.29 M36.66 3.91 C40.38 1.55, 44.87 -0.62, 47.51 -2.29" stroke="#1e1e1e" stroke-width="2" fill="none"></path></g><g transform="translate(7719.967000000001 796.692) rotate(0 24.5 -0.5)"><path d="M35.21 -4.51 C38.28 -4.68, 42.24 -3.84, 47.51 -2.29 M35.21 -4.51 C39.47 -3.87, 44.48 -3.03, 47.51 -2.29" stroke="#1e1e1e" stroke-width="2" fill="none"></path></g></g><mask></mask><g stroke-linecap="round"><g transform="translate(8208.783 796.692) rotate(0 24.5 -0.5)"><path d="M-0.67 0.04 C3.09 0.06, 15.2 -0.22, 23.52 -0.31 C31.85 -0.4, 45.07 -0.37, 49.27 -0.52 M1.17 -0.98 C4.65 -1.28, 14.42 -1.8, 22.33 -2.07 C30.24 -2.34, 44.23 -2.92, 48.64 -2.6" stroke="#1e1e1e" stroke-width="2" fill="none"></path></g><g transform="translate(8208.783 796.692) rotate(0 24.5 -0.5)"><path d="M36.85 1.53 C41.4 -0.47, 46.57 -1.27, 48.64 -2.6 M36.85 1.53 C41.34 0.09, 45.02 -1.37, 48.64 -2.6" stroke="#1e1e1e" stroke-width="2" fill="none"></path></g><g transform="translate(8208.783 796.692) rotate(0 24.5 -0.5)"><path d="M36.95 -7.02 C41.43 -5.77, 46.56 -3.31, 48.64 -2.6 M36.95 -7.02 C41.38 -5.55, 45.04 -4.1, 48.64 -2.6" stroke="#1e1e1e" stroke-width="2" fill="none"></path></g></g><mask></mask><g stroke-linecap="round"><g transform="translate(8786.733 796.692) rotate(0 24.5 -0.5)"><path d="M-0.48 0.69 C3.68 0.6, 16.07 -0.2, 24.27 -0.52 C32.47 -0.83, 44.45 -1.09, 48.72 -1.19 M1.48 0.01 C5.56 -0.45, 15.74 -2.39, 23.46 -2.38 C31.18 -2.38, 43.28 -0.36, 47.8 0.02" stroke="#1e1e1e" stroke-width="2" fill="none"></path></g><g transform="translate(8786.733 796.692) rotate(0 24.5 -0.5)"><path d="M35.64 2.88 C39.32 2.51, 42.08 1.24, 47.8 0.02 M35.64 2.88 C39.21 1.98, 42.71 1.62, 47.8 0.02" stroke="#1e1e1e" stroke-width="2" fill="none"></path></g><g transform="translate(8786.733 796.692) rotate(0 24.5 -0.5)"><path d="M36.65 -5.61 C40.09 -3.91, 42.6 -3.11, 47.8 0.02 M36.65 -5.61 C39.99 -4.1, 43.21 -2.05, 47.8 0.02" stroke="#1e1e1e" stroke-width="2" fill="none"></path></g></g><mask></mask><g stroke-linecap="round"><g transform="translate(9301.167 796.692) rotate(0 24.5 -0.5)"><path d="M0.27 0.48 C4.3 0.17, 15.45 -0.93, 23.72 -1.19 C31.99 -1.46, 45.63 -1.11, 49.89 -1.11 M-1.05 -0.31 C2.84 -0.49, 14.18 0.17, 22.62 0.24 C31.06 0.32, 45.09 0.22, 49.6 0.15" stroke="#1e1e1e" stroke-width="2" fill="none"></path></g><g transform="translate(9301.167 796.692) rotate(0 24.5 -0.5)"><path d="M37.9 4.55 C41.42 3.09, 43.76 3.16, 49.6 0.15 M37.9 4.55 C41.48 3.64, 45.09 2.14, 49.6 0.15" stroke="#1e1e1e" stroke-width="2" fill="none"></path></g><g transform="translate(9301.167 796.692) rotate(0 24.5 -0.5)"><path d="M37.8 -4 C41.4 -3.24, 43.77 -0.94, 49.6 0.15 M37.8 -4 C41.43 -2.42, 45.07 -1.44, 49.6 0.15" stroke="#1e1e1e" stroke-width="2" fill="none"></path></g></g><mask></mask><g stroke-linecap="round"><g transform="translate(9904.95 796.692) rotate(0 24.5 -0.5)"><path d="M-0.28 -0.19 C3.82 -0.46, 16.63 -0.94, 24.89 -1.11 C33.15 -1.28, 45.19 -1.33, 49.26 -1.2 M1.77 -1.34 C5.77 -1.45, 16.6 0.14, 24.41 0.37 C32.22 0.6, 44.41 0.5, 48.64 0.02" stroke="#1e1e1e" stroke-width="2" fill="none"></path></g><g transform="translate(9904.95 796.692) rotate(0 24.5 -0.5)"><path d="M37.16 4.98 C40.64 4.34, 44.42 2.08, 48.64 0.02 M37.16 4.98 C40.81 3.64, 44.25 1.86, 48.64 0.02" stroke="#1e1e1e" stroke-width="2" fill="none"></path></g><g transform="translate(9904.95 796.692) rotate(0 24.5 -0.5)"><path d="M36.66 -3.56 C40.33 -1.45, 44.28 -0.95, 48.64 0.02 M36.66 -3.56 C40.47 -2.48, 44.06 -1.83, 48.64 0.02" stroke="#1e1e1e" stroke-width="2" fill="none"></path></g></g><mask></mask><g stroke-linecap="round"><g transform="translate(10506.35 796.692) rotate(0 24.5 -0.5)"><path d="M0.89 -0.11 C4.98 -0.28, 16.19 -1.16, 24.26 -1.2 C32.34 -1.23, 45.11 -0.4, 49.36 -0.33 M-0.1 -1.21 C3.88 -1.18, 15.31 0.42, 23.45 0.24 C31.6 0.05, 44.29 -2.36, 48.79 -2.32" stroke="#1e1e1e" stroke-width="2" fill="none"></path></g><g transform="translate(10506.35 796.692) rotate(0 24.5 -0.5)"><path d="M37.44 2.93 C40.47 1.67, 43.52 0.32, 48.79 -2.32 M37.44 2.93 C42.04 0.8, 45.14 -0.94, 48.79 -2.32" stroke="#1e1e1e" stroke-width="2" fill="none"></path></g><g transform="translate(10506.35 796.692) rotate(0 24.5 -0.5)"><path d="M36.72 -5.59 C39.94 -4.5, 43.18 -3.5, 48.79 -2.32 M36.72 -5.59 C41.63 -4.69, 44.99 -3.4, 48.79 -2.32" stroke="#1e1e1e" stroke-width="2" fill="none"></path></g></g><mask></mask><g stroke-linecap="round"><g transform="translate(11091.5 796.692) rotate(0 24.5 -0.5)"><path d="M0.26 -0.2 C4.18 -0.23, 16.11 -0.24, 24.36 -0.33 C32.61 -0.42, 45.48 -0.57, 49.77 -0.75 M-1.06 -1.34 C2.65 -1.72, 15.19 -2.44, 23.6 -2.1 C32.02 -1.76, 45.46 0.44, 49.41 0.69" stroke="#1e1e1e" stroke-width="2" fill="none"></path></g><g transform="translate(11091.5 796.692) rotate(0 24.5 -0.5)"><path d="M37.26 3.62 C41.61 2.87, 47.06 2.2, 49.41 0.69 M37.26 3.62 C40.79 2.62, 44.7 1.53, 49.41 0.69" stroke="#1e1e1e" stroke-width="2" fill="none"></path></g><g transform="translate(11091.5 796.692) rotate(0 24.5 -0.5)"><path d="M38.22 -4.88 C42.2 -2.44, 47.29 0.07, 49.41 0.69 M38.22 -4.88 C41.52 -3.16, 45.12 -1.52, 49.41 0.69" stroke="#1e1e1e" stroke-width="2" fill="none"></path></g></g><mask></mask><g stroke-linecap="round"><g transform="translate(11483.517 796.692) rotate(0 24.5 -0.5)"><path d="M0.36 0.67 C4.45 0.58, 16.48 -0.4, 24.77 -0.75 C33.07 -1.11, 46.21 -1.39, 50.14 -1.46 M-0.91 -0.02 C3.06 -0.49, 15.75 -2.69, 24.23 -2.75 C32.71 -2.81, 45.96 -0.81, 49.97 -0.39" stroke="#1e1e1e" stroke-width="2" fill="none"></path></g><g transform="translate(11483.517 796.692) rotate(0 24.5 -0.5)"><path d="M37.79 2.41 C42.41 2.28, 45.89 1.76, 49.97 -0.39 M37.79 2.41 C40.66 1.45, 44.08 1.5, 49.97 -0.39" stroke="#1e1e1e" stroke-width="2" fill="none"></path></g><g transform="translate(11483.517 796.692) rotate(0 24.5 -0.5)"><path d="M38.84 -6.07 C43.11 -3.47, 46.25 -1.26, 49.97 -0.39 M38.84 -6.07 C41.39 -4.82, 44.53 -2.55, 49.97 -0.39" stroke="#1e1e1e" stroke-width="2" fill="none"></path></g></g><mask></mask><g stroke-linecap="round"><g transform="translate(12094.567 796.692) rotate(0 24.5 -0.5)"><path d="M0.77 0.25 C4.9 -0.11, 17.21 -1.22, 25.14 -1.46 C33.07 -1.7, 44.48 -1.2, 48.35 -1.21 M-0.28 -0.67 C3.76 -0.92, 16.86 -0.28, 24.79 -0.17 C32.71 -0.06, 43.33 0.08, 47.25 0" stroke="#1e1e1e" stroke-width="2" fill="none"></path></g><g transform="translate(12094.567 796.692) rotate(0 24.5 -0.5)"><path d="M35.52 4.32 C39.62 4.01, 42.76 0.72, 47.25 0 M35.52 4.32 C38.77 3.68, 41.84 2.08, 47.25 0" stroke="#1e1e1e" stroke-width="2" fill="none"></path></g><g transform="translate(12094.567 796.692) rotate(0 24.5 -0.5)"><path d="M35.49 -4.23 C39.65 -1.72, 42.8 -2.18, 47.25 0 M35.49 -4.23 C38.7 -2.45, 41.78 -1.63, 47.25 0" stroke="#1e1e1e" stroke-width="2" fill="none"></path></g></g><mask></mask><g stroke-linecap="round"><g transform="translate(12633.6 796.692) rotate(0 24.5 -0.5)"><path d="M1.14 -0.46 C4.9 -0.7, 15.48 -1.03, 23.35 -1.21 C31.23 -1.38, 44.13 -1.7, 48.38 -1.49 M0.27 -1.75 C4.37 -1.83, 17.89 0, 25.73 0.22 C33.56 0.44, 43.41 -0.06, 47.29 -0.43" stroke="#1e1e1e" stroke-width="2" fill="none"></path></g><g transform="translate(12633.6 796.692) rotate(0 24.5 -0.5)"><path d="M35.87 4.66 C39.54 2.03, 43.97 0.19, 47.29 -0.43 M35.87 4.66 C38.5 3.4, 41.63 2.33, 47.29 -0.43" stroke="#1e1e1e" stroke-width="2" fill="none"></path></g><g transform="translate(12633.6 796.692) rotate(0 24.5 -0.5)"><path d="M35.27 -3.86 C39.17 -3.4, 43.82 -2.13, 47.29 -0.43 M35.27 -3.86 C38.04 -2.92, 41.32 -1.79, 47.29 -0.43" stroke="#1e1e1e" stroke-width="2" fill="none"></path></g></g><mask></mask><g stroke-linecap="round"><g transform="translate(13214.917 796.692) rotate(0 24.5 -0.5)"><path d="M-0.65 -0.21 C3.06 -0.38, 15.13 -1.53, 23.38 -1.49 C31.62 -1.46, 44.66 -0.12, 48.82 0.01 M1.22 -1.36 C5.22 -1.33, 17.97 -0.14, 25.76 -0.21 C33.56 -0.29, 44.21 -1.92, 47.96 -1.8" stroke="#1e1e1e" stroke-width="2" fill="none"></path></g><g transform="translate(13214.917 796.692) rotate(0 24.5 -0.5)"><path d="M36.47 3.11 C40.81 0.59, 45.05 -0.89, 47.96 -1.8 M36.47 3.11 C40.75 1.6, 44.82 -0.32, 47.96 -1.8" stroke="#1e1e1e" stroke-width="2" fill="none"></path></g><g transform="translate(13214.917 796.692) rotate(0 24.5 -0.5)"><path d="M36 -5.42 C40.49 -4.57, 44.92 -2.68, 47.96 -1.8 M36 -5.42 C40.41 -3.66, 44.66 -2.29, 47.96 -1.8" stroke="#1e1e1e" stroke-width="2" fill="none"></path></g></g><mask></mask><g transform="translate(29.40833282470703 522.5750122070312) rotate(0 72.9749984741211 12.5)"><text x="72.9749984741211" y="0" font-family="Virgil, Segoe UI Emoji" font-size="20px" fill="#1e1e1e" text-anchor="middle" style="white-space: pre;" direction="ltr" dominant-baseline="text-before-edge">Client Creation</text></g><g transform="translate(821.5249786376953 396.1416778564453) rotate(0 83.69166564941406 12.5)"><text x="83.69166564941406" y="0" font-family="Virgil, Segoe UI Emoji" font-size="20px" fill="#1e1e1e" text-anchor="middle" style="white-space: pre;" direction="ltr" dominant-baseline="text-before-edge">Generate Shards</text></g><g transform="translate(1258.441650390625 510.30001068115234) rotate(0 80.41666412353516 25)"><text x="80.41666412353516" y="0" font-family="Virgil, Segoe UI Emoji" font-size="20px" fill="#1e1e1e" text-anchor="middle" style="white-space: pre;" direction="ltr" dominant-baseline="text-before-edge">Send Public Key </text><text x="80.41666412353516" y="25" font-family="Virgil, Segoe UI Emoji" font-size="20px" fill="#1e1e1e" text-anchor="middle" style="white-space: pre;" direction="ltr" dominant-baseline="text-before-edge">Kyber and Salt</text></g><g transform="translate(373.7208251953125 636.6125183105469) rotate(0 85.94166564941406 25)"><text x="85.94166564941406" y="0" font-family="Virgil, Segoe UI Emoji" font-size="20px" fill="#1e1e1e" text-anchor="middle" style="white-space: pre;" direction="ltr" dominant-baseline="text-before-edge">Derive Key from </text><text x="85.94166564941406" y="25" font-family="Virgil, Segoe UI Emoji" font-size="20px" fill="#1e1e1e" text-anchor="middle" style="white-space: pre;" direction="ltr" dominant-baseline="text-before-edge">Master Password</text></g><g transform="translate(832.4249801635742 636.5750122070312) rotate(0 72.85832977294922 25)"><text x="72.85832977294922" y="0" font-family="Virgil, Segoe UI Emoji" font-size="20px" fill="#1e1e1e" text-anchor="middle" style="white-space: pre;" direction="ltr" dominant-baseline="text-before-edge">Store Keys </text><text x="72.85832977294922" y="25" font-family="Virgil, Segoe UI Emoji" font-size="20px" fill="#1e1e1e" text-anchor="middle" style="white-space: pre;" direction="ltr" dominant-baseline="text-before-edge">Kyber, Dilithium</text></g><g transform="translate(1716.533317565918 497.683349609375) rotate(0 75.54166412353516 37.5)"><text x="75.54166412353516" y="0" font-family="Virgil, Segoe UI Emoji" font-size="20px" fill="#1e1e1e" text-anchor="middle" style="white-space: pre;" direction="ltr" dominant-baseline="text-before-edge">Choose </text><text x="75.54166412353516" y="25" font-family="Virgil, Segoe UI Emoji" font-size="20px" fill="#1e1e1e" text-anchor="middle" style="white-space: pre;" direction="ltr" dominant-baseline="text-before-edge">Authentication </text><text x="75.54166412353516" y="50" font-family="Virgil, Segoe UI Emoji" font-size="20px" fill="#1e1e1e" text-anchor="middle" style="white-space: pre;" direction="ltr" dominant-baseline="text-before-edge">Method</text></g><g transform="translate(2716.562454223633 279.0125198364258) rotate(0 84.55000305175781 25)"><text x="84.55000305175781" y="0" font-family="Virgil, Segoe UI Emoji" font-size="20px" fill="#1e1e1e" text-anchor="middle" style="white-space: pre;" direction="ltr" dominant-baseline="text-before-edge">Receive Challenge</text><text x="84.55000305175781" y="25" font-family="Virgil, Segoe UI Emoji" font-size="20px" fill="#1e1e1e" text-anchor="middle" style="white-space: pre;" direction="ltr" dominant-baseline="text-before-edge">/Shards/</text></g><g transform="translate(3172.949951171875 278.90001678466797) rotate(0 71.875 25)"><text x="71.875" y="0" font-family="Virgil, Segoe UI Emoji" font-size="20px" fill="#1e1e1e" text-anchor="middle" style="white-space: pre;" direction="ltr" dominant-baseline="text-before-edge">Sign Challenge </text><text x="71.875" y="25" font-family="Virgil, Segoe UI Emoji" font-size="20px" fill="#1e1e1e" text-anchor="middle" style="white-space: pre;" direction="ltr" dominant-baseline="text-before-edge">Dilithium</text></g><g transform="translate(3554.487461090088 510.02083587646484) rotate(0 61.016666412353516 25)"><text x="61.016666412353516" y="0" font-family="Virgil, Segoe UI Emoji" font-size="20px" fill="#1e1e1e" text-anchor="middle" style="white-space: pre;" direction="ltr" dominant-baseline="text-before-edge">Send Signed </text><text x="61.016666412353516" y="25" font-family="Virgil, Segoe UI Emoji" font-size="20px" fill="#1e1e1e" text-anchor="middle" style="white-space: pre;" direction="ltr" dominant-baseline="text-before-edge">Challenge</text></g><g transform="translate(2186.82080078125 741.3625106811523) rotate(0 95.94166564941406 25)"><text x="95.94166564941406" y="0" font-family="Virgil, Segoe UI Emoji" font-size="20px" fill="#1e1e1e" text-anchor="middle" style="white-space: pre;" direction="ltr" dominant-baseline="text-before-edge">Receive Challenge </text><text x="95.94166564941406" y="25" font-family="Virgil, Segoe UI Emoji" font-size="20px" fill="#1e1e1e" text-anchor="middle" style="white-space: pre;" direction="ltr" dominant-baseline="text-before-edge">/Master Password/</text></g><g transform="translate(2707.0124588012695 741.3375091552734) rotate(0 93.82499694824219 25)"><text x="93.82499694824219" y="0" font-family="Virgil, Segoe UI Emoji" font-size="20px" fill="#1e1e1e" text-anchor="middle" style="white-space: pre;" direction="ltr" dominant-baseline="text-before-edge">Derive Keys from </text><text x="93.82499694824219" y="25" font-family="Virgil, Segoe UI Emoji" font-size="20px" fill="#1e1e1e" text-anchor="middle" style="white-space: pre;" direction="ltr" dominant-baseline="text-before-edge">Salt and Password</text></g><g transform="translate(3172.949951171875 741.5000076293945) rotate(0 71.875 25)"><text x="71.875" y="0" font-family="Virgil, Segoe UI Emoji" font-size="20px" fill="#1e1e1e" text-anchor="middle" style="white-space: pre;" direction="ltr" dominant-baseline="text-before-edge">Sign Challenge </text><text x="71.875" y="25" font-family="Virgil, Segoe UI Emoji" font-size="20px" fill="#1e1e1e" text-anchor="middle" style="white-space: pre;" direction="ltr" dominant-baseline="text-before-edge">Dilithium</text></g><g transform="translate(3900.524948120117 510.30835723876953) rotate(0 53.90833282470703 25)"><text x="53.90833282470703" y="0" font-family="Virgil, Segoe UI Emoji" font-size="20px" fill="#1e1e1e" text-anchor="middle" style="white-space: pre;" direction="ltr" dominant-baseline="text-before-edge">Server </text><text x="53.90833282470703" y="25" font-family="Virgil, Segoe UI Emoji" font-size="20px" fill="#1e1e1e" text-anchor="middle" style="white-space: pre;" direction="ltr" dominant-baseline="text-before-edge">Verification</text></g><g transform="translate(4240.970779418945 510.2958450317383) rotate(0 70.54166412353516 25)"><text x="70.54166412353516" y="0" font-family="Virgil, Segoe UI Emoji" font-size="20px" fill="#1e1e1e" text-anchor="middle" style="white-space: pre;" direction="ltr" dominant-baseline="text-before-edge">Successful </text><text x="70.54166412353516" y="25" font-family="Virgil, Segoe UI Emoji" font-size="20px" fill="#1e1e1e" text-anchor="middle" style="white-space: pre;" direction="ltr" dominant-baseline="text-before-edge">Authentication</text></g><g transform="translate(4673.820785522461 249.2291717529297) rotate(0 125.25833129882812 25)"><text x="125.25833129882812" y="0" font-family="Virgil, Segoe UI Emoji" font-size="20px" fill="#1e1e1e" text-anchor="middle" style="white-space: pre;" direction="ltr" dominant-baseline="text-before-edge">Encapsulate Public Key &amp;</text><text x="125.25833129882812" y="25" font-family="Virgil, Segoe UI Emoji" font-size="20px" fill="#1e1e1e" text-anchor="middle" style="white-space: pre;" direction="ltr" dominant-baseline="text-before-edge">Send Ciphertext</text></g><g transform="translate(5245.44580078125 249.64584350585938) rotate(0 118.13333129882812 25)"><text x="118.13333129882812" y="0" font-family="Virgil, Segoe UI Emoji" font-size="20px" fill="#1e1e1e" text-anchor="middle" style="white-space: pre;" direction="ltr" dominant-baseline="text-before-edge">Decapsulate for Secure</text><text x="118.13333129882812" y="25" font-family="Virgil, Segoe UI Emoji" font-size="20px" fill="#1e1e1e" text-anchor="middle" style="white-space: pre;" direction="ltr" dominant-baseline="text-before-edge">Communication</text></g><g transform="translate(4753.304122924805 770.4541816711426) rotate(0 45.766666412353516 25)"><text x="45.766666412353516" y="0" font-family="Virgil, Segoe UI Emoji" font-size="20px" fill="#1e1e1e" text-anchor="middle" style="white-space: pre;" direction="ltr" dominant-baseline="text-before-edge">Add </text><text x="45.766666412353516" y="25" font-family="Virgil, Segoe UI Emoji" font-size="20px" fill="#1e1e1e" text-anchor="middle" style="white-space: pre;" direction="ltr" dominant-baseline="text-before-edge">Password</text></g><g transform="translate(5275.504127502441 770.8875122070312) rotate(0 88.08333587646484 25)"><text x="88.08333587646484" y="0" font-family="Virgil, Segoe UI Emoji" font-size="20px" fill="#1e1e1e" text-anchor="middle" style="white-space: pre;" direction="ltr" dominant-baseline="text-before-edge">Derive Key from </text><text x="88.08333587646484" y="25" font-family="Virgil, Segoe UI Emoji" font-size="20px" fill="#1e1e1e" text-anchor="middle" style="white-space: pre;" direction="ltr" dominant-baseline="text-before-edge">Kyber Private Key</text></g><g transform="translate(5739.324966430664 770.5083465576172) rotate(0 64.875 25)"><text x="64.875" y="0" font-family="Virgil, Segoe UI Emoji" font-size="20px" fill="#1e1e1e" text-anchor="middle" style="white-space: pre;" direction="ltr" dominant-baseline="text-before-edge">Encrypt with </text><text x="64.875" y="25" font-family="Virgil, Segoe UI Emoji" font-size="20px" fill="#1e1e1e" text-anchor="middle" style="white-space: pre;" direction="ltr" dominant-baseline="text-before-edge">Blake3</text></g><g transform="translate(6133.462471008301 758.2041778564453) rotate(0 126.2750015258789 37.5)"><text x="126.2750015258789" y="0" font-family="Virgil, Segoe UI Emoji" font-size="20px" fill="#1e1e1e" text-anchor="middle" style="white-space: pre;" direction="ltr" dominant-baseline="text-before-edge">Encrypt with </text><text x="126.2750015258789" y="25" font-family="Virgil, Segoe UI Emoji" font-size="20px" fill="#1e1e1e" text-anchor="middle" style="white-space: pre;" direction="ltr" dominant-baseline="text-before-edge">XChaChaPoly1305 /Nonce </text><text x="126.2750015258789" y="50" font-family="Virgil, Segoe UI Emoji" font-size="20px" fill="#1e1e1e" text-anchor="middle" style="white-space: pre;" direction="ltr" dominant-baseline="text-before-edge">1/</text></g><g transform="translate(6653.0624923706055 770.5791702270508) rotate(0 61.75 25)"><text x="61.75" y="0" font-family="Virgil, Segoe UI Emoji" font-size="20px" fill="#1e1e1e" text-anchor="middle" style="white-space: pre;" direction="ltr" dominant-baseline="text-before-edge">Send Nonce 1</text><text x="61.75" y="25" font-family="Virgil, Segoe UI Emoji" font-size="20px" fill="#1e1e1e" text-anchor="middle" style="white-space: pre;" direction="ltr" dominant-baseline="text-before-edge">/TLS/</text></g><g transform="translate(7014.79167175293 758.4000015258789) rotate(0 38.150001525878906 37.5)"><text x="38.150001525878906" y="0" font-family="Virgil, Segoe UI Emoji" font-size="20px" fill="#1e1e1e" text-anchor="middle" style="white-space: pre;" direction="ltr" dominant-baseline="text-before-edge">Derive </text><text x="38.150001525878906" y="25" font-family="Virgil, Segoe UI Emoji" font-size="20px" fill="#1e1e1e" text-anchor="middle" style="white-space: pre;" direction="ltr" dominant-baseline="text-before-edge">Shared </text><text x="38.150001525878906" y="50" font-family="Virgil, Segoe UI Emoji" font-size="20px" fill="#1e1e1e" text-anchor="middle" style="white-space: pre;" direction="ltr" dominant-baseline="text-before-edge">Secret</text></g><g transform="translate(7378.620849609375 770.779182434082) rotate(0 105.60832977294922 25)"><text x="105.60832977294922" y="0" font-family="Virgil, Segoe UI Emoji" font-size="20px" fill="#1e1e1e" text-anchor="middle" style="white-space: pre;" direction="ltr" dominant-baseline="text-before-edge">Concatenate Blake3 </text><text x="105.60832977294922" y="25" font-family="Virgil, Segoe UI Emoji" font-size="20px" fill="#1e1e1e" text-anchor="middle" style="white-space: pre;" direction="ltr" dominant-baseline="text-before-edge">&amp; Shared Secret</text></g><g transform="translate(7884.587501525879 770.4875183105469) rotate(0 103.58333587646484 25)"><text x="103.58333587646484" y="0" font-family="Virgil, Segoe UI Emoji" font-size="20px" fill="#1e1e1e" text-anchor="middle" style="white-space: pre;" direction="ltr" dominant-baseline="text-before-edge">Encrypt with Blake3 </text><text x="103.58333587646484" y="25" font-family="Virgil, Segoe UI Emoji" font-size="20px" fill="#1e1e1e" text-anchor="middle" style="white-space: pre;" direction="ltr" dominant-baseline="text-before-edge">/Key from R/</text></g><g transform="translate(8395.495826721191 758.2041778564453) rotate(0 126.2750015258789 37.5)"><text x="126.2750015258789" y="0" font-family="Virgil, Segoe UI Emoji" font-size="20px" fill="#1e1e1e" text-anchor="middle" style="white-space: pre;" direction="ltr" dominant-baseline="text-before-edge">Encrypt with </text><text x="126.2750015258789" y="25" font-family="Virgil, Segoe UI Emoji" font-size="20px" fill="#1e1e1e" text-anchor="middle" style="white-space: pre;" direction="ltr" dominant-baseline="text-before-edge">XChaChaPoly1305 /Nonce </text><text x="126.2750015258789" y="50" font-family="Virgil, Segoe UI Emoji" font-size="20px" fill="#1e1e1e" text-anchor="middle" style="white-space: pre;" direction="ltr" dominant-baseline="text-before-edge">2/</text></g><g transform="translate(8969.91667175293 770.5833435058594) rotate(0 97.92500305175781 25)"><text x="97.92500305175781" y="0" font-family="Virgil, Segoe UI Emoji" font-size="20px" fill="#1e1e1e" text-anchor="middle" style="white-space: pre;" direction="ltr" dominant-baseline="text-before-edge">Send Nonce 2 &amp; </text><text x="97.92500305175781" y="25" font-family="Virgil, Segoe UI Emoji" font-size="20px" fill="#1e1e1e" text-anchor="middle" style="white-space: pre;" direction="ltr" dominant-baseline="text-before-edge">Encrypted Password</text></g><g transform="translate(9514.862518310547 770.745849609375) rotate(0 112.25 25)"><text x="112.25" y="0" font-family="Virgil, Segoe UI Emoji" font-size="20px" fill="#1e1e1e" text-anchor="middle" style="white-space: pre;" direction="ltr" dominant-baseline="text-before-edge">Server Decrypt Outer </text><text x="112.25" y="25" font-family="Virgil, Segoe UI Emoji" font-size="20px" fill="#1e1e1e" text-anchor="middle" style="white-space: pre;" direction="ltr" dominant-baseline="text-before-edge">Layer /Shared Secret/</text></g><g transform="translate(10101.291702270508 770.8416595458984) rotate(0 128.50833129882812 25)"><text x="128.50833129882812" y="0" font-family="Virgil, Segoe UI Emoji" font-size="20px" fill="#1e1e1e" text-anchor="middle" style="white-space: pre;" direction="ltr" dominant-baseline="text-before-edge">Generate Unique Key from</text><text x="128.50833129882812" y="25" font-family="Virgil, Segoe UI Emoji" font-size="20px" fill="#1e1e1e" text-anchor="middle" style="white-space: pre;" direction="ltr" dominant-baseline="text-before-edge">Public Kyber Key</text></g><g transform="translate(10710.470893859863 770.9041595458984) rotate(0 112.66666412353516 25)"><text x="112.66666412353516" y="0" font-family="Virgil, Segoe UI Emoji" font-size="20px" fill="#1e1e1e" text-anchor="middle" style="white-space: pre;" direction="ltr" dominant-baseline="text-before-edge">Encrypt Decrypted </text><text x="112.66666412353516" y="25" font-family="Virgil, Segoe UI Emoji" font-size="20px" fill="#1e1e1e" text-anchor="middle" style="white-space: pre;" direction="ltr" dominant-baseline="text-before-edge">Password /Unique Key/</text></g><g transform="translate(11232.437561035156 770.6875152587891) rotate(0 79.06666564941406 25)"><text x="79.06666564941406" y="0" font-family="Virgil, Segoe UI Emoji" font-size="20px" fill="#1e1e1e" text-anchor="middle" style="white-space: pre;" direction="ltr" dominant-baseline="text-before-edge">Send Encrypted </text><text x="79.06666564941406" y="25" font-family="Virgil, Segoe UI Emoji" font-size="20px" fill="#1e1e1e" text-anchor="middle" style="white-space: pre;" direction="ltr" dominant-baseline="text-before-edge">Password</text></g><g transform="translate(11688.44588470459 770.9291839599609) rotate(0 124.83333587646484 25)"><text x="124.83333587646484" y="0" font-family="Virgil, Segoe UI Emoji" font-size="20px" fill="#1e1e1e" text-anchor="middle" style="white-space: pre;" direction="ltr" dominant-baseline="text-before-edge">Client Receive Encrypted </text><text x="124.83333587646484" y="25" font-family="Virgil, Segoe UI Emoji" font-size="20px" fill="#1e1e1e" text-anchor="middle" style="white-space: pre;" direction="ltr" dominant-baseline="text-before-edge">Password &amp; Nonces</text></g><g transform="translate(12283.441711425781 770.933349609375) rotate(0 104.88333129882812 25)"><text x="104.88333129882812" y="0" font-family="Virgil, Segoe UI Emoji" font-size="20px" fill="#1e1e1e" text-anchor="middle" style="white-space: pre;" direction="ltr" dominant-baseline="text-before-edge">Decrypt with Shared </text><text x="104.88333129882812" y="25" font-family="Virgil, Segoe UI Emoji" font-size="20px" fill="#1e1e1e" text-anchor="middle" style="white-space: pre;" direction="ltr" dominant-baseline="text-before-edge">Secret /Nonce 2/</text></g><g transform="translate(12840.579200744629 770.8625183105469) rotate(0 107.8499984741211 25)"><text x="107.8499984741211" y="0" font-family="Virgil, Segoe UI Emoji" font-size="20px" fill="#1e1e1e" text-anchor="middle" style="white-space: pre;" direction="ltr" dominant-baseline="text-before-edge">Decrypt with Private </text><text x="107.8499984741211" y="25" font-family="Virgil, Segoe UI Emoji" font-size="20px" fill="#1e1e1e" text-anchor="middle" style="white-space: pre;" direction="ltr" dominant-baseline="text-before-edge">Kyber Key /Nonce 1/</text></g><g transform="translate(13350.595863342285 770.7625045776367) rotate(0 51.25 25)"><text x="51.25" y="0" font-family="Virgil, Segoe UI Emoji" font-size="20px" fill="#1e1e1e" text-anchor="middle" style="white-space: pre;" direction="ltr" dominant-baseline="text-before-edge">Retrieved </text><text x="51.25" y="25" font-family="Virgil, Segoe UI Emoji" font-size="20px" fill="#1e1e1e" text-anchor="middle" style="white-space: pre;" direction="ltr" dominant-baseline="text-before-edge">Password</text></g></svg>
