<svg version="1.1" xmlns="http://www.w3.org/2000/svg" viewBox="0 0 7325.083435058594 584" width="7325.083435058594" height="584">
  <!-- svg-source:excalidraw -->
  
  <defs>
    <style class="style-fonts">
      @font-face {
        font-family: "Virgil";
        src: url("https://excalidraw.com/Virgil.woff2");
      }
      @font-face {
        font-family: "Cascadia";
        src: url("https://excalidraw.com/Cascadia.woff2");
      }
      @font-face {
        font-family: "Assistant";
        src: url("https://excalidraw.com/Assistant-Regular.woff2");
      }
    </style>
    
  </defs>
  <rect x="0" y="0" width="7325.083435058594" height="584" fill="#ffffff"></rect><g stroke-linecap="round" transform="translate(10 104) rotate(0 346.5916748046875 188)"><path d="M0 0 C196.63 -0.88, 393.28 -2.32, 693.18 0 M0 0 C206.25 1.08, 411.5 1.12, 693.18 0 M693.18 0 C692.45 124.99, 692.59 249.91, 693.18 376 M693.18 0 C693.22 99.29, 693.26 196.99, 693.18 376 M693.18 376 C455.34 377.22, 218.41 377.18, 0 376 M693.18 376 C489.66 375.4, 286.15 375.36, 0 376 M0 376 C1.04 269.89, 2.76 165.13, 0 0 M0 376 C-0.28 239.05, 0.81 101.41, 0 0" stroke="#1e1e1e" stroke-width="2" fill="none"></path></g><g stroke-linecap="round" transform="translate(753.183349609375 10) rotate(0 340.82501220703125 282)"><path d="M0 0 C244.9 -3.21, 488.22 -2.89, 681.65 0 M0 0 C183.11 -1.23, 366.82 -1.75, 681.65 0 M681.65 0 C683.67 123.59, 682.77 246.94, 681.65 564 M681.65 0 C682.38 191.36, 682.42 383.76, 681.65 564 M681.65 564 C449.63 564.47, 218.19 564.18, 0 564 M681.65 564 C491.25 563.75, 300.59 563.46, 0 564 M0 564 C2.33 425.34, 2.37 286.65, 0 0 M0 564 C2.57 349.75, 2.52 135.71, 0 0" stroke="#1e1e1e" stroke-width="2" fill="none"></path></g><g stroke-linecap="round" transform="translate(1484.8333740234375 104) rotate(0 215.13333129882812 188)"><path d="M0 0 C168.53 1.45, 336.8 2.96, 430.27 0 M0 0 C152.72 -1.8, 304.69 -1.13, 430.27 0 M430.27 0 C431.52 115.99, 432.46 232.44, 430.27 376 M430.27 0 C431.26 147.36, 431.25 293.07, 430.27 376 M430.27 376 C294.89 375.93, 159.44 376.3, 0 376 M430.27 376 C303.93 375.13, 177.51 375.17, 0 376 M0 376 C-0.59 284.93, -0.41 193, 0 0 M0 376 C-1.4 254.22, -1.41 132.87, 0 0" stroke="#1e1e1e" stroke-width="2" fill="none"></path></g><g stroke-linecap="round" transform="translate(1965.1000366210938 210) rotate(0 1484.9833984375 82)"><path d="M0 0 C629.24 6.55, 1259.41 5.31, 2969.97 0 M0 0 C1085.5 8.06, 2171.68 8.11, 2969.97 0 M2969.97 0 C2970.15 51.7, 2971.16 103, 2969.97 164 M2969.97 0 C2971.06 34.99, 2970.8 71.13, 2969.97 164 M2969.97 164 C2050.63 160.89, 1131.58 161.01, 0 164 M2969.97 164 C2133.05 153.1, 1296.34 153.66, 0 164 M0 164 C0.53 113.68, -0.61 68.94, 0 0 M0 164 C-0.46 124.94, -1.34 87.74, 0 0" stroke="#1e1e1e" stroke-width="2" fill="none"></path></g><g stroke-linecap="round" transform="translate(3232.2167358398438 235) rotate(0 834.1749877929688 57)"><path d="M0 0 C419.84 -6.96, 839.34 -6.24, 1668.35 0 M0 0 C390.9 -3.91, 781.78 -4.36, 1668.35 0 M1668.35 0 C1670.61 34.23, 1667.17 68.01, 1668.35 114 M1668.35 0 C1668.95 44.91, 1668.9 90.55, 1668.35 114 M1668.35 114 C1212.41 114.77, 756.42 114.43, 0 114 M1668.35 114 C1316.13 108.77, 964.35 108.79, 0 114 M0 114 C-0.45 83.03, -2.25 50.24, 0 0 M0 114 C-0.97 89.16, -0.13 64.47, 0 0" stroke="#1e1e1e" stroke-width="2" fill="none"></path></g><g stroke-linecap="round" transform="translate(2000.6000366210938 235) rotate(0 590.808349609375 57)"><path d="M0 0 C470.13 2.99, 938.68 2.09, 1181.62 0 M0 0 C429.08 -3.69, 858.04 -3.38, 1181.62 0 M1181.62 0 C1181.01 38.06, 1184.6 75.23, 1181.62 114 M1181.62 0 C1181.88 25.37, 1181.51 50.66, 1181.62 114 M1181.62 114 C816.63 114.96, 451.23 114.68, 0 114 M1181.62 114 C923.95 117.1, 666.27 117.16, 0 114 M0 114 C-1.61 92.52, -1.89 69.63, 0 0 M0 114 C0.88 90.46, 0.1 67.03, 0 0" stroke="#1e1e1e" stroke-width="2" fill="none"></path></g><g stroke-linecap="round" transform="translate(4985.066833496094 210) rotate(0 1165.00830078125 82)"><path d="M0 0 C563.57 -3.64, 1128.69 -2.93, 2330.02 0 M0 0 C873.33 3.64, 1746.82 3.85, 2330.02 0 M2330.02 0 C2330.62 55.32, 2327.14 109.34, 2330.02 164 M2330.02 0 C2329.9 42.45, 2330.26 85.24, 2330.02 164 M2330.02 164 C1575.16 161.73, 821.07 161.7, 0 164 M2330.02 164 C1490.94 170.34, 651.59 170.11, 0 164 M0 164 C-0.53 103.08, -0.73 39.08, 0 0 M0 164 C-1.18 114.92, -0.41 64.88, 0 0" stroke="#1e1e1e" stroke-width="2" fill="none"></path></g><g stroke-linecap="round" transform="translate(5883.383483886719 235) rotate(0 698.5999755859375 57)"><path d="M0 0 C464.57 4.6, 928.73 4.63, 1397.2 0 M0 0 C367.03 -1.87, 733.97 -2.56, 1397.2 0 M1397.2 0 C1396.77 39.3, 1397.51 78.22, 1397.2 114 M1397.2 0 C1396.98 33.41, 1397.13 66.77, 1397.2 114 M1397.2 114 C1004.88 110.5, 614.35 110.93, 0 114 M1397.2 114 C887.37 118.53, 378.66 118.17, 0 114 M0 114 C-0.9 71.6, 0.98 31.34, 0 0 M0 114 C0.8 77.57, -0.64 40.66, 0 0" stroke="#1e1e1e" stroke-width="2" fill="none"></path></g><g stroke-linecap="round" transform="translate(5020.566833496094 235) rotate(0 406.4083251953125 57)"><path d="M0 0 C178.57 -0.19, 355.65 -0.33, 812.82 0 M0 0 C276.38 -3.26, 552.67 -2.55, 812.82 0 M812.82 0 C811.14 38.94, 811.81 76.97, 812.82 114 M812.82 0 C813.15 31.68, 812.72 62.83, 812.82 114 M812.82 114 C613.53 112.06, 413.8 111.99, 0 114 M812.82 114 C504.76 114.46, 196.33 114.41, 0 114 M0 114 C1.09 73.53, 1.45 30.25, 0 0 M0 114 C-1.52 73.58, -1.39 33.15, 0 0" stroke="#1e1e1e" stroke-width="2" fill="none"></path></g><g stroke-linecap="round" transform="translate(5045.566833496094 270) rotate(0 202.45834350585938 22)"><path d="M11 0 C128.75 -0.34, 247.86 0.04, 393.92 0 M11 0 C160.72 2.45, 310.17 1.41, 393.92 0 M393.92 0 C401.54 -0.8, 405.11 3.54, 404.92 11 M393.92 0 C400.63 -0.47, 405.12 3.51, 404.92 11 M404.92 11 C403.1 17.04, 403.24 24.08, 404.92 33 M404.92 11 C404.76 19.72, 403.91 27.07, 404.92 33 M404.92 33 C406.51 38.98, 402.61 42.36, 393.92 44 M404.92 33 C406.43 38.22, 400.74 44.06, 393.92 44 M393.92 44 C255.68 44.38, 116.3 42.68, 11 44 M393.92 44 C292.2 42.31, 189.56 42.37, 11 44 M11 44 C4.93 44.51, -1.45 41.9, 0 33 M11 44 C1.57 43.91, -0.83 41.52, 0 33 M0 33 C1.16 27.41, 0.33 20.91, 0 11 M0 33 C0.78 25.15, 1.09 18.83, 0 11 M0 11 C0.31 5.43, 2.21 1.19, 11 0 M0 11 C1.86 3.99, 2.15 -1.21, 11 0" stroke="#1e1e1e" stroke-width="2" fill="none"></path></g><g stroke-linecap="round" transform="translate(5500.4835205078125 270) rotate(0 153.9499969482422 22)"><path d="M11 0 C100.82 0.52, 190.8 0.61, 296.9 0 M11 0 C73.65 -2.69, 135.8 -2.41, 296.9 0 M296.9 0 C304.42 -0.13, 307.37 3.26, 307.9 11 M296.9 0 C304.43 -0.15, 308.44 3.25, 307.9 11 M307.9 11 C306.07 16, 308.91 23.23, 307.9 33 M307.9 11 C306.87 19.25, 308.66 26.37, 307.9 33 M307.9 33 C309.26 38.7, 305.55 42.17, 296.9 44 M307.9 33 C307.39 40.39, 305.67 44.46, 296.9 44 M296.9 44 C215.67 44.11, 133.72 44.31, 11 44 M296.9 44 C230.57 43.34, 164.5 43.64, 11 44 M11 44 C2.22 45.57, -1.82 40.26, 0 33 M11 44 C2.83 45.19, -1.09 42.35, 0 33 M0 33 C0.37 23.42, 0.17 14.35, 0 11 M0 33 C0.8 24.76, 0.02 17.93, 0 11 M0 11 C-1.45 4.86, 5.28 0.28, 11 0 M0 11 C-1.51 2.46, 3.66 1.76, 11 0" stroke="#1e1e1e" stroke-width="2" fill="none"></path></g><g stroke-linecap="round" transform="translate(5908.383483886719 270) rotate(0 213.11666870117188 22)"><path d="M11 0 C131.09 -0.23, 248.25 -0.13, 415.23 0 M11 0 C171.74 1.52, 332.37 1.7, 415.23 0 M415.23 0 C422.03 -0.41, 426.41 3.53, 426.23 11 M415.23 0 C423.11 -0.42, 425.78 1.62, 426.23 11 M426.23 11 C427.25 16.3, 427.35 21.53, 426.23 33 M426.23 11 C426.81 18.67, 426.69 26.87, 426.23 33 M426.23 33 C427.55 38.5, 422.12 44.05, 415.23 44 M426.23 33 C427.67 40.8, 422.21 45.19, 415.23 44 M415.23 44 C268.53 41.39, 121.8 43.1, 11 44 M415.23 44 C304.61 43.8, 192.87 44.1, 11 44 M11 44 C1.85 43.92, -0.73 41.36, 0 33 M11 44 C2.57 46.02, 2.08 41.89, 0 33 M0 33 C0.26 24.97, 1.19 21.1, 0 11 M0 33 C-0.05 29.26, -0.93 24.36, 0 11 M0 11 C1.62 3.95, 2.35 -1.05, 11 0 M0 11 C-0.01 5.43, 5.83 -0.27, 11 0" stroke="#1e1e1e" stroke-width="2" fill="none"></path></g><g stroke-linecap="round" transform="translate(6384.6168212890625 270) rotate(0 203.76666259765625 22)"><path d="M11 0 C135.89 -0.24, 263.86 -0.27, 396.53 0 M11 0 C97.07 0.87, 182.88 0.79, 396.53 0 M396.53 0 C404.04 -0.13, 408.01 3.3, 407.53 11 M396.53 0 C403.41 -2.05, 406.29 1.78, 407.53 11 M407.53 11 C408.96 16.03, 409.25 19.64, 407.53 33 M407.53 11 C408.39 17.28, 408.37 24.28, 407.53 33 M407.53 33 C407.09 40.38, 405.12 44.4, 396.53 44 M407.53 33 C407.18 41.52, 405.29 44.16, 396.53 44 M396.53 44 C311.52 43.45, 227.8 42.62, 11 44 M396.53 44 C286.24 45.05, 176.26 44.56, 11 44 M11 44 C2.94 45.03, -0.95 42.09, 0 33 M11 44 C5.75 45.56, -0.04 40.93, 0 33 M0 33 C1.21 28.72, -1.84 23.84, 0 11 M0 33 C-0.76 27.58, 0.77 21.12, 0 11 M0 11 C-1.32 2.62, 3.66 1.53, 11 0 M0 11 C2.17 3.39, 3.42 -0.24, 11 0" stroke="#1e1e1e" stroke-width="2" fill="none"></path></g><g stroke-linecap="round" transform="translate(6842.150146484375 270) rotate(0 206.7166748046875 22)"><path d="M11 0 C142.27 -0.5, 270.39 -0.79, 402.43 0 M11 0 C112.65 0.02, 214.67 0.11, 402.43 0 M402.43 0 C410.24 -0.37, 413.04 1.89, 413.43 11 M402.43 0 C408.52 -1.88, 412.09 5.05, 413.43 11 M413.43 11 C415.16 15.49, 414.03 25.55, 413.43 33 M413.43 11 C414.24 15.2, 413.36 21.26, 413.43 33 M413.43 33 C414.69 40.74, 409.46 45.03, 402.43 44 M413.43 33 C414.86 40.49, 407.89 43.24, 402.43 44 M402.43 44 C311.42 46.09, 220.83 46.66, 11 44 M402.43 44 C274.47 45.76, 147.35 46.08, 11 44 M11 44 C2.71 45.75, 1.81 41.69, 0 33 M11 44 C3.63 44.6, -1.14 40.7, 0 33 M0 33 C-1.94 29.87, -0.67 23.33, 0 11 M0 33 C0.97 24.6, -0.5 15.4, 0 11 M0 11 C-0.01 5.2, 5.55 -0.24, 11 0 M0 11 C-0.24 3.42, 5.09 1.33, 11 0" stroke="#1e1e1e" stroke-width="2" fill="none"></path></g><g stroke-linecap="round" transform="translate(2025.6000366210938 270) rotate(0 145.6999969482422 22)"><path d="M11 0 C101.99 -0.62, 194.77 -0.69, 280.4 0 M11 0 C90.18 0.38, 169.41 0.29, 280.4 0 M280.4 0 C287.34 -1.78, 290.32 2.03, 291.4 11 M280.4 0 C286.39 1.38, 291.28 5.15, 291.4 11 M291.4 11 C292.03 18.87, 290.23 24.93, 291.4 33 M291.4 11 C291.32 15.82, 292.17 20.8, 291.4 33 M291.4 33 C291.09 41.37, 288.97 44.14, 280.4 44 M291.4 33 C289.52 39.57, 286.16 42.44, 280.4 44 M280.4 44 C176.55 45.29, 73.57 43.17, 11 44 M280.4 44 C178.15 44.32, 76.1 44.61, 11 44 M11 44 C5.48 45.36, -0.03 40.85, 0 33 M11 44 C2.53 44.37, -1.68 41.77, 0 33 M0 33 C-0.34 25.36, 1.96 15.64, 0 11 M0 33 C-0.84 24.56, -0.18 17.95, 0 11 M0 11 C1.88 3.43, 3.46 -0.21, 11 0 M0 11 C1.43 5, 2.36 -0.2, 11 0" stroke="#1e1e1e" stroke-width="2" fill="none"></path></g><g stroke-linecap="round" transform="translate(2367.000030517578 270) rotate(0 134.9499969482422 22)"><path d="M11 0 C94.61 -0.14, 179.43 -0.73, 258.9 0 M11 0 C80.47 -0.02, 149.39 -0.6, 258.9 0 M258.9 0 C265.15 -1.64, 268.73 4.87, 269.9 11 M258.9 0 C266.11 1.49, 269.57 5.49, 269.9 11 M269.9 11 C268.6 16.77, 268.31 21.14, 269.9 33 M269.9 11 C270.48 15.78, 269.7 20.68, 269.9 33 M269.9 33 C271.14 40.47, 264.6 43.34, 258.9 44 M269.9 33 C268.33 38.78, 268.18 43.41, 258.9 44 M258.9 44 C181.38 44.09, 104.31 43.79, 11 44 M258.9 44 C185.08 45.77, 112.79 45.6, 11 44 M11 44 C3.63 44.52, -0.99 40.65, 0 33 M11 44 C1.99 45.44, 1.41 38.26, 0 33 M0 33 C1.82 22.9, 1.25 17.32, 0 11 M0 33 C0.14 26.86, 1.09 19.07, 0 11 M0 11 C-0.21 3.46, 4.91 1.16, 11 0 M0 11 C-1.31 3.47, 2.93 -0.97, 11 0" stroke="#1e1e1e" stroke-width="2" fill="none"></path></g><g stroke-linecap="round" transform="translate(2686.9000244140625 270) rotate(0 235.1583251953125 22)"><path d="M11 0 C151.92 -0.47, 292.77 -0.12, 459.32 0 M11 0 C142.44 -0.03, 273.81 0, 459.32 0 M459.32 0 C465.48 1.2, 470.21 4.96, 470.32 11 M459.32 0 C466.32 1.83, 468.03 4.19, 470.32 11 M470.32 11 C468.53 20.67, 468.33 27.25, 470.32 33 M470.32 11 C470.3 18.17, 471.07 24.38, 470.32 33 M470.32 33 C468.69 39.67, 465.28 42.65, 459.32 44 M470.32 33 C472.26 39.75, 466.98 43.65, 459.32 44 M459.32 44 C297.29 41.54, 133.7 42.07, 11 44 M459.32 44 C302.15 46.24, 144.1 46.04, 11 44 M11 44 C2.68 44.32, -1.46 41.58, 0 33 M11 44 C5.08 41.93, 2.14 39.72, 0 33 M0 33 C1 27.67, 0.09 17.79, 0 11 M0 33 C0.94 27.44, -0.1 22.01, 0 11 M0 11 C1.24 4.82, 2.53 -0.17, 11 0 M0 11 C-0.73 2.69, 4.31 1.05, 11 0" stroke="#1e1e1e" stroke-width="2" fill="none"></path></g><g stroke-linecap="round" transform="translate(3257.2167358398438 270) rotate(0 143.25833129882812 22)"><path d="M11 0 C92.54 0.7, 174.62 0.94, 275.52 0 M11 0 C85.09 1.22, 159.58 2.34, 275.52 0 M275.52 0 C282.74 1.29, 286.23 5.25, 286.52 11 M275.52 0 C280.56 0.52, 288.34 2.12, 286.52 11 M286.52 11 C284.5 18.65, 286.38 28.45, 286.52 33 M286.52 11 C287.1 18.11, 285.67 24.76, 286.52 33 M286.52 33 C285.15 38.98, 284.54 43.49, 275.52 44 M286.52 33 C286.85 39.99, 284.3 44.59, 275.52 44 M275.52 44 C215.27 41.52, 155.97 41.34, 11 44 M275.52 44 C172.97 45.63, 70.06 45.55, 11 44 M11 44 C2.2 45.25, 1.23 38.53, 0 33 M11 44 C5.81 43.39, 0.36 42.36, 0 33 M0 33 C0.15 26.68, -1.18 22.99, 0 11 M0 33 C-0.31 24.61, 0.41 17.01, 0 11 M0 11 C-1.14 3.49, 3.03 -0.85, 11 0 M0 11 C0.64 4.72, 4.06 0.32, 11 0" stroke="#1e1e1e" stroke-width="2" fill="none"></path></g><g stroke-linecap="round" transform="translate(3593.7333984375 270) rotate(0 220.80833435058594 22)"><path d="M11 0 C125.59 0.06, 240.13 -0.41, 430.62 0 M11 0 C99.22 2.16, 188.03 2.18, 430.62 0 M430.62 0 C437.66 1.59, 439.62 4.12, 441.62 11 M430.62 0 C439.78 -1.55, 443.18 1.78, 441.62 11 M441.62 11 C441.46 20.3, 441.82 26.79, 441.62 33 M441.62 11 C440.94 18.41, 441.07 25.8, 441.62 33 M441.62 33 C443.31 39.82, 438.24 43.7, 430.62 44 M441.62 33 C443.07 40.92, 436.28 45.8, 430.62 44 M430.62 44 C343.46 42.68, 256.14 44.15, 11 44 M430.62 44 C276 44.67, 121.51 44.92, 11 44 M11 44 C4.9 42.2, 1.86 39.8, 0 33 M11 44 C4.03 46.02, -1.67 41.7, 0 33 M0 33 C-1.08 24.61, 1.5 18.12, 0 11 M0 33 C0.64 27.24, -0.55 20.23, 0 11 M0 11 C-0.64 2.82, 4.22 0.91, 11 0 M0 11 C0.4 3.99, 5.65 0.95, 11 0" stroke="#1e1e1e" stroke-width="2" fill="none"></path></g><g stroke-linecap="round" transform="translate(4085.350067138672 270) rotate(0 134.9499969482422 22)"><path d="M11 0 C87.24 -0.8, 162.62 -1.37, 258.9 0 M11 0 C65.01 -0.69, 118.99 -0.57, 258.9 0 M258.9 0 C264.24 0.45, 271.49 2.32, 269.9 11 M258.9 0 C267.8 -1.88, 271.42 1.56, 269.9 11 M269.9 11 C270.31 16.8, 270.94 24.46, 269.9 33 M269.9 11 C269.04 17.08, 270.57 24.25, 269.9 33 M269.9 33 C270.19 40.03, 267.5 44.51, 258.9 44 M269.9 33 C268.23 42.14, 264.14 43.91, 258.9 44 M258.9 44 C194.96 44.52, 129.26 43, 11 44 M258.9 44 C177.49 44.84, 97.78 43.59, 11 44 M11 44 C5.53 43.47, 0.31 42.09, 0 33 M11 44 C1.99 45.37, 1.86 40.65, 0 33 M0 33 C1.65 29.73, -0.12 22.48, 0 11 M0 33 C-0.71 26.54, -0.46 19.84, 0 11 M0 11 C0.56 4.58, 4.01 0.28, 11 0 M0 11 C1.99 4.62, 5.73 1.79, 11 0" stroke="#1e1e1e" stroke-width="2" fill="none"></path></g><g stroke-linecap="round" transform="translate(4405.250061035156 270) rotate(0 235.1583251953125 22)"><path d="M11 0 C155.24 -0.1, 300.41 -0.14, 459.32 0 M11 0 C172.36 -1.02, 333.38 -1.3, 459.32 0 M459.32 0 C468.24 -1.35, 471.68 2.03, 470.32 11 M459.32 0 C468.17 -2.11, 469.8 3.72, 470.32 11 M470.32 11 C471.39 20.22, 470.5 25.32, 470.32 33 M470.32 11 C471.01 16.62, 470.31 22.6, 470.32 33 M470.32 33 C471.58 40.84, 465.2 45.57, 459.32 44 M470.32 33 C468.22 40.25, 465.82 45.19, 459.32 44 M459.32 44 C346.82 45.96, 233.26 45.49, 11 44 M459.32 44 C317.91 44.92, 176.37 45.23, 11 44 M11 44 C3.98 45.76, -1.45 41.52, 0 33 M11 44 C5.53 44.32, -1.51 39.12, 0 33 M0 33 C-0.41 26.2, -0.38 21.06, 0 11 M0 33 C-0.19 24.7, 0.4 17.71, 0 11 M0 11 C0.35 3.95, 5.4 0.83, 11 0 M0 11 C2.06 5.45, 4.51 -0.18, 11 0" stroke="#1e1e1e" stroke-width="2" fill="none"></path></g><g stroke-linecap="round" transform="translate(1549.2167053222656 129) rotate(0 150.75 22)"><path d="M11 0 C88.09 0.27, 168.62 1.08, 290.5 0 M11 0 C112.14 -1.53, 215.42 -2.22, 290.5 0 M290.5 0 C299.19 -1.64, 302.82 1.83, 301.5 11 M290.5 0 C297.32 0.06, 302.94 4.13, 301.5 11 M301.5 11 C301.75 15.63, 300.95 22.15, 301.5 33 M301.5 11 C301.83 15.96, 302.32 21.48, 301.5 33 M301.5 33 C300.05 41.9, 296.01 43.92, 290.5 44 M301.5 33 C300.67 41.52, 296.74 46.02, 290.5 44 M290.5 44 C181.74 43.21, 72.43 42.84, 11 44 M290.5 44 C189.9 41.86, 87.99 42.74, 11 44 M11 44 C2.21 45.19, 1.62 40.61, 0 33 M11 44 C2.15 42.79, -0.01 42.09, 0 33 M0 33 C-0.19 25.57, 1.18 14.52, 0 11 M0 33 C0.35 27.05, 0.24 20.32, 0 11 M0 11 C1.73 4.5, 5.46 1.55, 11 0 M0 11 C0.84 3.49, 2.3 -1.73, 11 0" stroke="#1e1e1e" stroke-width="2" fill="none"></path></g><g stroke-linecap="round" transform="translate(1519.8333740234375 223) rotate(0 180.13333129882812 22)"><path d="M11 0 C94.94 1.25, 178.14 1.13, 349.27 0 M11 0 C139.87 -0.96, 268.13 -1.06, 349.27 0 M349.27 0 C357.92 -1.83, 359.82 3.72, 360.27 11 M349.27 0 C358.04 0.46, 359.91 4.85, 360.27 11 M360.27 11 C359.62 17.6, 358.93 28.62, 360.27 33 M360.27 11 C360.93 17.3, 359.57 23.86, 360.27 33 M360.27 33 C358.45 40.26, 355.87 45.03, 349.27 44 M360.27 33 C359.17 42.35, 358.68 45.56, 349.27 44 M349.27 44 C248.56 41.9, 148.27 43.7, 11 44 M349.27 44 C278.37 43.98, 206.79 43.79, 11 44 M11 44 C5.28 44.28, -1.32 39.28, 0 33 M11 44 C3.66 45.76, 2.17 40.06, 0 33 M0 33 C1.18 25.49, -0.15 19.63, 0 11 M0 33 C0.11 27.47, 0.8 22.07, 0 11 M0 11 C1.8 5.22, 4.4 -0.16, 11 0 M0 11 C-1.37 1.94, 5.29 0.84, 11 0" stroke="#1e1e1e" stroke-width="2" fill="none"></path></g><g stroke-linecap="round" transform="translate(1552.6000366210938 317) rotate(0 147.36666870117188 22)"><path d="M11 0 C77.94 -0.11, 144.1 -1.44, 283.73 0 M11 0 C99.51 0.79, 187.47 0.72, 283.73 0 M283.73 0 C290.62 0.05, 295.99 4.07, 294.73 11 M283.73 0 C290.71 1.19, 296.16 3.83, 294.73 11 M294.73 11 C293.31 17.5, 294.15 20.9, 294.73 33 M294.73 11 C294.15 18.05, 293.96 23.5, 294.73 33 M294.73 33 C294.01 41.36, 290.11 45.75, 283.73 44 M294.73 33 C296.82 41.89, 291.03 44.6, 283.73 44 M283.73 44 C216.36 43.41, 145.63 43.9, 11 44 M283.73 44 C208.64 46.33, 135.3 45.98, 11 44 M11 44 C2.35 42.95, -0.01 41.86, 0 33 M11 44 C5.83 43.73, -0.24 40.09, 0 33 M0 33 C-0.3 24.4, -0.97 17.63, 0 11 M0 33 C0.83 25.81, 0.86 18.57, 0 11 M0 11 C0.73 3.51, 2.48 -1.5, 11 0 M0 11 C1.62 4.51, 3.66 1.32, 11 0" stroke="#1e1e1e" stroke-width="2" fill="none"></path></g><g stroke-linecap="round" transform="translate(1520.8917083740234 411) rotate(0 179.0749969482422 22)"><path d="M11 0 C111.12 -1.02, 209.4 1.4, 347.15 0 M11 0 C89.62 1.24, 167.21 1.87, 347.15 0 M347.15 0 C355.74 0.4, 357.84 4.7, 358.15 11 M347.15 0 C355.91 0.16, 356.27 2.91, 358.15 11 M358.15 11 C357.49 16.39, 357.7 22.46, 358.15 33 M358.15 11 C357.08 18.12, 357.63 25.84, 358.15 33 M358.15 33 C357.2 42.09, 356.29 45.36, 347.15 44 M358.15 33 C358.11 40.93, 353.35 44.37, 347.15 44 M347.15 44 C269.66 46.65, 194.24 45.6, 11 44 M347.15 44 C217.28 45.44, 85.88 44.99, 11 44 M11 44 C3.66 45.53, 1.88 40.1, 0 33 M11 44 C3.42 43.76, 1.43 41.66, 0 33 M0 33 C-0.83 28.21, 0.93 22.65, 0 11 M0 33 C0.71 26.87, 0.17 19.11, 0 11 M0 11 C-1.19 2.17, 5.08 0.73, 11 0 M0 11 C0 4.98, 4.96 0.88, 11 0" stroke="#1e1e1e" stroke-width="2" fill="none"></path></g><g stroke-linecap="round" transform="translate(857.7083587646484 35) rotate(0 236.3000030517578 22)"><path d="M11 0 C139.91 2.93, 267.74 2.82, 461.6 0 M11 0 C109.18 2, 207.87 2.09, 461.6 0 M461.6 0 C468.62 1.03, 473.84 3.81, 472.6 11 M461.6 0 C467.06 -0.76, 471.03 2.11, 472.6 11 M472.6 11 C472.24 20.72, 473.06 26.47, 472.6 33 M472.6 11 C472.04 19.84, 471.92 28.53, 472.6 33 M472.6 33 C474.41 41.69, 468.9 44.52, 461.6 44 M472.6 33 C471.46 40.7, 467.25 45.44, 461.6 44 M461.6 44 C298.46 46.18, 136.69 45.32, 11 44 M461.6 44 C299.27 44.05, 137.58 44.67, 11 44 M11 44 C5.55 43.76, -0.21 40.12, 0 33 M11 44 C5.09 45.33, -1.31 40.13, 0 33 M0 33 C1.01 27.45, 0.37 22.93, 0 11 M0 33 C0.17 25.41, -0.79 17.23, 0 11 M0 11 C1.41 4.4, 3.66 1.14, 11 0 M0 11 C1.29 4.54, 3.03 -2.29, 11 0" stroke="#1e1e1e" stroke-width="2" fill="none"></path></g><g stroke-linecap="round" transform="translate(935.2916870117188 129) rotate(0 158.7166748046875 22)"><path d="M11 0 C69.2 -0.73, 128.19 -0.76, 306.43 0 M11 0 C73 0.1, 133.95 0.33, 306.43 0 M306.43 0 C315.01 0.14, 315.8 3.01, 317.43 11 M306.43 0 C312.2 -1.56, 319.38 3.08, 317.43 11 M317.43 11 C317.91 16.47, 318.97 23.01, 317.43 33 M317.43 11 C316.88 18.39, 318.26 24.71, 317.43 33 M317.43 33 C317.4 40.85, 312.78 44.32, 306.43 44 M317.43 33 C315.75 41.77, 315.18 41.93, 306.43 44 M306.43 44 C191.57 43.27, 74.99 45.54, 11 44 M306.43 44 C213.68 43.42, 121.62 42.76, 11 44 M11 44 C3.46 43.79, 1.24 41.49, 0 33 M11 44 C2.36 43.8, -0.73 39.36, 0 33 M0 33 C0.18 27.52, 0.73 20.37, 0 11 M0 33 C-0.67 23.94, 0.63 16.75, 0 11 M0 11 C0 4.81, 4.79 0.76, 11 0 M0 11 C-0.63 1.38, 2.2 -0.33, 11 0" stroke="#1e1e1e" stroke-width="2" fill="none"></path></g><g stroke-linecap="round" transform="translate(925.6083679199219 223) rotate(0 168.39999389648438 22)"><path d="M11 0 C129.3 -0.58, 248.62 -1.83, 325.8 0 M11 0 C106.09 -0.08, 201.84 -0.4, 325.8 0 M325.8 0 C331.5 -0.66, 335.43 2.31, 336.8 11 M325.8 0 C335.08 -0.59, 337.13 3.32, 336.8 11 M336.8 11 C338.43 17.17, 336.78 26.25, 336.8 33 M336.8 11 C337.6 19.41, 336.68 26.73, 336.8 33 M336.8 33 C335.81 40.65, 331.67 45.25, 325.8 44 M336.8 33 C338.21 38.26, 335.28 43.39, 325.8 44 M325.8 44 C227.26 43.52, 127.23 41.45, 11 44 M325.8 44 C248.57 45.62, 169.93 45.63, 11 44 M11 44 C4.91 45.16, -1.14 40.16, 0 33 M11 44 C2.93 43.03, 0.64 41.38, 0 33 M0 33 C0.8 27.81, 1.52 19.77, 0 11 M0 33 C0.84 26.94, 0.13 20.72, 0 11 M0 11 C1.12 4.43, 3.12 -1.99, 11 0 M0 11 C-1.47 3.34, 4.56 0.13, 11 0" stroke="#1e1e1e" stroke-width="2" fill="none"></path></g><g stroke-linecap="round" transform="translate(815.9250183105469 317) rotate(0 278.0833435058594 22)"><path d="M11 0 C206.87 -1.59, 404.23 -0.91, 545.17 0 M11 0 C182.29 -1.08, 352.77 -1.24, 545.17 0 M545.17 0 C551.13 -1.35, 557.86 3.16, 556.17 11 M545.17 0 C552.83 -0.35, 557.62 4.25, 556.17 11 M556.17 11 C556.26 15.28, 557.37 20.06, 556.17 33 M556.17 11 C556.35 19.79, 555.87 28.22, 556.17 33 M556.17 33 C554.7 41.58, 553.73 42.2, 545.17 44 M556.17 33 C558.31 39.72, 552.86 46.02, 545.17 44 M545.17 44 C423.87 45.2, 301.93 45.73, 11 44 M545.17 44 C343.98 43.7, 143.12 43.98, 11 44 M11 44 C2.53 43.83, -0.64 39.49, 0 33 M11 44 C4.31 45.05, 0.4 40.65, 0 33 M0 33 C1.46 25.23, -0.25 14.81, 0 11 M0 33 C-0.16 28.62, 0.41 23.48, 0 11 M0 11 C-0.55 1.68, 2.39 -0.29, 11 0 M0 11 C0.89 3.8, 2 -0.16, 11 0" stroke="#1e1e1e" stroke-width="2" fill="none"></path></g><g stroke-linecap="round" transform="translate(935.2916870117188 411) rotate(0 158.7166748046875 22)"><path d="M11 0 C119.15 1.42, 227.53 0.26, 306.43 0 M11 0 C114.28 -0.4, 218.27 -0.65, 306.43 0 M306.43 0 C315.46 -0.51, 317.72 3.37, 317.43 11 M306.43 0 C315.22 0.59, 315.77 5.47, 317.43 11 M317.43 11 C318.46 14.65, 319.18 22.01, 317.43 33 M317.43 11 C316.94 19.25, 316.7 27.81, 317.43 33 M317.43 33 C318.66 38.53, 315.63 43.47, 306.43 44 M317.43 33 C317.79 42.36, 312.09 45.37, 306.43 44 M306.43 44 C193.12 42.55, 82.51 43.96, 11 44 M306.43 44 C221.76 44.2, 135.74 43.7, 11 44 M11 44 C3.03 43.15, 0.56 41.25, 0 33 M11 44 C4.06 44.32, 1.99 41.29, 0 33 M0 33 C-0.33 23.24, -1.67 17.26, 0 11 M0 33 C0.56 25.98, -0.27 17.2, 0 11 M0 11 C-1.28 3.38, 4.44 0.12, 11 0 M0 11 C-1.67 3.51, 4.9 1.14, 11 0" stroke="#1e1e1e" stroke-width="2" fill="none"></path></g><g stroke-linecap="round" transform="translate(788.183349609375 505) rotate(0 305.82501220703125 22)"><path d="M11 0 C174.93 -1.6, 338.94 -0.98, 600.65 0 M11 0 C191.76 0.51, 373.41 0.68, 600.65 0 M600.65 0 C608.27 -0.3, 612.91 4.18, 611.65 11 M600.65 0 C606.32 1.8, 609.56 3.58, 611.65 11 M611.65 11 C613.52 18.61, 613.12 22.57, 611.65 33 M611.65 11 C610.81 18.8, 612.16 24.44, 611.65 33 M611.65 33 C613.51 39.8, 608.3 45.76, 600.65 44 M611.65 33 C609.98 41.7, 609.84 44.32, 600.65 44 M600.65 44 C463.15 44.74, 324.32 43.91, 11 44 M600.65 44 C429.75 45.33, 259.19 45.2, 11 44 M11 44 C4.22 44.91, 0.35 40.61, 0 33 M11 44 C5.65 44.95, 2.06 42.12, 0 33 M0 33 C-1.48 27.01, 0.75 18.19, 0 11 M0 33 C-0.4 24.15, -0.76 17.14, 0 11 M0 11 C0.78 3.78, 2.22 -0.14, 11 0 M0 11 C1.24 4.81, 1.91 2.27, 11 0" stroke="#1e1e1e" stroke-width="2" fill="none"></path></g><g stroke-linecap="round" transform="translate(206.60833740234375 129) rotate(0 149.98333740234375 22)"><path d="M11 0 C112.59 1.29, 212.69 -0.92, 288.97 0 M11 0 C85.86 1.25, 159.52 1.33, 288.97 0 M288.97 0 C297.56 0.51, 298.52 5.24, 299.97 11 M288.97 0 C294.21 -0.09, 299.13 4.85, 299.97 11 M299.97 11 C301.52 16.52, 300.68 21.12, 299.97 33 M299.97 11 C300.42 17.05, 300.74 24.64, 299.97 33 M299.97 33 C300.28 42.09, 294.85 45.19, 288.97 44 M299.97 33 C301.83 40.65, 294.79 42.79, 288.97 44 M288.97 44 C205.5 45.85, 122.23 46.97, 11 44 M288.97 44 C189.24 43.49, 90.23 44.17, 11 44 M11 44 C4.01 44.28, 1.73 41.16, 0 33 M11 44 C5.73 45.79, 0.84 40.15, 0 33 M0 33 C0.89 27.7, 1.31 23.54, 0 11 M0 33 C-0.58 25.42, 0.45 18.18, 0 11 M0 11 C-1.45 3.53, 4.74 0.99, 11 0 M0 11 C-1.76 5.93, 2.46 0.76, 11 0" stroke="#1e1e1e" stroke-width="2" fill="none"></path></g><g stroke-linecap="round" transform="translate(198.6666717529297 223) rotate(0 157.9250030517578 22)"><path d="M11 0 C94.71 -2.57, 177.71 -2.37, 304.85 0 M11 0 C79.39 0.44, 148.04 0.75, 304.85 0 M304.85 0 C310.73 1.57, 314.03 3.59, 315.85 11 M304.85 0 C311.35 1.19, 314.76 5.68, 315.85 11 M315.85 11 C316.52 18.6, 316.32 26.72, 315.85 33 M315.85 11 C316.92 18.71, 316.14 27.83, 315.85 33 M315.85 33 C314.4 41.52, 313.8 44.28, 304.85 44 M315.85 33 C314.34 39.12, 312.17 45.76, 304.85 44 M304.85 44 C188.88 44.69, 74.08 42.92, 11 44 M304.85 44 C219.47 43.42, 133.8 43.18, 11 44 M11 44 C5.4 44.83, 1.8 41.89, 0 33 M11 44 C4.51 43.82, -1.37 38.61, 0 33 M0 33 C1.06 25.97, 0.68 16.15, 0 11 M0 33 C0.53 28.65, -0.58 24.11, 0 11 M0 11 C1.08 4.66, 2.14 1.97, 11 0 M0 11 C-1.21 4.42, 5.76 1.52, 11 0" stroke="#1e1e1e" stroke-width="2" fill="none"></path></g><g stroke-linecap="round" transform="translate(114.53334045410156 317) rotate(0 242.05833435058594 22)"><path d="M11 0 C177.99 1.11, 344.96 2.53, 473.12 0 M11 0 C138.16 0.44, 264.41 0.68, 473.12 0 M473.12 0 C478.63 -0.08, 483.39 4.7, 484.12 11 M473.12 0 C479.36 2.02, 486.2 5.23, 484.12 11 M484.12 11 C484.5 16.1, 485.42 25.36, 484.12 33 M484.12 11 C484.48 16.5, 483.59 20.83, 484.12 33 M484.12 33 C485.73 40.61, 479.13 42.95, 473.12 44 M484.12 33 C484.11 42.09, 482.62 43.73, 473.12 44 M473.12 44 C339.88 44.8, 205.5 45.03, 11 44 M473.12 44 C354.09 45.04, 235.31 45.17, 11 44 M11 44 C5.46 45.55, 0.73 40.18, 0 33 M11 44 C2.3 42.27, 1.62 41.17, 0 33 M0 33 C0.64 25.85, -2.12 18.53, 0 11 M0 33 C-0.81 26.64, 0.45 20.92, 0 11 M0 11 C-1.53 5.64, 2.62 0.66, 11 0 M0 11 C2.1 5.19, 1.94 1.88, 11 0" stroke="#1e1e1e" stroke-width="2" fill="none"></path></g><g stroke-linecap="round" transform="translate(45 411) rotate(0 311.5916748046875 22)"><path d="M11 0 C141.78 2.32, 273.44 1.76, 612.18 0 M11 0 C182.04 -0.3, 353.29 -0.63, 612.18 0 M612.18 0 C618.79 1.03, 622.23 5.42, 623.18 11 M612.18 0 C621.6 1.56, 623.15 4.26, 623.18 11 M623.18 11 C624.47 17.74, 621.42 23.89, 623.18 33 M623.18 11 C622.49 17.61, 624.03 23.16, 623.18 33 M623.18 33 C621.87 39.28, 619.51 45.53, 612.18 44 M623.18 33 C625.35 40.06, 619.27 43.76, 612.18 44 M612.18 44 C394.45 42.37, 176.52 42.85, 11 44 M612.18 44 C404.69 44.5, 196.87 44.65, 11 44 M11 44 C4.4 43.84, -1.19 38.83, 0 33 M11 44 C5.29 44.84, 0 41.65, 0 33 M0 33 C-2.08 23.88, -0.37 18.1, 0 11 M0 33 C0.7 26.77, -0.61 20.53, 0 11 M0 11 C-1.05 4.33, 5.49 1.32, 11 0 M0 11 C-1.73 5.55, 5.36 -0.36, 11 0" stroke="#1e1e1e" stroke-width="2" fill="none"></path></g><g stroke-linecap="round"><g transform="translate(5450.983833496094 292) rotate(0 24.5 0)"><path d="M1.02 -0.31 C9.35 -0.2, 41.05 -0.28, 49.17 -0.18 M0.09 -1.51 C8.35 -1.15, 40.1 0.71, 48.32 1.26" stroke="#1e1e1e" stroke-width="2" fill="none"></path></g><g transform="translate(5450.983833496094 292) rotate(0 24.5 0)"><path d="M24.82 8.2 C29.8 6.68, 35.46 6.05, 48.32 1.26 M24.82 8.2 C31.61 5.72, 39.81 4.02, 48.32 1.26" stroke="#1e1e1e" stroke-width="2" fill="none"></path></g><g transform="translate(5450.983833496094 292) rotate(0 24.5 0)"><path d="M25.85 -8.52 C30.48 -6.16, 35.9 -2.92, 48.32 1.26 M25.85 -8.52 C32.19 -5.55, 40.05 -1.81, 48.32 1.26" stroke="#1e1e1e" stroke-width="2" fill="none"></path></g></g><mask></mask><g stroke-linecap="round"><g transform="translate(6335.116483886719 292) rotate(0 24.5 0)"><path d="M0.17 -0.18 C8.3 -0.08, 41.76 0.12, 49.76 0.31 M-1.2 -1.32 C6.75 -1.57, 40.58 -1.72, 49.21 -1.65" stroke="#1e1e1e" stroke-width="2" fill="none"></path></g><g transform="translate(6335.116483886719 292) rotate(0 24.5 0)"><path d="M26.18 6.72 C34.76 4.73, 44.43 -1.21, 49.21 -1.65 M26.18 6.72 C34.61 4.07, 43.21 1.26, 49.21 -1.65" stroke="#1e1e1e" stroke-width="2" fill="none"></path></g><g transform="translate(6335.116483886719 292) rotate(0 24.5 0)"><path d="M26.19 -10.04 C34.72 -5.59, 44.38 -5.07, 49.21 -1.65 M26.19 -10.04 C34.46 -6.34, 43.06 -2.81, 49.21 -1.65" stroke="#1e1e1e" stroke-width="2" fill="none"></path></g></g><mask></mask><g stroke-linecap="round"><g transform="translate(6792.650483886719 292) rotate(0 24.5 0)"><path d="M0.76 0.31 C8.75 0.49, 40.27 1, 48.13 0.94 M-0.3 -0.58 C8.05 -0.7, 41.96 -0.99, 50.39 -0.69" stroke="#1e1e1e" stroke-width="2" fill="none"></path></g><g transform="translate(6792.650483886719 292) rotate(0 24.5 0)"><path d="M27.28 7.46 C35.07 3.3, 43.39 0.37, 50.39 -0.69 M27.28 7.46 C33.68 5.8, 41.9 3.19, 50.39 -0.69" stroke="#1e1e1e" stroke-width="2" fill="none"></path></g><g transform="translate(6792.650483886719 292) rotate(0 24.5 0)"><path d="M27.45 -9.3 C35.16 -8.19, 43.43 -5.85, 50.39 -0.69 M27.45 -9.3 C33.74 -5.99, 41.91 -3.64, 50.39 -0.69" stroke="#1e1e1e" stroke-width="2" fill="none"></path></g></g><mask></mask><g stroke-linecap="round"><g transform="translate(2317.500036621094 292) rotate(0 24.5 0)"><path d="M-0.87 0.94 C6.99 0.88, 39.67 0.01, 47.91 -0.05 M0.87 0.39 C9.02 0.51, 42.26 1.77, 50.05 1.47" stroke="#1e1e1e" stroke-width="2" fill="none"></path></g><g transform="translate(2317.500036621094 292) rotate(0 24.5 0)"><path d="M26.97 9.7 C36.9 5.06, 43.63 3.16, 50.05 1.47 M26.97 9.7 C36.03 7.28, 43.22 3.97, 50.05 1.47" stroke="#1e1e1e" stroke-width="2" fill="none"></path></g><g transform="translate(2317.500036621094 292) rotate(0 24.5 0)"><path d="M27.08 -7.06 C37.01 -5.62, 43.7 -1.43, 50.05 1.47 M27.08 -7.06 C36.02 -3.58, 43.17 -1, 50.05 1.47" stroke="#1e1e1e" stroke-width="2" fill="none"></path></g></g><mask></mask><g stroke-linecap="round"><g transform="translate(2637.400036621094 292) rotate(0 24.5 0)"><path d="M-1.09 -0.05 C7.15 -0.1, 40.31 0.44, 48.56 0.62 M0.54 -1.12 C8.65 -1.6, 39.58 -1.24, 47.39 -1.18" stroke="#1e1e1e" stroke-width="2" fill="none"></path></g><g transform="translate(2637.400036621094 292) rotate(0 24.5 0)"><path d="M24.29 7 C29.41 4.62, 35.77 2.53, 47.39 -1.18 M24.29 7 C33.15 3.93, 41.63 0.66, 47.39 -1.18" stroke="#1e1e1e" stroke-width="2" fill="none"></path></g><g transform="translate(2637.400036621094 292) rotate(0 24.5 0)"><path d="M24.44 -9.76 C29.65 -8.33, 35.98 -6.6, 47.39 -1.18 M24.44 -9.76 C33.4 -6.33, 41.81 -3.1, 47.39 -1.18" stroke="#1e1e1e" stroke-width="2" fill="none"></path></g></g><mask></mask><g stroke-linecap="round"><g transform="translate(3544.2337358398436 292) rotate(0 24.5 0)"><path d="M-0.44 0.62 C7.82 0.8, 40.01 1.02, 48.43 1.05 M1.54 -0.1 C9.68 -0.23, 39.12 -0.35, 47.18 -0.52" stroke="#1e1e1e" stroke-width="2" fill="none"></path></g><g transform="translate(3544.2337358398436 292) rotate(0 24.5 0)"><path d="M24.26 8.13 C30.08 5.45, 35.6 6.41, 47.18 -0.52 M24.26 8.13 C32.2 5.05, 40.39 2.33, 47.18 -0.52" stroke="#1e1e1e" stroke-width="2" fill="none"></path></g><g transform="translate(3544.2337358398436 292) rotate(0 24.5 0)"><path d="M24.06 -8.63 C29.92 -7.8, 35.48 -3.34, 47.18 -0.52 M24.06 -8.63 C32.07 -5.54, 40.34 -2.1, 47.18 -0.52" stroke="#1e1e1e" stroke-width="2" fill="none"></path></g></g><mask></mask><g stroke-linecap="round"><g transform="translate(4035.8497358398436 292) rotate(0 24.5 0)"><path d="M-0.57 1.05 C7.85 1.08, 41.83 0.94, 50.09 0.81 M1.33 0.56 C9.73 0.2, 41.9 -1.09, 49.71 -0.88" stroke="#1e1e1e" stroke-width="2" fill="none"></path></g><g transform="translate(4035.8497358398436 292) rotate(0 24.5 0)"><path d="M26.79 7.78 C34.54 7.42, 40.19 3.29, 49.71 -0.88 M26.79 7.78 C33.57 5.55, 42.39 1.2, 49.71 -0.88" stroke="#1e1e1e" stroke-width="2" fill="none"></path></g><g transform="translate(4035.8497358398436 292) rotate(0 24.5 0)"><path d="M26.58 -8.97 C34.48 -4.92, 40.18 -4.63, 49.71 -0.88 M26.58 -8.97 C33.35 -5.75, 42.24 -4.64, 49.71 -0.88" stroke="#1e1e1e" stroke-width="2" fill="none"></path></g></g><mask></mask><g stroke-linecap="round"><g transform="translate(4355.749735839843 292) rotate(0 24.5 0)"><path d="M1.09 0.81 C9.35 0.69, 41.09 0.42, 48.98 0.31 M0.2 0.2 C8.35 0.21, 40.17 -1.88, 48.02 -1.65" stroke="#1e1e1e" stroke-width="2" fill="none"></path></g><g transform="translate(4355.749735839843 292) rotate(0 24.5 0)"><path d="M25.21 7.29 C32.25 4.79, 37.17 1.58, 48.02 -1.65 M25.21 7.29 C33.1 3.42, 40.63 1.23, 48.02 -1.65" stroke="#1e1e1e" stroke-width="2" fill="none"></path></g><g transform="translate(4355.749735839843 292) rotate(0 24.5 0)"><path d="M24.8 -9.47 C32.09 -7.74, 37.11 -6.72, 48.02 -1.65 M24.8 -9.47 C32.7 -8.04, 40.36 -4.94, 48.02 -1.65" stroke="#1e1e1e" stroke-width="2" fill="none"></path></g></g><mask></mask><g stroke-linecap="round"><g transform="translate(1699.9663740234373 173.5) rotate(0 0 24.5)"><path d="M-0.02 0.31 C-0.3 8.37, -0.45 40.95, -0.59 49.19 M-1.49 -0.57 C-1.46 7.03, 1.3 39.11, 1.81 47.17" stroke="#1e1e1e" stroke-width="2" fill="none"></path></g><g transform="translate(1699.9663740234373 173.5) rotate(0 0 24.5)"><path d="M-8.27 24.84 C-3.66 32.58, 0.08 40.82, 1.81 47.17 M-8.27 24.84 C-3.55 32.76, -0.67 42, 1.81 47.17" stroke="#1e1e1e" stroke-width="2" fill="none"></path></g><g transform="translate(1699.9663740234373 173.5) rotate(0 0 24.5)"><path d="M8.44 23.59 C6.53 31.81, 3.74 40.55, 1.81 47.17 M8.44 23.59 C7.12 31.81, 3.94 41.5, 1.81 47.17" stroke="#1e1e1e" stroke-width="2" fill="none"></path></g></g><mask></mask><g stroke-linecap="round"><g transform="translate(1699.9663740234373 267.5) rotate(0 0 24.5)"><path d="M-0.59 0.19 C-0.74 8.43, -1.1 41.8, -0.88 49.75 M1.3 -0.75 C1.53 7.12, 1.53 39.78, 1.37 48.02" stroke="#1e1e1e" stroke-width="2" fill="none"></path></g><g transform="translate(1699.9663740234373 267.5) rotate(0 0 24.5)"><path d="M-6.83 24.94 C-4 30.4, -0.62 39.98, 1.37 48.02 M-6.83 24.94 C-4.74 30.68, -3.9 35.24, 1.37 48.02" stroke="#1e1e1e" stroke-width="2" fill="none"></path></g><g transform="translate(1699.9663740234373 267.5) rotate(0 0 24.5)"><path d="M9.93 25.06 C7.76 30.41, 6.13 39.95, 1.37 48.02 M9.93 25.06 C8.5 30.74, 5.82 35.27, 1.37 48.02" stroke="#1e1e1e" stroke-width="2" fill="none"></path></g></g><mask></mask><g stroke-linecap="round"><g transform="translate(1699.9663740234373 361.5) rotate(0 0 24.5)"><path d="M-0.88 0.75 C-0.66 8.7, 0.41 39.93, 0.74 47.92 M0.86 0.1 C1.04 8.14, 0.16 40.6, 0.18 48.89" stroke="#1e1e1e" stroke-width="2" fill="none"></path></g><g transform="translate(1699.9663740234373 361.5) rotate(0 0 24.5)"><path d="M-7.88 25.75 C-4.57 32.84, -5.61 39.27, 0.18 48.89 M-7.88 25.75 C-6.37 32.6, -2.63 38.47, 0.18 48.89" stroke="#1e1e1e" stroke-width="2" fill="none"></path></g><g transform="translate(1699.9663740234373 361.5) rotate(0 0 24.5)"><path d="M8.88 25.98 C7.98 32.89, 2.75 39.27, 0.18 48.89 M8.88 25.98 C5.81 32.92, 4.97 38.72, 0.18 48.89" stroke="#1e1e1e" stroke-width="2" fill="none"></path></g></g><mask></mask><g stroke-linecap="round"><g transform="translate(1094.0083496093748 79.5) rotate(0 0 24.5)"><path d="M0.74 -1.08 C1.07 6.91, 1.21 40.16, 1.12 48.68 M-0.33 0.97 C0.01 9.06, 0.78 42.16, 0.76 50.05" stroke="#1e1e1e" stroke-width="2" fill="none"></path></g><g transform="translate(1094.0083496093748 79.5) rotate(0 0 24.5)"><path d="M-7.91 27.13 C-7.6 34.14, -4.37 37.79, 0.76 50.05 M-7.91 27.13 C-3.91 36.11, -2.01 44.34, 0.76 50.05" stroke="#1e1e1e" stroke-width="2" fill="none"></path></g><g transform="translate(1094.0083496093748 79.5) rotate(0 0 24.5)"><path d="M8.84 26.92 C5.35 34.08, 4.78 37.78, 0.76 50.05 M8.84 26.92 C6.35 36.08, 1.74 44.39, 0.76 50.05" stroke="#1e1e1e" stroke-width="2" fill="none"></path></g></g><mask></mask><g stroke-linecap="round"><g transform="translate(1094.0083496093748 173.5) rotate(0 0 24.5)"><path d="M1.12 -0.32 C1.03 8.2, 0.52 41.72, 0.19 50.06 M0.25 -1.53 C-0.05 6.77, -0.88 40.27, -0.66 48.49" stroke="#1e1e1e" stroke-width="2" fill="none"></path></g><g transform="translate(1094.0083496093748 173.5) rotate(0 0 24.5)"><path d="M-8.96 25.44 C-6.7 34.01, -1.41 40.57, -0.66 48.49 M-8.96 25.44 C-6.45 33.19, -2.81 42.77, -0.66 48.49" stroke="#1e1e1e" stroke-width="2" fill="none"></path></g><g transform="translate(1094.0083496093748 173.5) rotate(0 0 24.5)"><path d="M7.8 25.49 C4 34.2, 3.23 40.74, -0.66 48.49 M7.8 25.49 C4.28 33.25, 1.9 42.8, -0.66 48.49" stroke="#1e1e1e" stroke-width="2" fill="none"></path></g></g><mask></mask><g stroke-linecap="round"><g transform="translate(1094.0083496093748 267.5) rotate(0 0 24.5)"><path d="M0.19 1.06 C-0.14 9.39, -1 41.7, -0.87 49.71 M-1.17 0.56 C-1.23 8.59, 1.07 39.63, 1.38 47.97" stroke="#1e1e1e" stroke-width="2" fill="none"></path></g><g transform="translate(1094.0083496093748 267.5) rotate(0 0 24.5)"><path d="M-8.28 25.45 C-2.78 32.84, 0.45 44.76, 1.38 47.97 M-8.28 25.45 C-5.4 33.34, -1.42 39.52, 1.38 47.97" stroke="#1e1e1e" stroke-width="2" fill="none"></path></g><g transform="translate(1094.0083496093748 267.5) rotate(0 0 24.5)"><path d="M8.45 24.51 C7.37 32.29, 4.02 44.59, 1.38 47.97 M8.45 24.51 C6.07 32.6, 4.8 39.08, 1.38 47.97" stroke="#1e1e1e" stroke-width="2" fill="none"></path></g></g><mask></mask><g stroke-linecap="round"><g transform="translate(1094.0083496093748 361.5) rotate(0 0 24.5)"><path d="M-0.87 0.71 C-0.74 8.73, 0.96 41.23, 0.97 49.17 M0.87 0.04 C0.91 8.8, 0.4 42.57, 0.53 50.79" stroke="#1e1e1e" stroke-width="2" fill="none"></path></g><g transform="translate(1094.0083496093748 361.5) rotate(0 0 24.5)"><path d="M-7.81 27.76 C-3.78 36.71, -2.06 41.05, 0.53 50.79 M-7.81 27.76 C-4.81 33.28, -3.79 38.99, 0.53 50.79" stroke="#1e1e1e" stroke-width="2" fill="none"></path></g><g transform="translate(1094.0083496093748 361.5) rotate(0 0 24.5)"><path d="M8.95 27.78 C7.68 36.6, 4.12 40.94, 0.53 50.79 M8.95 27.78 C7.81 33.42, 4.68 39.13, 0.53 50.79" stroke="#1e1e1e" stroke-width="2" fill="none"></path></g></g><mask></mask><g stroke-linecap="round"><g transform="translate(1094.0083496093748 455.5) rotate(0 0 24.5)"><path d="M0.97 0.17 C0.98 8.11, -0.63 40.08, -0.79 48.37 M0.02 -0.79 C0.49 7.24, 1.64 41.43, 1.51 49.58" stroke="#1e1e1e" stroke-width="2" fill="none"></path></g><g transform="translate(1094.0083496093748 455.5) rotate(0 0 24.5)"><path d="M-7.18 26.67 C-4.79 30.49, -4.14 37, 1.51 49.58 M-7.18 26.67 C-3.8 35.2, 0.2 44.51, 1.51 49.58" stroke="#1e1e1e" stroke-width="2" fill="none"></path></g><g transform="translate(1094.0083496093748 455.5) rotate(0 0 24.5)"><path d="M9.58 26.44 C8.16 30.45, 5 37.02, 1.51 49.58 M9.58 26.44 C6.65 35.04, 4.34 44.43, 1.51 49.58" stroke="#1e1e1e" stroke-width="2" fill="none"></path></g></g><mask></mask><g stroke-linecap="round"><g transform="translate(356.59199999999964 173.5) rotate(0 0 24.5)"><path d="M-0.36 -0.29 C-0.44 7.94, -0.15 41.22, 0 49.42 M0.45 0.75 C0.27 8.82, -0.43 40.55, -0.43 48.67" stroke="#1e1e1e" stroke-width="2" fill="none"></path></g><g transform="translate(356.59199999999964 173.5) rotate(0 0 24.5)"><path d="M-8.52 25.54 C-5.95 34.38, -1.58 44.13, -0.43 48.67 M-8.52 25.54 C-5.89 32.5, -4.16 38.83, -0.43 48.67" stroke="#1e1e1e" stroke-width="2" fill="none"></path></g><g transform="translate(356.59199999999964 173.5) rotate(0 0 24.5)"><path d="M8.24 25.76 C4.43 34.45, 2.41 44.13, -0.43 48.67 M8.24 25.76 C6.04 32.65, 2.94 38.92, -0.43 48.67" stroke="#1e1e1e" stroke-width="2" fill="none"></path></g></g><mask></mask><g stroke-linecap="round"><g transform="translate(356.59199999999964 267.5) rotate(0 0 24.5)"><path d="M0 0.92 C0.32 9.17, 1.15 40.87, 1.13 48.86 M-1.47 0.36 C-1.14 8.85, 0.69 42.03, 0.77 50.32" stroke="#1e1e1e" stroke-width="2" fill="none"></path></g><g transform="translate(356.59199999999964 267.5) rotate(0 0 24.5)"><path d="M-8.42 27.61 C-4.86 34.81, -4.47 38.04, 0.77 50.32 M-8.42 27.61 C-6.19 34.04, -3.28 40.28, 0.77 50.32" stroke="#1e1e1e" stroke-width="2" fill="none"></path></g><g transform="translate(356.59199999999964 267.5) rotate(0 0 24.5)"><path d="M8.33 27.01 C7.97 34.36, 4.43 37.72, 0.77 50.32 M8.33 27.01 C5.72 33.72, 3.78 40.13, 0.77 50.32" stroke="#1e1e1e" stroke-width="2" fill="none"></path></g></g><mask></mask><g stroke-linecap="round"><g transform="translate(356.59199999999964 361.5) rotate(0 0 24.5)"><path d="M1.13 -0.14 C1.11 7.85, -0.06 40.57, -0.13 48.87 M0.26 -1.26 C0.07 6.84, -1.16 42.18, -1.14 50.34" stroke="#1e1e1e" stroke-width="2" fill="none"></path></g><g transform="translate(356.59199999999964 361.5) rotate(0 0 24.5)"><path d="M-9.07 27.16 C-6.75 33.82, -4.35 42.22, -1.14 50.34 M-9.07 27.16 C-6.68 35.04, -3.25 44.22, -1.14 50.34" stroke="#1e1e1e" stroke-width="2" fill="none"></path></g><g transform="translate(356.59199999999964 361.5) rotate(0 0 24.5)"><path d="M7.69 27.49 C4.98 34.21, 2.36 42.51, -1.14 50.34 M7.69 27.49 C4.08 35.24, 1.52 44.3, -1.14 50.34" stroke="#1e1e1e" stroke-width="2" fill="none"></path></g></g><mask></mask><g transform="translate(266.43334197998047 109) rotate(0 90.15833282470703 12.5)"><text x="90.15833282470703" y="0" font-family="Virgil, Segoe UI Emoji" font-size="20px" fill="#1e1e1e" text-anchor="middle" style="white-space: pre;" direction="ltr" dominant-baseline="text-before-edge">PasswordRetrieval</text></g><g transform="translate(989.9916915893555 15) rotate(0 104.01667022705078 12.5)"><text x="104.01667022705078" y="0" font-family="Virgil, Segoe UI Emoji" font-size="20px" fill="#1e1e1e" text-anchor="middle" style="white-space: pre;" direction="ltr" dominant-baseline="text-before-edge">PasswordManagement</text></g><g transform="translate(1634.6667022705078 109) rotate(0 65.30000305175781 12.5)"><text x="65.30000305175781" y="0" font-family="Virgil, Segoe UI Emoji" font-size="20px" fill="#1e1e1e" text-anchor="middle" style="white-space: pre;" direction="ltr" dominant-baseline="text-before-edge">Authorization</text></g><g transform="translate(3379.5417709350586 215) rotate(0 70.54166412353516 12.5)"><text x="70.54166412353516" y="0" font-family="Virgil, Segoe UI Emoji" font-size="20px" fill="#1e1e1e" text-anchor="middle" style="white-space: pre;" direction="ltr" dominant-baseline="text-before-edge">Authentication</text></g><g transform="translate(3962.6167221069336 240) rotate(0 103.7750015258789 12.5)"><text x="103.7750015258789" y="0" font-family="Virgil, Segoe UI Emoji" font-size="20px" fill="#1e1e1e" text-anchor="middle" style="white-space: pre;" direction="ltr" dominant-baseline="text-before-edge">MasterPasswordAuth</text></g><g transform="translate(2535.4583854675293 240) rotate(0 55.95000076293945 12.5)"><text x="55.95000076293945" y="0" font-family="Virgil, Segoe UI Emoji" font-size="20px" fill="#1e1e1e" text-anchor="middle" style="white-space: pre;" direction="ltr" dominant-baseline="text-before-edge">ShardsAuth</text></g><g transform="translate(6082.100135803223 215) rotate(0 67.9749984741211 12.5)"><text x="67.9749984741211" y="0" font-family="Virgil, Segoe UI Emoji" font-size="20px" fill="#1e1e1e" text-anchor="middle" style="white-space: pre;" direction="ltr" dominant-baseline="text-before-edge">ClientCreation</text></g><g transform="translate(6501.041793823242 240) rotate(0 80.94166564941406 12.5)"><text x="80.94166564941406" y="0" font-family="Virgil, Segoe UI Emoji" font-size="20px" fill="#1e1e1e" text-anchor="middle" style="white-space: pre;" direction="ltr" dominant-baseline="text-before-edge">MasterPassword</text></g><g transform="translate(5393.858493804932 240) rotate(0 33.11666488647461 12.5)"><text x="33.11666488647461" y="0" font-family="Virgil, Segoe UI Emoji" font-size="20px" fill="#1e1e1e" text-anchor="middle" style="white-space: pre;" direction="ltr" dominant-baseline="text-before-edge">Shards</text></g><g transform="translate(5079.6751708984375 279.5) rotate(0 168.35000610351562 12.5)"><text x="168.35000610351562" y="0" font-family="Virgil, Segoe UI Emoji" font-size="20px" fill="#1e1e1e" text-anchor="middle" style="white-space: pre;" direction="ltr" dominant-baseline="text-before-edge">Generate Kyber and Dilithium keys</text></g><g transform="translate(5525.133514404297 279.5) rotate(0 129.3000030517578 12.5)"><text x="129.3000030517578" y="0" font-family="Virgil, Segoe UI Emoji" font-size="20px" fill="#1e1e1e" text-anchor="middle" style="white-space: pre;" direction="ltr" dominant-baseline="text-before-edge">Send public keys to server</text></g><g transform="translate(5941.058486938477 279.5) rotate(0 180.44166564941406 12.5)"><text x="180.44166564941406" y="0" font-family="Virgil, Segoe UI Emoji" font-size="20px" fill="#1e1e1e" text-anchor="middle" style="white-space: pre;" direction="ltr" dominant-baseline="text-before-edge">Hash master password with Argon2id</text></g><g transform="translate(6404.691818237305 279.5) rotate(0 183.69166564941406 12.5)"><text x="183.69166564941406" y="0" font-family="Virgil, Segoe UI Emoji" font-size="20px" fill="#1e1e1e" text-anchor="middle" style="white-space: pre;" direction="ltr" dominant-baseline="text-before-edge">Use Argon2 output as seed for keys</text></g><g transform="translate(6868.008483886719 279.5) rotate(0 180.85833740234375 12.5)"><text x="180.85833740234375" y="0" font-family="Virgil, Segoe UI Emoji" font-size="20px" fill="#1e1e1e" text-anchor="middle" style="white-space: pre;" direction="ltr" dominant-baseline="text-before-edge">Store public keys and salt on server</text></g><g transform="translate(2038.5083618164062 279.5) rotate(0 132.7916717529297 12.5)"><text x="132.7916717529297" y="0" font-family="Virgil, Segoe UI Emoji" font-size="20px" fill="#1e1e1e" text-anchor="middle" style="white-space: pre;" direction="ltr" dominant-baseline="text-before-edge">Require at least 3 shards</text></g><g transform="translate(2391.908363342285 279.5) rotate(0 110.04166412353516 12.5)"><text x="110.04166412353516" y="0" font-family="Virgil, Segoe UI Emoji" font-size="20px" fill="#1e1e1e" text-anchor="middle" style="white-space: pre;" direction="ltr" dominant-baseline="text-before-edge">Server sends challenge</text></g><g transform="translate(2731.258346557617 279.5) rotate(0 190.8000030517578 12.5)"><text x="190.8000030517578" y="0" font-family="Virgil, Segoe UI Emoji" font-size="20px" fill="#1e1e1e" text-anchor="middle" style="white-space: pre;" direction="ltr" dominant-baseline="text-before-edge">Client signs challenge with Dilithium key</text></g><g transform="translate(3278.2333984375 279.5) rotate(0 122.24166870117188 12.5)"><text x="122.24166870117188" y="0" font-family="Virgil, Segoe UI Emoji" font-size="20px" fill="#1e1e1e" text-anchor="middle" style="white-space: pre;" direction="ltr" dominant-baseline="text-before-edge">Receive salt from server</text></g><g transform="translate(3628.5667266845703 279.5) rotate(0 185.97500610351562 12.5)"><text x="185.97500610351562" y="0" font-family="Virgil, Segoe UI Emoji" font-size="20px" fill="#1e1e1e" text-anchor="middle" style="white-space: pre;" direction="ltr" dominant-baseline="text-before-edge">Reconstitute Kyber and Dilithium keys</text></g><g transform="translate(4110.258399963379 279.5) rotate(0 110.04166412353516 12.5)"><text x="110.04166412353516" y="0" font-family="Virgil, Segoe UI Emoji" font-size="20px" fill="#1e1e1e" text-anchor="middle" style="white-space: pre;" direction="ltr" dominant-baseline="text-before-edge">Server sends challenge</text></g><g transform="translate(4449.608383178711 279.5) rotate(0 190.8000030517578 12.5)"><text x="190.8000030517578" y="0" font-family="Virgil, Segoe UI Emoji" font-size="20px" fill="#1e1e1e" text-anchor="middle" style="white-space: pre;" direction="ltr" dominant-baseline="text-before-edge">Client signs challenge with Dilithium key</text></g><g transform="translate(1573.0083694458008 138.5) rotate(0 126.95833587646484 12.5)"><text x="126.95833587646484" y="0" font-family="Virgil, Segoe UI Emoji" font-size="20px" fill="#1e1e1e" text-anchor="middle" style="white-space: pre;" direction="ltr" dominant-baseline="text-before-edge">Successful authentication</text></g><g transform="translate(1549.8333740234375 232.5) rotate(0 150.13333129882812 12.5)"><text x="150.13333129882812" y="0" font-family="Virgil, Segoe UI Emoji" font-size="20px" fill="#1e1e1e" text-anchor="middle" style="white-space: pre;" direction="ltr" dominant-baseline="text-before-edge">Server encapsulates public key</text></g><g transform="translate(1577.0083694458008 326.5) rotate(0 122.95833587646484 12.5)"><text x="122.95833587646484" y="0" font-family="Virgil, Segoe UI Emoji" font-size="20px" fill="#1e1e1e" text-anchor="middle" style="white-space: pre;" direction="ltr" dominant-baseline="text-before-edge">Send ciphertext to client</text></g><g transform="translate(1548.9417114257812 420.5) rotate(0 151.02499389648438 12.5)"><text x="151.02499389648438" y="0" font-family="Virgil, Segoe UI Emoji" font-size="20px" fill="#1e1e1e" text-anchor="middle" style="white-space: pre;" direction="ltr" dominant-baseline="text-before-edge">Client decapsulates ciphertext</text></g><g transform="translate(894.9000244140625 44.5) rotate(0 199.10833740234375 12.5)"><text x="199.10833740234375" y="0" font-family="Virgil, Segoe UI Emoji" font-size="20px" fill="#1e1e1e" text-anchor="middle" style="white-space: pre;" direction="ltr" dominant-baseline="text-before-edge">Encrypt password with Kyber private key</text></g><g transform="translate(962.61669921875 138.5) rotate(0 131.39166259765625 12.5)"><text x="131.39166259765625" y="0" font-family="Virgil, Segoe UI Emoji" font-size="20px" fill="#1e1e1e" text-anchor="middle" style="white-space: pre;" direction="ltr" dominant-baseline="text-before-edge">Pipe into XChaChaPoly1305</text></g><g transform="translate(946.1416931152344 232.5) rotate(0 147.86666870117188 12.5)"><text x="147.86666870117188" y="0" font-family="Virgil, Segoe UI Emoji" font-size="20px" fill="#1e1e1e" text-anchor="middle" style="white-space: pre;" direction="ltr" dominant-baseline="text-before-edge">Send nonce to server via TLS</text></g><g transform="translate(850.4750213623047 326.5) rotate(0 243.53334045410156 12.5)"><text x="243.53334045410156" y="0" font-family="Virgil, Segoe UI Emoji" font-size="20px" fill="#1e1e1e" text-anchor="middle" style="white-space: pre;" direction="ltr" dominant-baseline="text-before-edge">Encrypt password with shared secret and Blake3</text></g><g transform="translate(962.61669921875 420.5) rotate(0 131.39166259765625 12.5)"><text x="131.39166259765625" y="0" font-family="Virgil, Segoe UI Emoji" font-size="20px" fill="#1e1e1e" text-anchor="middle" style="white-space: pre;" direction="ltr" dominant-baseline="text-before-edge">Pipe into XChaChaPoly1305</text></g><g transform="translate(834.0250244140625 514.5) rotate(0 259.98333740234375 12.5)"><text x="259.98333740234375" y="0" font-family="Virgil, Segoe UI Emoji" font-size="20px" fill="#1e1e1e" text-anchor="middle" style="white-space: pre;" direction="ltr" dominant-baseline="text-before-edge">Send nonce and doubly encrypted password to server</text></g><g transform="translate(230.4666748046875 138.5) rotate(0 126.125 12.5)"><text x="126.125" y="0" font-family="Virgil, Segoe UI Emoji" font-size="20px" fill="#1e1e1e" text-anchor="middle" style="white-space: pre;" direction="ltr" dominant-baseline="text-before-edge">Server decrypts password</text></g><g transform="translate(222.8833465576172 232.5) rotate(0 133.7083282470703 12.5)"><text x="133.7083282470703" y="0" font-family="Virgil, Segoe UI Emoji" font-size="20px" fill="#1e1e1e" text-anchor="middle" style="white-space: pre;" direction="ltr" dominant-baseline="text-before-edge">Encrypt with shared secret</text></g><g transform="translate(153.56668090820312 326.5) rotate(0 203.02499389648438 12.5)"><text x="203.02499389648438" y="0" font-family="Virgil, Segoe UI Emoji" font-size="20px" fill="#1e1e1e" text-anchor="middle" style="white-space: pre;" direction="ltr" dominant-baseline="text-before-edge">Send doubly encrypted password to client</text></g><g transform="translate(89.933349609375 420.5) rotate(0 266.6583251953125 12.5)"><text x="266.6583251953125" y="0" font-family="Virgil, Segoe UI Emoji" font-size="20px" fill="#1e1e1e" text-anchor="middle" style="white-space: pre;" direction="ltr" dominant-baseline="text-before-edge">Client decrypts twice: shared secret, then private key</text></g></svg>
