<svg version="1.1" xmlns="http://www.w3.org/2000/svg" viewBox="13.9 49.1 2132.4 1291.8">
<rect x="13.9" y="49.1" width="2132.4" height="1291.8" fill="#ffffff" />
<polyline points="117.5 264.0,116.0 265.5,116.8 267.8,117.5 271.6,117.5 275.3,118.3 283.6,118.3 287.3,119.0 290.3,119.0 293.3,119.8 300.9,119.8 303.9,120.5 303.1" style="fill:none;stroke:#000000;stroke-width:2"/>
<polyline points="140.8 251.3,138.6 250.5,136.3 250.5,130.3 252.0,127.3 253.5,123.5 255.0,121.3 258.0,118.3 259.5,116.8 261.8,115.3 263.3,114.5 267.8" style="fill:none;stroke:#000000;stroke-width:2"/>
<polyline points="131.0 282.1,128.0 283.6,124.3 284.3,120.5 284.3,116.8 285.8,116.0 288.1,118.3 290.3" style="fill:none;stroke:#000000;stroke-width:2"/>
<polyline points="164.1 259.5,164.1 261.8,163.3 264.0,163.3 266.3,164.1 273.8,164.1 278.3,166.3 288.1,168.6 291.8,170.1 295.6,170.9 298.6,172.4 300.1,173.9 297.8" style="fill:none;stroke:#000000;stroke-width:2"/>
<polyline points="165.6 257.3,166.3 254.3,167.9 251.3,170.9 249.8,173.1 249.8,176.1 251.3,179.1 253.5,182.1 257.3,185.9 261.0,188.1 264.8,191.1 268.5,192.6 271.6,194.1 273.8,194.9 276.8,194.9 279.1,194.1 281.3,192.6 284.3,190.4 286.6,184.4 291.8,181.4 294.1,178.4 295.6,176.1 296.3,173.1 297.1,170.9 297.1,168.6 297.8" style="fill:none;stroke:#000000;stroke-width:2"/>
<polyline points="127.3 231.0,129.5 231.0,132.5 229.5,136.3 228.0,139.3 228.0,141.6 227.2,144.6 227.2,157.3 228.0" style="fill:none;stroke:#000000;stroke-width:2"/>
<polyline points="164.1 208.4,166.3 208.4,169.4 209.9,172.4 212.2,173.9 213.7,175.4 216.0,176.9 217.5,178.4 219.7,179.9 223.5,179.1 227.2,179.1 229.5,177.6 231.7,176.9 234.0,175.4 236.2,173.9 237.7,171.6 239.2" style="fill:none;stroke:#000000;stroke-width:2"/>
<polyline points="249.7 274.6,247.5 273.8,243.7 273.1,241.5 273.1,231.7 272.3,228.7 272.3,225.7 273.1" style="fill:none;stroke:#000000;stroke-width:2"/>
<polyline points="237.0 288.1,234.0 287.3,228.7 289.6" style="fill:none;stroke:#000000;stroke-width:2"/>
<polyline points="285.8 257.3,284.3 258.8,284.3 262.5,285.1 280.6,286.6 282.1,291.1 279.1" style="fill:none;stroke:#000000;stroke-width:2"/>
<polyline points="315.1 245.3,306.8 244.5,303.8 244.5,294.1 245.3,291.1 245.3,289.6 246.8,288.8 250.5" style="fill:none;stroke:#000000;stroke-width:2"/>
<polyline points="295.6 264.8,291.1 264.0,287.3 264.0,283.6 264.8,280.5 265.5,278.3 266.3,276.8 270.1" style="fill:none;stroke:#000000;stroke-width:2"/>
<polyline points="294.1 222.0,296.3 222.0,299.3 221.2,301.6 221.2,307.6 220.5,311.4 219.7,315.1 219.7,318.9 219.0,321.9 219.0,330.1 219.7,332.4 220.5,334.6 222.0,336.9 222.7,338.4 222.7" style="fill:none;stroke:#000000;stroke-width:2"/>
<polyline points="339.2 211.4,342.9 213.7,345.2 214.5,350.4 216.0,352.7 216.7,354.9 218.2,361.7 223.5,363.2 225.7,363.9 228.0,363.9 230.2,363.2 234.0,361.7 236.2,359.4 237.7,354.9 240.0" style="fill:none;stroke:#000000;stroke-width:2"/>
<polyline points="356.4 252.0,346.7 252.8,344.4 252.8,342.2 253.5,339.9 253.5,336.1 254.3,333.9 255.0,330.9 255.8,327.1 255.8,325.6 254.3" style="fill:none;stroke:#000000;stroke-width:2"/>
<polyline points="342.9 259.5,344.4 261.0,344.4 263.3,345.2 266.3,344.4 270.1,342.9 273.1,340.7 276.1,336.9 280.6,333.9 281.3,330.9 279.1,329.4 277.6,326.4 274.6" style="fill:none;stroke:#000000;stroke-width:2"/>
<polyline points="400.8 240.7,401.5 243.0,400.8 246.0,400.8 248.3,400.0 252.8,399.3 255.8,399.3 258.8,400.0 269.3,400.8 271.6,403.0 267.0" style="fill:none;stroke:#000000;stroke-width:2"/>
<polyline points="407.5 259.5,387.2 260.3,389.5 264.0" style="fill:none;stroke:#000000;stroke-width:2"/>
<polyline points="463.1 237.0,460.1 235.5,457.1 235.5,450.3 236.2,447.3 236.2,436.1 237.0,436.1 238.5" style="fill:none;stroke:#000000;stroke-width:2"/>
<polyline points="448.8 236.2,450.3 240.0,451.1 242.3,452.6 246.0,453.4 248.3,454.9 250.5,455.6 252.8,457.1 259.5,457.1 262.5,455.6 265.5,452.6 267.8,448.8 268.5,446.6 268.5,442.1 267.0,439.8 264.8,439.8 261.8" style="fill:none;stroke:#000000;stroke-width:2"/>
<polyline points="480.4 244.5,480.4 247.5,481.2 255.8,481.9 258.0,482.7 261.8,483.4 264.0,483.4 266.3,485.7 267.8" style="fill:none;stroke:#000000;stroke-width:2"/>
<polyline points="494.7 265.5,492.4 266.3,487.2 267.0,484.2 267.0,478.9 266.3,476.6 266.3,473.6 265.5,471.4 265.5" style="fill:none;stroke:#000000;stroke-width:2"/>
<polyline points="492.4 237.7,490.2 239.2,486.4 240.0,481.2 238.5,478.1 237.0,477.4 234.7" style="fill:none;stroke:#000000;stroke-width:2"/>
<polyline points="451.1 217.5,454.1 216.7,457.1 216.7,459.4 216.0,462.4 216.0,465.4 215.2,475.1 213.0,478.1 213.0,484.9 213.7,487.9 214.5,487.2 216.7" style="fill:none;stroke:#000000;stroke-width:2"/>
<polyline points="487.9 203.9,490.9 203.2,493.2 202.4,496.2 203.2,499.2 205.4,502.2 206.9,504.4 209.2,505.2 211.4,505.2 214.5,502.9 217.5,499.9 216.7,498.4 213.0" style="fill:none;stroke:#000000;stroke-width:2"/>
<polyline points="549.5 239.2,547.3 240.7,546.5 243.8,546.5 246.0,547.3 260.3,548.8 262.5" style="fill:none;stroke:#000000;stroke-width:2"/>
<polyline points="557.0 253.5,551.0 252.8,548.0 252.8,545.0 252.0,542.8 251.3,538.3 250.5,536.0 252.0" style="fill:none;stroke:#000000;stroke-width:2"/>
<polyline points="585.6 233.2,585.6 237.0,586.3 252.8,585.6 253.5" style="fill:none;stroke:#000000;stroke-width:2"/>
<polyline points="594.6 254.3,585.6 253.5,581.8 252.8,575.1 251.3,572.1 251.3,569.8 250.5,566.8 251.3,566.0 253.5" style="fill:none;stroke:#000000;stroke-width:2"/>
<polyline points="602.9 227.2,591.6 226.5,585.6 225.0,579.6 224.2,577.3 224.2,574.3 227.2" style="fill:none;stroke:#000000;stroke-width:2"/>
<polyline points="623.9 233.2,623.1 237.0,622.4 239.2,620.9 243.0,620.9 245.3,620.1 248.3,620.9 251.3,624.7 254.3" style="fill:none;stroke:#000000;stroke-width:2"/>
<polyline points="634.4 233.2,634.4 236.2,633.7 243.0,633.7 245.3,632.9 249.0,632.9 251.3,633.7 254.3,635.9 258.8" style="fill:none;stroke:#000000;stroke-width:2"/>
<polyline points="629.9 245.3,626.9 244.5,623.1 244.5,620.1 243.8,619.4 244.5" style="fill:none;stroke:#000000;stroke-width:2"/>
<polyline points="596.9 209.9,599.9 209.9,602.1 209.2,605.1 209.2,608.9 209.9,611.1 211.4,613.4 212.2,616.4 213.0,620.1 213.7,623.1 214.5,626.9 214.5,629.9 213.0" style="fill:none;stroke:#000000;stroke-width:2"/>
<polyline points="632.2 204.7,635.2 203.9,637.4 203.9,641.2 204.7,644.2 206.2,646.4 208.4,647.9 211.4,648.7 213.7,647.9 216.0,644.9 217.5,641.9 218.2,639.7 219.7" style="fill:none;stroke:#000000;stroke-width:2"/>
<polyline points="680.2 228.7,680.2 231.0,679.5 234.7,679.5 237.0,678.7 239.2,678.7 241.5,678.0 244.5,678.0 248.3,678.7 249.0" style="fill:none;stroke:#000000;stroke-width:2"/>
<polyline points="686.3 245.3,683.3 244.5,681.0 244.5,665.2 244.5" style="fill:none;stroke:#000000;stroke-width:2"/>
<polyline points="717.1 225.0,716.3 227.2,716.3 229.5,717.1 253.5,717.8 252.0" style="fill:none;stroke:#000000;stroke-width:2"/>
<polyline points="728.3 228.0,729.1 231.0,729.1 234.0,729.8 236.2,730.6 241.5,730.6 243.8,731.3 246.8,731.3 249.0,731.3 252.0" style="fill:none;stroke:#000000;stroke-width:2"/>
<polyline points="725.3 238.5,717.1 237.7,714.1 236.2" style="fill:none;stroke:#000000;stroke-width:2"/>
<polyline points="753.1 224.2,753.9 226.5,754.6 230.2,754.6 232.5,755.4 237.7,756.1 240.7,757.6 246.0,757.6 249.0,758.4 252.0,759.1 253.5" style="fill:none;stroke:#000000;stroke-width:2"/>
<polyline points="754.6 226.5,756.9 225.0,760.6 226.5,762.9 227.2,768.2 229.5,771.2 231.0,773.4 232.5,776.4 234.0,777.9 236.2,777.2 239.2,776.4 241.5,774.9 243.0,771.2 246.0,766.6 248.3,763.6 248.3,761.4 249.0,754.6 249.0" style="fill:none;stroke:#000000;stroke-width:2"/>
<polyline points="715.6 209.2,718.6 208.4,722.3 208.4,734.3 207.7,736.6 207.7,740.4 206.9,745.6 206.2" style="fill:none;stroke:#000000;stroke-width:2"/>
<polyline points="745.6 197.9,747.9 199.4,754.6 203.2,756.9 204.7,758.4 206.2,762.1 210.7,762.9 213.0,762.9 215.2,761.4 217.5,759.9 219.0,757.6 219.7,748.6 220.5" style="fill:none;stroke:#000000;stroke-width:2"/>
<polyline points="856.8 188.9,854.6 189.7,853.1 191.2,850.0 193.4,847.8 195.7,844.8 200.2,843.3 203.2,841.8 207.7,839.5 212.2,838.0 217.5,835.8 228.7,835.0 234.0,834.3 238.5,834.3 243.0,835.0 246.8,835.8 249.0,837.3 250.5,841.0 251.3,843.3 250.5,850.8 248.3" style="fill:none;stroke:#000000;stroke-width:2"/>
<polyline points="876.3 209.2,873.3 211.4,871.1 212.2,868.8 213.7,867.3 215.2,864.3 219.0,862.8 222.0,862.1 225.0,862.1 228.0,862.8 234.7,865.1 240.7,866.6 243.0,868.1 244.5,871.8 246.0,874.1 246.0,877.1 245.3,883.1 240.7" style="fill:none;stroke:#000000;stroke-width:2"/>
<polyline points="896.6 202.4,896.6 206.9,897.4 209.9,897.4 213.0,896.6 238.5,896.6 242.3,895.9 249.0,895.9 245.3,896.6 243.0,897.4 240.0,898.1 236.2,898.1 233.2,898.9 231.0,899.6 228.0,901.1 225.7,903.4 225.0,906.4 226.5,908.6 228.7,909.4 231.7,909.4 234.7,908.6 240.0,907.1 241.5" style="fill:none;stroke:#000000;stroke-width:2"/>
<polyline points="922.9 228.7,916.9 229.5,913.9 231.7,912.4 233.2,911.7 235.5,910.2 241.5,911.7 243.8,914.7 242.3,916.9 239.2,918.4 237.0,919.9 234.0,920.7 236.2,921.4 240.0,921.4 242.3,922.2 244.5,924.4 246.8,927.4 246.8,930.4 241.5" style="fill:none;stroke:#000000;stroke-width:2"/>
<polyline points="938.7 194.2,940.2 195.7,938.7 198.7,937.2 200.2,934.2 205.4,932.7 208.4,932.7 212.2,931.9 216.0,931.9 219.7,932.7 223.5,932.7 227.2,933.4 230.2,934.2 234.0,934.9 236.2,935.7 239.2,936.4 241.5,939.5 244.5" style="fill:none;stroke:#000000;stroke-width:2"/>
<polyline points="944.0 232.5,946.2 231.7,948.5 230.2,950.0 227.2,950.0 224.2,947.7 224.2,945.5 225.7,944.0 227.2,941.7 230.2,941.0 234.0,941.7 237.0,943.2 239.2,946.2 240.0,948.5 240.0,952.2 238.5,955.2 236.2,956.7 234.0,956.7 231.7,956.0 227.2,956.0 224.2,956.7 217.5,958.2 219.7,961.2 222.7,966.5 227.2,968.8 229.5,970.3 231.7,973.3 237.0,974.0 241.5,973.3 245.3,971.0 246.8,967.3 246.8,964.2 241.5" style="fill:none;stroke:#000000;stroke-width:2"/>
<polyline points="981.5 195.7,983.0 197.9,986.0 201.7,988.3 206.2,989.8 209.9,990.5 214.5,991.3 219.7,991.3 225.0,990.5 231.7,989.0 238.5,986.8 245.3,981.5 258.0,974.8 269.3" style="fill:none;stroke:#000000;stroke-width:2"/>
<polyline points="111.4 84.9,109.7 82.4,105.6 80.7,102.3 79.9,96.5 80.7,94.0 82.4,91.5 83.2,88.2 84.9,84.9 87.3,82.4 89.8,75.8 97.2,75.0 99.7,74.2 103.0,74.2 105.5,73.3 124.5,73.3 128.7,74.2 136.9,75.0 140.2,77.5 143.5,79.9 144.4,82.4 144.4,89.0 143.5,93.2 141.9,96.5 140.2,102.3 136.1,103.9 134.4,105.6 131.1" style="fill:none;stroke:#000000;stroke-width:2"/>
<polyline points="94.0 117.9,77.5 118.7,74.2 119.6,75.0 122.9" style="fill:none;stroke:#000000;stroke-width:2"/>
<polyline points="108.9 121.2,111.4 119.6,113.8 117.1,116.3 117.1,118.8 119.6,119.6 122.9,119.6 125.3,117.1 132.0,115.5 133.6,111.4 136.1,108.0 137.7,104.7 138.6" style="fill:none;stroke:#000000;stroke-width:2"/>
<polyline points="127.9 127.8,126.2 126.2,123.7 127.0,121.3 129.5,119.6 132.0,118.8 134.4,119.6 137.7,122.9 139.4,127.9 141.0,130.4 141.0,135.3 140.2,139.5 139.4,142.8 137.7,144.4 135.3" style="fill:none;stroke:#000000;stroke-width:2"/>
<polyline points="151.8 127.8,153.5 126.2,155.2 122.9,155.2 120.4,152.7 119.6,151.0 121.2,148.5 125.3,146.9 128.7,146.9 132.0,148.5 134.4,153.5 134.4,157.6 133.6,160.9 134.4,163.4 134.4,167.6 133.6,168.4 131.1,167.6 128.7,167.6 125.3,168.4 120.4,170.9 120.4,177.5 121.2,179.9 123.7,178.3 128.7,176.6 132.8,175.8 136.1,176.6 138.6,179.1 136.9,184.1 134.4" style="fill:none;stroke:#000000;stroke-width:2"/>
<polyline points="197.3 127.0,197.3 123.7,193.2 123.7,191.5 125.3,188.2 129.5,187.4 133.6,188.2 136.9,190.7 139.4,194.8 141.9,197.3 142.7,201.4 142.7,203.9 141.9,207.2 139.4,209.7 134.4" style="fill:none;stroke:#000000;stroke-width:2"/>
<polyline points="213.0 121.2,213.0 125.3,213.8 127.8,214.7 131.1,218.0 131.1" style="fill:none;stroke:#000000;stroke-width:2"/>
<polyline points="211.4 89.0,212.2 92.3,213.0 98.1" style="fill:none;stroke:#000000;stroke-width:2"/>
<polyline points="232.8 117.1,234.5 114.6,232.0 115.4,229.5 117.1,227.9 119.6,227.1 123.7,227.9 127.0,229.5 129.5,232.0 131.1,235.3 130.3,237.8 129.5,241.1 127.0,243.6 126.2,251.0 124.5" style="fill:none;stroke:#000000;stroke-width:2"/>
<polyline points="255.2 119.6,251.8 117.1,249.4 118.7,248.5 122.9,248.5 125.3,249.4 127.8,251.8 131.1,256.0 131.1,258.5 130.3,260.9 128.7,265.9 124.5,268.4 122.0,274.2 117.9" style="fill:none;stroke:#000000;stroke-width:2"/>
<polyline points="284.1 89.0,283.3 93.9,283.3 97.2,282.4 99.7,282.4 103.0,283.3 114.6,284.9 117.1,286.6 115.4,289.0 111.3" style="fill:none;stroke:#000000;stroke-width:2"/>
<polyline points="294.0 104.7,294.0 107.2,293.2 111.3,293.2 114.6,294.0 120.4,294.8 122.9,296.5 127.0,299.0 129.5" style="fill:none;stroke:#000000;stroke-width:2"/>
<polyline points="251.2 374.4,247.9 376.1,245.4 376.1,232.2 376.9,229.7 377.7,226.4 378.5,223.1 378.5" style="fill:none;stroke:#000000;stroke-width:2"/>
<polyline points="244.6 397.5,228.0 398.4,223.9 400.0" style="fill:none;stroke:#000000;stroke-width:2"/>
<polyline points="295.0 389.3,297.5 388.5,300.8 386.8,303.2 384.3,305.7 381.0,307.4 379.4,311.5 374.4,313.2 372.8,317.3 367.8,319.8 365.3,321.4 362.0,323.1 360.4,325.6 357.1,325.6 360.4,324.7 363.7,322.2 369.4,320.6 372.8,319.8 376.1,318.1 379.4,315.6 385.2,314.8 388.5,314.0 390.9,312.3 395.1,311.5 397.5,312.3 398.4" style="fill:none;stroke:#000000;stroke-width:2"/>
<polyline points="323.1 412.4,317.3 411.6,314.0 411.6,306.5 412.4,302.4 412.4,298.3 413.3,295.8 414.9,292.5 415.7,290.0 417.4,287.5 419.9,285.9 424.0" style="fill:none;stroke:#000000;stroke-width:2"/>
<polyline points="295.8 440.5,296.6 437.2,297.5 434.7,299.1 433.1,302.4 431.4,305.7 434.7,305.7 438.0,304.9 443.0,303.2 445.5,302.4 448.8,299.9 453.7,299.1 456.2,297.5 460.4,300.8 460.4,304.9 457.9,307.4 456.2,309.0 454.6,312.3 452.9,318.1 448.8" style="fill:none;stroke:#000000;stroke-width:2"/>
<polyline points="361.9 359.5,361.1 362.8,360.3 365.3,360.3 369.4,359.4 371.9,359.4 375.2,358.6 381.8,358.6 385.2,357.8 391.8,357.8 395.1,358.6 400.0,360.3 397.5" style="fill:none;stroke:#000000;stroke-width:2"/>
<polyline points="384.2 353.7,381.8 354.6,377.6 355.4,375.1 355.4,371.8 356.2,369.4 357.1,366.0 357.9,363.6 358.7,359.4 360.4,356.1 362.0,356.1 364.5" style="fill:none;stroke:#000000;stroke-width:2"/>
<polyline points="366.0 383.5,361.9 384.3,356.1 385.2,353.7 386.0" style="fill:none;stroke:#000000;stroke-width:2"/>
<polyline points="409.0 355.4,406.5 356.2,404.1 358.7,399.1 364.5,397.5 366.1,396.6 368.6,394.1 375.2,393.3 377.7,393.3 380.2,392.5 382.7,392.5 385.2,393.3 393.4,395.0 395.1,399.1 395.1,401.6 394.2,404.9 392.6,407.4 390.1,409.0 387.6,409.0 385.2,408.2 382.7,405.7 381.8,402.4 381.0,397.5 380.2,395.0 379.4,395.8 381.0" style="fill:none;stroke:#000000;stroke-width:2"/>
<polyline points="361.9 339.7,364.4 338.0,369.4 335.6,373.5 333.9,376.8 333.1,379.3 333.1,389.2 333.9,393.3 333.9,398.3 333.1,404.9 329.0" style="fill:none;stroke:#000000;stroke-width:2"/>
<polyline points="404.9 325.6,406.5 327.3,411.5 327.3,414.8 328.1,418.9 330.6,422.2 333.1,423.1 336.4,422.2 339.7,421.4 342.2,419.8 344.7,418.1 346.3,410.7 352.9" style="fill:none;stroke:#000000;stroke-width:2"/>
<polyline points="448.7 344.7,447.0 347.1,446.2 351.3,446.2 353.7,445.4 368.6,445.4 371.9,446.2 377.7,449.5 378.5" style="fill:none;stroke:#000000;stroke-width:2"/>
<polyline points="456.1 371.9,449.5 371.1,446.2 371.1,442.9 371.9,439.6 371.9,437.1 372.8,433.8 374.4,431.3 377.7" style="fill:none;stroke:#000000;stroke-width:2"/>
<polyline points="511.5 334.7,508.2 336.4,505.7 337.2,500.8 338.0,498.3 338.0,492.5 338.9,489.2 340.5,487.5 341.3" style="fill:none;stroke:#000000;stroke-width:2"/>
<polyline points="506.5 348.0,508.2 350.4,509.9 353.7,509.9 357.1,509.0 365.3,508.2 369.4,506.5 371.1,498.3 378.5,495.8 379.4,492.5 380.2,489.2 378.5,485.9 376.1,484.2 374.4,483.4 371.1,482.6 368.6,484.2 367.0" style="fill:none;stroke:#000000;stroke-width:2"/>
<polyline points="537.9 337.2,537.9 339.7,537.1 351.3,537.1 353.7,536.3 357.1,536.3 359.5,535.5 362.0,533.8 368.6,535.5 367.8" style="fill:none;stroke:#000000;stroke-width:2"/>
<polyline points="548.7 368.6,536.3 369.4,533.0 369.4,519.8 368.6" style="fill:none;stroke:#000000;stroke-width:2"/>
<polyline points="551.2 328.1,547.0 327.3,543.7 327.3,541.3 328.1,533.0 330.6,530.5 331.4,527.2 332.3,524.7 333.9,522.2 334.7,518.1 336.4,516.5 336.4" style="fill:none;stroke:#000000;stroke-width:2"/>
<polyline points="495.8 318.2,499.1 316.6,502.4 315.7,507.4 314.1,509.9 314.1,513.2 313.3,518.9 312.4,523.1 312.4,528.9 311.6,533.0 310.8,536.3 309.1,538.8 307.5" style="fill:none;stroke:#000000;stroke-width:2"/>
<polyline points="542.1 298.4,544.6 299.2,547.9 300.0,549.5 302.5,552.0 305.8,552.8 308.3,554.5 312.4,554.5 315.7,552.8 319.0,549.5 322.3" style="fill:none;stroke:#000000;stroke-width:2"/>
<polyline points="588.4 336.4,589.2 339.7,589.2 343.0,590.0 363.7,591.7 361.2,592.5 358.7" style="fill:none;stroke:#000000;stroke-width:2"/>
<polyline points="602.4 350.4,599.1 349.6,592.5 348.8,589.2 349.6,586.7 350.4,583.4 351.3,579.3 352.9,576.0 353.7,571.8 353.7" style="fill:none;stroke:#000000;stroke-width:2"/>
<polyline points="633.0 349.6,635.5 348.0,638.8 344.7,642.1 340.5,644.6 338.0,648.7 333.1,650.3 330.6,652.0 329.0,654.5 329.0,653.7 331.4,653.7 333.9,652.8 336.4,651.2 340.5,650.3 343.0,648.7 346.3" style="fill:none;stroke:#000000;stroke-width:2"/>
<polyline points="663.6 367.0,656.1 367.8,653.7 368.6,651.2 368.6,645.4 370.3,642.9 371.1,639.6 371.1,637.1 371.9,633.0 372.8,630.5 373.6,628.9 375.2" style="fill:none;stroke:#000000;stroke-width:2"/>
<polyline points="637.9 392.6,640.4 391.8,642.9 391.8,646.2 392.6,648.7 393.4,650.3 395.9,651.2 398.4,649.5 402.5,648.7 405.8,647.0 409.1,644.6 411.6,643.7 414.9,642.9 419.0,646.2 419.0,652.8 418.2,654.5 416.6,657.8 415.7,663.6 412.4" style="fill:none;stroke:#000000;stroke-width:2"/>
<polyline points="711.5 317.4,709.9 319.9,707.4 323.2,705.7 325.6,704.1 327.3,702.4 329.8,699.9 332.3,697.5 336.4,695.8 339.7,695.0 342.2,695.0 344.7,694.1 347.1,694.1 349.6,695.0 352.9,696.6 354.6,700.8 355.4,703.2 355.4,706.5 353.7,709.0 351.3,710.7 348.0,708.2 347.1,704.9 346.3,701.6 346.3,697.5 347.1" style="fill:none;stroke:#000000;stroke-width:2"/>
<polyline points="728.9 314.1,727.2 318.2,727.2 321.5,726.4 324.0,726.4 327.3,725.6 330.6,725.6 333.9,724.7 337.2,723.9 343.0,723.1 346.3,722.2 348.8,725.6 343.0" style="fill:none;stroke:#000000;stroke-width:2"/>
<polyline points="737.1 314.1,735.5 319.9,734.6 322.3,733.8 327.3,733.0 330.6,732.2 333.1,732.2 336.4,733.8 342.2" style="fill:none;stroke:#000000;stroke-width:2"/>
<polyline points="733.8 335.6,729.7 334.7,723.9 334.7,721.4 333.9,721.4 336.4" style="fill:none;stroke:#000000;stroke-width:2"/>
<polyline points="700.8 296.7,704.9 295.9,707.4 296.7,710.7 296.7,714.8 295.9,717.3 295.9,723.1 295.1,725.6 294.2,729.7 293.4,731.3 291.8,734.6 286.0" style="fill:none;stroke:#000000;stroke-width:2"/>
<polyline points="739.6 279.4,742.1 280.2,745.4 281.8,747.9 284.3,748.7 286.8,748.7 290.9,745.4 293.4,742.1 295.1,739.6 295.9,736.3 296.7,728.9 300.0" style="fill:none;stroke:#000000;stroke-width:2"/>
<polyline points="781.8 311.6,781.8 314.9,782.6 326.5,782.6 329.0,783.4 338.9" style="fill:none;stroke:#000000;stroke-width:2"/>
<polyline points="791.7 329.8,789.2 329.0,785.9 329.0,783.4 329.8,780.9 329.8,776.8 330.6,771.0 331.4,766.9 331.4,765.2 333.1" style="fill:none;stroke:#000000;stroke-width:2"/>
<polyline points="817.3 322.3,817.3 324.8,816.5 328.1,816.5 330.6,815.6 334.7,815.6 337.2,814.8 341.3,814.8 344.7,815.6 347.1,819.8 343.8" style="fill:none;stroke:#000000;stroke-width:2"/>
<polyline points="833.0 318.2,833.0 320.7,833.8 324.0,833.0 328.1,833.0 332.3,832.2 337.2,832.2 339.7,833.8 337.2" style="fill:none;stroke:#000000;stroke-width:2"/>
<polyline points="833.0 332.3,830.5 331.4,826.4 329.8,822.2 329.0,819.8 329.0,815.6 329.8,813.2 330.6,814.0 331.4" style="fill:none;stroke:#000000;stroke-width:2"/>
<polyline points="852.8 309.9,852.8 314.9,854.5 337.2" style="fill:none;stroke:#000000;stroke-width:2"/>
<polyline points="855.3 306.6,857.8 305.8,862.7 306.6,866.0 308.3,867.7 309.9,870.2 311.6,871.8 313.3,873.5 315.7,875.1 317.4,876.0 319.9,877.6 324.0,877.6 328.1,876.0 331.4,874.3 333.1,870.2 336.4,866.9 338.0,863.6 338.9,861.1 339.7,857.8 340.5,849.5 340.5" style="fill:none;stroke:#000000;stroke-width:2"/>
<polyline points="817.3 302.5,820.6 301.7,824.7 299.2,827.2 298.4,830.5 297.5,841.3 295.1,843.7 295.1,847.0 294.2,849.5 295.1,852.8 295.9,857.8 296.7" style="fill:none;stroke:#000000;stroke-width:2"/>
<polyline points="856.1 283.5,859.4 284.3,861.9 286.0,865.2 287.6,866.0 290.9,864.4 293.4,861.1 297.5,856.1 303.3" style="fill:none;stroke:#000000;stroke-width:2"/>
<polyline points="940.4 293.4,937.9 295.1,933.8 299.2,932.2 302.5,929.7 305.8,928.0 310.8,926.4 317.4,923.9 330.6,923.1 338.0,922.2 351.3,922.2 357.1,923.1 367.0,923.9 370.3,928.9 373.6" style="fill:none;stroke:#000000;stroke-width:2"/>
<polyline points="990.8 302.5,984.2 303.3,981.8 304.2,980.1 305.8,976.0 309.1,974.3 311.6,972.7 315.7,971.8 318.2,971.8 320.7,972.7 332.3,974.3 334.7,976.8 336.4,980.9 336.4,984.2 335.6,990.0 334.7" style="fill:none;stroke:#000000;stroke-width:2"/>
<polyline points="1002.4 322.3,999.1 323.2,996.6 324.8,994.1 328.1,993.3 332.3,995.8 332.3,997.5 329.8,999.9 328.1,1001.6 325.6,1002.4 323.2,1003.2 326.5,1003.2 329.8,1004.9 331.4,1008.2 330.6,1010.7 329.0,1012.3 325.6,1014.0 323.2,1015.6 321.5,1018.1 320.7,1020.6 322.3,1021.4 325.6,1021.4 328.1,1020.6 331.4,1023.9 331.4,1026.4 330.6" style="fill:none;stroke:#000000;stroke-width:2"/>
<polyline points="1091.7 299.2,1088.4 300.0,1085.9 300.0,1083.4 299.2,1080.9 299.2,1065.2 300.0,1062.7 300.0,1058.6 303.3" style="fill:none;stroke:#000000;stroke-width:2"/>
<polyline points="1073.5 303.3,1075.1 305.0,1076.0 307.5,1077.6 310.8,1078.4 314.9,1077.6 318.2,1076.0 322.3,1072.7 325.6,1069.4 328.1,1066.9 329.0,1062.7 329.8,1060.3 329.0,1058.6 325.6,1059.4 321.5" style="fill:none;stroke:#000000;stroke-width:2"/>
<polyline points="1114.8 323.2,1114.8 319.9,1116.5 317.4,1118.1 315.7,1120.6 314.9,1123.9 315.7,1125.6 318.2,1126.4 321.5,1126.4 324.8,1127.2 318.2,1129.7 317.4,1131.3 319.9,1133.0 321.5,1137.1 318.2,1139.6 317.4,1140.4 319.9,1140.4 323.2,1142.9 319.9" style="fill:none;stroke:#000000;stroke-width:2"/>
<polyline points="1147.9 315.7,1148.7 319.9,1149.5 320.7" style="fill:none;stroke:#000000;stroke-width:2"/>
<polyline points="1147.0 290.9,1149.5 292.6" style="fill:none;stroke:#000000;stroke-width:2"/>
<polyline points="1159.4 287.6,1160.3 290.9,1160.3 293.4,1159.4 307.5,1160.3 310.8,1161.1 314.1" style="fill:none;stroke:#000000;stroke-width:2"/>
<polyline points="1168.5 311.6,1168.5 314.9,1170.2 319.0" style="fill:none;stroke:#000000;stroke-width:2"/>
<polyline points="1174.3 286.8,1175.1 290.9" style="fill:none;stroke:#000000;stroke-width:2"/>
<polyline points="1190.8 302.5,1189.2 299.2" style="fill:none;stroke:#000000;stroke-width:2"/>
<polyline points="1182.6 309.1,1182.6 311.6,1183.4 314.1,1185.1 315.7,1188.4 315.7,1190.8 314.9,1192.5 313.3,1194.1 310.8,1197.5 306.6" style="fill:none;stroke:#000000;stroke-width:2"/>
<polyline points="1200.8 302.5,1200.8 306.6,1201.6 311.6,1203.2 314.1,1205.7 314.1,1209.0 312.4,1210.7 309.9,1212.3 305.8,1212.3 302.5,1214.0 300.9" style="fill:none;stroke:#000000;stroke-width:2"/>
<polyline points="1220.6 308.3,1221.4 305.8,1223.1 303.3,1225.6 301.7,1228.0 302.5,1229.7 304.2,1230.5 306.6,1230.5 309.9,1228.9 312.4,1226.4 311.6,1224.7 309.9,1224.7 308.3" style="fill:none;stroke:#000000;stroke-width:2"/>
<polyline points="1231.3 302.5,1229.7 304.2,1230.5 306.6,1230.5 304.2" style="fill:none;stroke:#000000;stroke-width:2"/>
<polyline points="1229.7 303.3,1225.6 302.5,1222.2 303.3,1220.6 305.0,1218.9 309.1,1219.8 311.6,1221.4 313.3,1223.9 314.1,1225.6 312.4,1228.0 309.1,1229.7 305.8,1230.5 303.3,1230.5 300.0,1231.3 297.5,1231.3 295.1,1232.2 292.6,1233.0 289.3,1233.8 284.3,1234.6 281.8,1234.6 278.5,1235.5 276.1,1236.3 276.9" style="fill:none;stroke:#000000;stroke-width:2"/>
<polyline points="1237.1 305.0,1238.8 301.7,1239.6 299.2,1237.1 300.9,1235.5 303.3,1234.6 306.6,1233.8 309.1,1235.5 310.8,1238.8 309.9,1242.1 308.3,1244.6 306.6,1252.0 304.2" style="fill:none;stroke:#000000;stroke-width:2"/>
<polyline points="1311.5 272.8,1309.0 271.9,1305.7 271.9,1303.2 272.8,1299.9 274.4,1297.5 276.1,1295.8 277.7,1292.5 281.8,1290.8 283.5,1290.0 286.0,1290.0 289.3,1289.2 295.1,1289.2 298.4,1290.0 304.2,1292.5 305.0,1297.5 304.2,1300.8 303.3,1303.2 302.5,1305.7 300.9,1307.4 298.4,1307.4 295.1,1304.9 293.4,1301.6 293.4,1299.1 294.2,1295.8 295.9,1295.0 296.7" style="fill:none;stroke:#000000;stroke-width:2"/>
<polyline points="1323.1 278.5,1321.4 281.0,1320.6 283.5,1319.8 286.8,1319.8 289.3,1318.9 295.1,1319.8 297.5" style="fill:none;stroke:#000000;stroke-width:2"/>
<polyline points="1340.4 271.1,1337.1 270.3,1333.8 270.3,1330.5 271.9,1328.9 273.6,1325.6 276.1,1319.8 279.4" style="fill:none;stroke:#000000;stroke-width:2"/>
<polyline points="1332.2 285.2,1326.4 286.0,1323.1 286.8,1320.6 287.6,1318.9 288.5" style="fill:none;stroke:#000000;stroke-width:2"/>
<polyline points="1353.7 266.1,1356.1 266.1,1366.0 267.0,1365.2 269.4,1362.7 271.1,1358.6 274.4,1356.1 276.1,1354.5 277.7,1352.8 280.2,1351.2 283.5,1350.3 287.6,1350.3 290.9,1351.2 298.4,1352.0 300.9,1353.7 303.3,1352.8 305.8,1350.3 308.3,1347.0 309.9,1344.6 309.9,1333.8 309.1,1330.5 309.1,1328.0 308.3,1324.7 311.6" style="fill:none;stroke:#000000;stroke-width:2"/>
<polyline points="1285.9 263.7,1283.4 262.0,1280.9 262.8,1278.4 265.3,1275.1 269.4,1273.5 272.8,1271.0 276.9,1270.2 279.4,1268.5 283.5,1267.7 286.0,1267.7 288.5,1266.9 293.4,1266.9 295.9,1267.7 303.3,1271.0 305.0,1274.3 305.8,1278.4 307.5,1280.9 307.5,1284.2 308.3,1285.9 308.3" style="fill:none;stroke:#000000;stroke-width:2"/>
<polyline points="989.2 371.9,990.8 373.6,993.3 374.4,995.8 374.4,999.1 373.6,1003.2 370.3,1004.1 367.0,1004.1 364.5,1001.6 362.8,997.5 364.5,995.0 366.1,993.3 369.4,991.7 371.9,988.4 377.7,987.5 381.0,987.5 383.5,986.7 386.0,987.5 388.5,989.2 390.9,992.5 393.4,995.0 394.2,998.3 394.2,1003.2 393.4,1005.7 392.6,1007.4 390.9,1009.9 388.5" style="fill:none;stroke:#000000;stroke-width:2"/>
<polyline points="1032.2 348.0,1031.3 350.4,1030.5 354.6,1029.7 357.1,1028.0 361.2,1027.2 363.7,1026.4 367.0,1025.6 372.8,1024.7 376.1,1024.7 378.5,1025.6 383.5,1031.3 382.7" style="fill:none;stroke:#000000;stroke-width:2"/>
<polyline points="1031.3 376.1,1028.9 376.9,1026.4 376.9,1017.3 376.1" style="fill:none;stroke:#000000;stroke-width:2"/>
<polyline points="1085.9 350.4,1084.2 352.1,1080.1 357.1,1079.3 361.2,1078.4 363.7,1077.6 369.4,1076.8 371.9,1076.0 376.1,1076.0 379.4" style="fill:none;stroke:#000000;stroke-width:2"/>
<polyline points="1085.9 383.5,1062.7 382.7,1058.6 382.7,1054.5 383.5,1050.3 384.3" style="fill:none;stroke:#000000;stroke-width:2"/>
<polyline points="1096.6 356.2,1097.5 353.7,1095.8 351.3,1093.3 350.4,1090.8 350.4,1084.2 351.3,1080.9 352.1,1073.5 353.7,1070.2 355.4,1066.9 356.2,1063.6 357.9,1061.1 359.5,1057.8 361.2,1054.5 363.7" style="fill:none;stroke:#000000;stroke-width:2"/>
<polyline points="1115.6 380.2,1115.6 376.9,1116.5 374.4,1118.1 371.9,1120.6 370.3,1124.7 370.3,1127.2 371.9,1128.9 375.2,1129.7 377.7,1131.3 374.4,1134.6 368.6,1137.1 369.4,1138.8 372.8,1140.4 374.4,1142.9 373.6,1144.6 371.9,1147.0 371.1,1147.9 374.4,1150.3 372.8,1152.0 371.1,1152.0 372.8" style="fill:none;stroke:#000000;stroke-width:2"/>
<polyline points="1156.1 367.8,1155.3 371.1,1157.0 373.6" style="fill:none;stroke:#000000;stroke-width:2"/>
<polyline points="1158.6 351.3,1160.3 352.9" style="fill:none;stroke:#000000;stroke-width:2"/>
<polyline points="1169.4 337.2,1168.5 342.2,1167.7 344.7,1167.7 347.1,1166.9 350.4,1166.9 353.7,1166.0 360.4,1166.0 363.7,1166.0 370.3" style="fill:none;stroke:#000000;stroke-width:2"/>
<polyline points="1173.5 365.3,1173.5 367.8,1172.7 371.1,1172.7 372.8" style="fill:none;stroke:#000000;stroke-width:2"/>
<polyline points="1180.1 343.0,1179.3 348.0" style="fill:none;stroke:#000000;stroke-width:2"/>
<polyline points="1190.0 363.7,1192.5 362.0,1194.1 360.4,1194.1 356.2,1190.8 356.2,1189.2 357.9,1188.4 361.2,1188.4 366.1,1189.2 368.6,1190.8 370.3,1194.1 368.6,1196.6 366.1" style="fill:none;stroke:#000000;stroke-width:2"/>
<polyline points="1203.2 363.7,1203.2 367.8,1204.9 369.4,1209.0 369.4,1210.7 367.0,1211.5 364.5,1212.3 361.2,1214.0 358.7" style="fill:none;stroke:#000000;stroke-width:2"/>
<polyline points="1253.7 355.4,1251.2 354.6,1247.9 355.4,1246.2 357.1,1244.6 360.4,1243.7 364.5,1244.6 367.8,1247.0 367.0,1249.5 364.5,1251.2 360.4,1252.0 356.2,1252.8 353.7,1252.8 351.3,1253.7 348.8,1254.5 343.8,1254.5 341.3,1255.3 335.6,1256.1 337.2" style="fill:none;stroke:#000000;stroke-width:2"/>
<polyline points="1261.9 354.6,1261.1 352.1,1258.6 352.1,1257.0 353.7,1256.1 356.2,1256.1 359.5,1258.6 360.4,1261.9 360.4,1265.2 358.7,1269.4 358.7" style="fill:none;stroke:#000000;stroke-width:2"/>
<polyline points="1305.7 334.7,1305.7 338.0,1304.9 341.3,1304.9 343.8,1304.1 348.0,1304.1 350.4,1304.9 357.1,1307.4 353.7" style="fill:none;stroke:#000000;stroke-width:2"/>
<polyline points="1316.5 339.7,1315.6 343.8,1315.6 347.1,1315.6 357.9" style="fill:none;stroke:#000000;stroke-width:2"/>
<polyline points="1313.2 350.4,1309.0 349.6,1303.2 348.8,1300.8 349.6,1299.1 352.9" style="fill:none;stroke:#000000;stroke-width:2"/>
<polyline points="1346.2 337.2,1348.7 336.4,1347.9 333.9,1344.6 333.1,1340.4 333.1,1337.9 333.9,1335.5 335.6,1333.0 336.4,1331.3 338.0,1328.9 341.3,1328.0 343.8,1327.2 348.8,1327.2 352.1,1328.0 354.6,1330.5 356.2,1333.8 357.1,1337.9 358.7,1340.4 358.7,1344.6 357.9,1347.0 355.4,1347.0 352.1,1344.6 351.3,1341.3 351.3,1337.1 352.1,1334.6 352.1,1333.0 353.7,1330.5 353.7,1331.3 352.1" style="fill:none;stroke:#000000;stroke-width:2"/>
<polyline points="1355.3 322.3,1359.4 322.3,1367.7 321.5,1371.0 320.7,1375.1 320.7,1376.8 323.2,1376.0 328.1,1375.1 330.6,1375.1 333.1,1374.3 335.6,1373.5 339.7,1372.7 342.2,1371.0 345.5,1371.0 349.6,1371.8 355.4,1371.8 358.7,1372.7 362.0,1371.8 364.5,1370.2 367.0,1366.9 368.6,1362.7 369.4,1360.3 370.3,1357.8 370.3,1355.3 371.1,1352.8 371.1,1343.7 371.9,1342.9 372.8" style="fill:none;stroke:#000000;stroke-width:2"/>
<polyline points="1303.2 324.0,1299.9 323.2,1295.0 324.8,1291.7 325.6,1289.2 327.3,1285.9 329.8,1284.2 331.4,1281.8 334.7,1280.9 337.2,1280.9 341.3,1281.8 347.1,1281.8 349.6,1280.9 353.7,1280.9 356.2,1280.1 362.8,1280.9 367.0,1280.1 371.9,1281.8 373.6,1280.9 376.1,1281.8 378.5,1285.9 378.5,1292.5 377.7,1295.0 377.7,1299.1 376.1,1303.2 375.2" style="fill:none;stroke:#000000;stroke-width:2"/>
<polyline points="245.2 552.3,224.7 550.8,221.8 550.8,214.4 549.3,211.5 549.3,207.1 550.8,204.2 550.8,202.7 555.2" style="fill:none;stroke:#000000;stroke-width:2"/>
<polyline points="226.2 591.8,215.9 590.3,211.5 590.3,196.9 593.3" style="fill:none;stroke:#000000;stroke-width:2"/>
<polyline points="287.7 572.8,286.2 571.3,289.1 569.8,292.0 569.8,295.0 568.4,297.9 565.5,302.3 562.5,318.4 549.3,322.8 545.0,327.2 539.1,328.6 537.6,327.2 543.5,325.7 545.0,324.3 547.9,324.3 552.3,322.8 555.2,322.8 559.6,321.3 564.0,321.3 568.4,319.9 572.8,319.9 575.7,318.4 578.6,318.4 583.0,318.4 588.9" style="fill:none;stroke:#000000;stroke-width:2"/>
<polyline points="333.0 596.2,336.0 597.7,337.4 599.1,333.0 599.1,330.1 597.7,327.2 597.7,311.1 599.1,305.2 600.6,299.4 600.6,293.5 602.1,281.8 603.5,277.4 605.0,274.5 605.0,273.0 606.4,270.1 612.3" style="fill:none;stroke:#000000;stroke-width:2"/>
<polyline points="290.6 647.4,292.0 644.5,295.0 640.1,296.4 638.7,299.4 638.7,300.8 641.6,300.8 644.5,299.4 648.9,297.9 651.8,297.9 654.8,296.4 656.2,295.0 659.2,293.5 663.5,292.0 665.0,290.6 667.9,289.1 669.4,287.7 672.3,284.7 675.3,284.7 678.2,283.3 679.7,281.8 682.6,281.8 685.5,283.3 689.9,284.7 691.4,287.7 691.4,290.6 689.9,295.0 688.4,297.9 687.0,302.3 685.5,305.2 682.6,309.6 679.7,311.1 678.2,315.5 678.2" style="fill:none;stroke:#000000;stroke-width:2"/>
<polyline points="415.0 525.9,413.6 527.4,409.2 528.8,406.2 530.3,403.3 530.3,396.0 531.8,393.1 531.8,388.7 533.2,385.7 533.2,382.8 534.7,375.5 539.1,372.6 539.1,371.1 540.6,372.6 542.0,377.0 543.5,378.4 545.0,377.0 546.4,377.0 549.3,375.5 550.8,374.0 553.7,374.0 556.7,372.6 559.6,372.6 562.5,371.1 569.8,371.1 572.8,369.6 578.6,369.6 581.6,371.1 590.3,371.1 593.3,372.6 594.7,374.0 593.3" style="fill:none;stroke:#000000;stroke-width:2"/>
<polyline points="397.5 569.8,381.4 568.4,377.0 568.4,369.6 569.8,365.3 569.8,360.9 571.3,360.9 574.2" style="fill:none;stroke:#000000;stroke-width:2"/>
<polyline points="454.6 533.2,453.1 534.7,451.6 539.1,450.2 542.0,447.2 549.3,445.8 553.7,441.4 568.4,439.9 574.2,438.5 578.6,438.5 583.0,437.0 585.9,437.0 588.9,438.5 587.4,441.4 585.9,448.7 584.5" style="fill:none;stroke:#000000;stroke-width:2"/>
<polyline points="470.7 533.2,469.2 536.2,467.7 542.0,466.3 545.0,464.8 549.3,461.9 555.2,461.9 559.6,460.4 564.0,459.0 571.3,459.0 574.2,460.4 581.6,463.3 578.6" style="fill:none;stroke:#000000;stroke-width:2"/>
<polyline points="466.3 577.2,464.8 575.7,460.4 574.2,457.5 574.2,439.9 575.7,437.0 575.7,435.5 577.2" style="fill:none;stroke:#000000;stroke-width:2"/>
<polyline points="375.5 511.3,377.0 509.8,382.8 505.4,385.7 504.0,390.1 502.5,406.2 498.1,412.1 496.6,418.0 493.7,422.4 492.2,426.7 492.2,431.1 490.8,434.1 490.8,439.9 492.2,442.8 492.2,454.6 492.2" style="fill:none;stroke:#000000;stroke-width:2"/>
<polyline points="461.9 473.2,466.3 476.1,469.2 476.1,470.7 477.6,475.1 480.5,476.5 483.5,476.5 486.4,475.1 489.3,470.7 496.6,469.2 498.1,464.8 499.6,463.3 502.5" style="fill:none;stroke:#000000;stroke-width:2"/>
<polyline points="533.6 530.3,536.6 528.8,536.6 531.8,535.1 536.2,535.1 540.6,533.6 547.9,533.6 552.3,532.2 561.1,533.6 564.0,538.0 564.0" style="fill:none;stroke:#000000;stroke-width:2"/>
<polyline points="546.8 558.1,543.9 559.6,540.9 559.6,532.2 561.1,527.8 561.1,523.4 562.5,517.5 562.5,511.7 564.0,510.2 565.5,508.7 566.9" style="fill:none;stroke:#000000;stroke-width:2"/>
<polyline points="586.3 521.5,586.3 524.5,584.9 536.2,584.9 539.1,583.4 547.9,583.4 552.3,584.9 571.3,584.9 574.2,586.3 572.8,590.7 569.8" style="fill:none;stroke:#000000;stroke-width:2"/>
<polyline points="615.6 517.1,612.7 521.5,612.7 524.5,611.2 528.8,611.2 534.7,609.8 540.6,609.8 545.0,608.3 555.2,608.3 559.6,609.8 569.8,611.2 568.4" style="fill:none;stroke:#000000;stroke-width:2"/>
<polyline points="611.2 555.2,609.8 553.7,606.8 552.3,602.4 552.3,599.5 550.8,595.1 550.8,583.4 552.3,580.5 552.3,577.5 553.7,576.1 555.2,574.6 558.1" style="fill:none;stroke:#000000;stroke-width:2"/>
<polyline points="642.0 524.5,642.0 527.4,640.5 528.8,640.5 533.2,642.0 562.5,642.0 565.5,643.4 568.4,643.4 571.3,646.4 569.8" style="fill:none;stroke:#000000;stroke-width:2"/>
<polyline points="639.0 534.7,640.5 533.2,640.5 530.3,642.0 528.8,644.9 528.8,661.0 530.3,665.4 531.8,672.7 536.2,677.1 540.6,681.5 547.9,683.0 555.2,683.0 558.1,681.5 559.6,678.6 564.0,677.1 566.9,672.7 568.4,669.8 571.3,665.4 574.2,661.0 575.7,649.3 578.6,642.0 578.6" style="fill:none;stroke:#000000;stroke-width:2"/>
<polyline points="728.3 512.7,729.8 514.2,729.8 518.6,728.3 531.8,728.3 534.7,726.9 542.0,726.9 545.0,725.4 550.8,725.4 553.7,726.9 555.2" style="fill:none;stroke:#000000;stroke-width:2"/>
<polyline points="731.3 536.2,724.0 537.6,721.0 537.6,719.6 539.1,716.6 539.1,713.7 540.6" style="fill:none;stroke:#000000;stroke-width:2"/>
<polyline points="800.1 499.6,788.4 501.0,785.4 501.0,779.6 502.5,776.7 502.5,773.7 504.0,772.3 505.4,769.3 506.9" style="fill:none;stroke:#000000;stroke-width:2"/>
<polyline points="781.1 502.5,781.1 505.4,782.5 506.9,786.9 509.8,788.4 511.3,789.8 514.2,791.3 515.7,797.2 523.0,798.6 525.9,800.1 531.8,800.1 534.7,798.6 540.6,797.2 545.0,792.8 550.8,789.8 553.7,784.0 558.1,781.1 558.1,773.7 556.7,770.8 556.7,769.3 555.2,766.4 550.8" style="fill:none;stroke:#000000;stroke-width:2"/>
<polyline points="860.1 495.2,858.7 493.7,854.3 496.6,849.9 498.1,846.9 498.1,842.5 499.6,839.6 499.6,835.2 501.0,830.8 501.0,822.1 502.5,819.1 502.5,816.2 504.0,813.3 504.0,811.8 505.4" style="fill:none;stroke:#000000;stroke-width:2"/>
<polyline points="845.5 501.0,845.5 504.0,844.0 509.8,844.0 512.7,842.5 515.7,842.5 520.1,841.1 524.5,841.1 528.8,842.5 542.0,842.5 545.0,845.5 542.0" style="fill:none;stroke:#000000;stroke-width:2"/>
<polyline points="866.0 540.6,864.5 539.1,860.1 539.1,857.2 540.6,854.3 540.6,851.3 542.0,846.9 543.5,844.0 543.5,835.2 545.0,830.8 545.0,822.1 546.4" style="fill:none;stroke:#000000;stroke-width:2"/>
<polyline points="784.0 480.5,786.9 480.5,794.2 479.1,803.0 477.6,808.9 476.1,813.3 474.7,819.1 471.7,825.0 470.3,830.8 470.3,835.2 468.8,839.6 468.8,849.9 470.3,855.7 474.7" style="fill:none;stroke:#000000;stroke-width:2"/>
<polyline points="858.7 443.9,861.6 443.9,866.0 445.4,868.9 446.9,873.3 448.3,880.6 451.3,883.5 452.7,885.0 454.2,889.4 460.0,887.9 463.0,886.5 464.4,882.1 467.4,879.2 468.8,868.9 471.7" style="fill:none;stroke:#000000;stroke-width:2"/>
<polyline points="256.9 785.1,254.0 783.6,251.1 783.6,245.2 782.1,242.3 780.7,239.3 780.7,233.5 779.2,230.6 777.7,221.8 777.7,213.0 779.2,210.1 779.2,202.7 780.7,199.8 780.7,196.9 782.1,191.0 783.6,188.1 789.5" style="fill:none;stroke:#000000;stroke-width:2"/>
<polyline points="237.9 833.4,230.6 834.8,226.2 834.8,220.3 836.3,213.0 836.3,177.8 827.5" style="fill:none;stroke:#000000;stroke-width:2"/>
<polyline points="390.1 770.4,366.7 771.9,362.3 771.9,356.5 773.4,350.6 773.4,336.0 774.8,333.0 774.8,328.6 776.3,327.2 777.7,330.1 783.6" style="fill:none;stroke:#000000;stroke-width:2"/>
<polyline points="362.3 761.6,362.3 764.6,363.8 777.7,363.8 780.7,365.3 785.1,365.3 788.0,366.7 790.9,366.7 795.3,365.3 801.2,365.3 805.6,362.3 808.5,360.9 812.9,357.9 815.8,352.1 820.2,349.1 821.7,344.8 823.1,341.8 823.1,336.0 821.7,333.0 820.2,333.0 817.3" style="fill:none;stroke:#000000;stroke-width:2"/>
<polyline points="426.7 767.5,428.2 770.4,429.7 771.9,429.7 774.8,428.2 788.0,428.2 792.4,426.7 799.7,425.3 804.1,425.3 807.0,423.8 808.5,422.4 811.4" style="fill:none;stroke:#000000;stroke-width:2"/>
<polyline points="453.1 802.6,444.3 804.1,435.5 804.1,429.7 805.6,423.8 805.6,418.0 807.0,413.6 807.0,404.8 808.5,401.9 808.5,398.9 808.5" style="fill:none;stroke:#000000;stroke-width:2"/>
<polyline points="467.7 754.3,461.9 755.8,457.5 757.2,454.6 758.7,450.2 760.2,445.8 760.2,441.4 761.6,432.6 766.0,426.7 767.5,423.8 769.0,420.9 769.0,420.9 771.9" style="fill:none;stroke:#000000;stroke-width:2"/>
<polyline points="369.6 742.6,374.0 741.1,377.0 741.1,385.7 739.7,390.1 739.7,400.4 735.3,404.8 732.4,410.6 730.9,415.0 729.4,423.8 728.0,426.7 728.0,434.1 730.9" style="fill:none;stroke:#000000;stroke-width:2"/>
<polyline points="451.6 704.5,453.1 703.1,456.0 703.1,466.3 704.5,467.7 706.0,470.7 711.9,470.7 716.3,469.2 720.6,467.7 723.6,464.8 723.6,461.9 725.0,457.5 726.5,450.2 728.0" style="fill:none;stroke:#000000;stroke-width:2"/>
<polyline points="296.4 780.7,289.1 779.2,290.6 777.7,292.0 774.8,293.5 773.4,296.4 773.4,299.4 771.9,303.8 776.3,303.8 779.2,302.3 790.9,300.8 793.9,296.4 801.2,293.5 805.6,287.7 815.8,284.7 821.7,280.3 831.9,278.9 836.3,278.9 842.2,280.3 843.6,284.7 845.1,287.7 845.1,290.6 843.6,295.0 840.7,306.7 831.9,309.6 830.5,321.3 834.8" style="fill:none;stroke:#000000;stroke-width:2"/>
<polyline points="548.3 769.0,546.8 766.0,542.4 763.1,540.9 764.6,540.9 767.5,539.5 770.4,539.5 773.4,538.0 776.3,538.0 779.2,536.6 790.9,538.0 795.3,538.0 798.2,539.5 799.7" style="fill:none;stroke:#000000;stroke-width:2"/>
<polyline points="557.0 790.9,540.9 789.5,532.2 789.5,510.2 790.9,504.3 792.4,499.9 793.9,498.5 796.8,495.6 802.6" style="fill:none;stroke:#000000;stroke-width:2"/>
<polyline points="590.7 755.8,590.7 758.7,592.2 799.7,595.1 798.2" style="fill:none;stroke:#000000;stroke-width:2"/>
<polyline points="611.2 738.2,611.2 741.1,612.7 744.1,612.7 748.5,614.1 754.3,615.6 757.2,615.6 760.2,617.1 764.6,617.1 769.0,618.5 773.4,618.5 776.3,620.0 780.7,620.0 785.1,621.5 792.4,621.5 796.8" style="fill:none;stroke:#000000;stroke-width:2"/>
<polyline points="618.5 773.4,602.4 774.8,598.0 776.3,590.7 779.2,587.8 780.7,583.4 782.1" style="fill:none;stroke:#000000;stroke-width:2"/>
<polyline points="650.8 744.1,650.8 747.0,652.2 761.6,652.2 767.5,653.7 771.9,655.1 777.7,655.1 782.1,656.6 785.1,656.6 788.0,658.1 790.9,658.1 793.9,659.5 795.3" style="fill:none;stroke:#000000;stroke-width:2"/>
<polyline points="647.8 747.0,644.9 745.5,643.4 742.6,644.9 739.7,647.8 739.7,666.9 742.6,672.7 745.5,678.6 747.0,684.4 749.9,688.8 754.3,697.6 764.6,699.1 766.0,699.1 770.4,694.7 776.3,691.7 779.2,687.4 782.1,683.0 783.6,677.1 785.1,659.5 785.1" style="fill:none;stroke:#000000;stroke-width:2"/>
<polyline points="590.7 717.7,593.7 716.3,599.5 716.3,603.9 714.8,609.8 714.8,615.6 713.3,622.9 711.9,643.4 708.9,650.8 707.5,656.6 707.5,663.9 707.5" style="fill:none;stroke:#000000;stroke-width:2"/>
<polyline points="666.9 689.9,669.8 689.9,674.2 691.4,678.6 691.4,685.9 692.8,688.8 694.3,693.2 694.3,694.7 695.8,700.5 704.5,699.1 707.5,694.7 713.3,693.2 716.3,690.3 719.2,681.5 720.6" style="fill:none;stroke:#000000;stroke-width:2"/>
<polyline points="601.0 484.9,602.4 486.4,606.8 484.9,608.3 483.5,611.2 482.0,620.0 479.1,624.4 479.1,628.8 477.6,633.2 477.6,637.6 476.1,642.0 476.1,646.4 474.7,650.8 474.7,661.0 474.7" style="fill:none;stroke:#000000;stroke-width:2"/>
<polyline points="678.6 454.2,687.4 458.6,693.2 465.9,693.2 468.8,691.7 473.2,690.3 476.1,687.4 480.5,684.4 483.5,671.2 493.7" style="fill:none;stroke:#000000;stroke-width:2"/>
<polyline points="205.7 985.6,180.8 987.1,174.9 987.1,163.2 988.6" style="fill:none;stroke:#000000;stroke-width:2"/>
<polyline points="153.0 1031.0,133.9 1032.5,132.5 1034.0,128.1 1036.9" style="fill:none;stroke:#000000;stroke-width:2"/>
<polyline points="283.3 1006.1,277.4 1007.6,274.5 1007.6,271.5 1009.1,267.2 1009.1,262.8 1010.5,259.8 1010.5,249.6 1009.1" style="fill:none;stroke:#000000;stroke-width:2"/>
<polyline points="311.1 987.1,309.6 985.6,305.2 984.2,303.8 982.7,297.9 975.4,297.9 969.5,299.4 963.7,302.3 962.2,303.8 959.3,306.7 957.8,308.2 956.4,312.5 957.8,314.0 960.8,314.0 963.7,315.5 972.5,315.5 978.3,314.0 991.5,314.0 995.9,311.1 1000.3,309.6 1004.7,306.7 1012.0,306.7 1014.9,305.2 1019.3,306.7 1023.7,308.2 1026.6,311.1 1026.6,315.5 1025.2,318.4 1023.7,319.9 1020.8,322.8 1019.3,324.3 1016.4,330.1 1013.5" style="fill:none;stroke:#000000;stroke-width:2"/>
<polyline points="403.3 953.4,359.4 954.9,355.0 954.9,356.5 959.3" style="fill:none;stroke:#000000;stroke-width:2"/>
<polyline points="384.3 952.0,382.8 953.4,381.4 956.4,381.4 959.3,379.9 962.2,378.4 969.5,377.0 973.9,377.0 978.3,375.5 982.7,375.5 987.1,377.0 1003.2" style="fill:none;stroke:#000000;stroke-width:2"/>
<polyline points="397.5 1003.2,394.5 1004.7,390.1 1006.1,379.9 1009.1,374.0 1010.5,369.6 1012.0,363.8 1012.0,352.1 1012.0" style="fill:none;stroke:#000000;stroke-width:2"/>
<polyline points="494.1 941.7,492.6 940.3,489.7 940.3,485.3 938.8,480.9 938.8,470.7 940.3,464.8 940.3,459.0 943.2,453.1 944.7,448.7 946.1,445.8 949.0,441.4 950.5,439.9 952.0,437.0 952.0,434.1 953.4,432.6 956.4" style="fill:none;stroke:#000000;stroke-width:2"/>
<polyline points="467.7 949.0,466.3 950.5,464.8 954.9,464.8 957.8,463.3 960.8,463.3 963.7,464.8 965.2,464.8 968.1,466.3 975.4,467.7 978.3,472.1 985.6,473.6 990.0,475.1 993.0,475.1 995.9,473.6 998.8,473.6 1001.8,470.7 1004.7,466.3 1006.1,457.5 1007.6,453.1 1006.1,450.2 1006.1,438.5 1004.7,437.0 1003.2,434.1 1001.8" style="fill:none;stroke:#000000;stroke-width:2"/>
<polyline points="385.7 913.9,387.2 912.4,391.6 911.0,394.5 909.5,398.9 908.1,409.2 909.5,420.9 911.0,426.7 912.4,432.6 912.4,439.9 913.9,444.3 913.9,447.2 912.4,450.2 909.5" style="fill:none;stroke:#000000;stroke-width:2"/>
<polyline points="464.8 905.1,470.7 906.6,472.1 909.5,475.1 911.0,476.5 913.9,476.5 916.8,475.1 927.1,473.6 930.0,472.1 931.5,469.2 932.9,466.3 935.9" style="fill:none;stroke:#000000;stroke-width:2"/>
<polyline points="584.9 952.0,581.9 953.4,579.0 953.4,571.7 954.9,567.3 954.9,562.9 956.4,551.2 960.8,546.8 962.2,543.9 962.2,540.9 963.7,538.0 963.7,535.1 965.2,532.2 968.1" style="fill:none;stroke:#000000;stroke-width:2"/>
<polyline points="630.3 921.2,630.3 924.2,631.7 946.1,631.7 952.0,633.2 960.8,633.2 965.2,631.7 982.7,631.7 985.6,631.7 988.6" style="fill:none;stroke:#000000;stroke-width:2"/>
<polyline points="627.3 928.5,628.8 924.2,630.3 922.7,631.7 919.8,636.1 915.4,640.5 915.4,655.1 916.8,659.5 918.3,668.3 924.2,677.1 931.5,681.5 935.9,687.4 947.6,688.8 952.0,690.3 959.3,688.8 963.7,687.4 969.5,684.4 975.4,680.0 981.3,674.2 985.6,669.8 990.0,663.9 993.0,656.6 995.9,652.2 997.4,646.4 997.4,639.0 995.9,636.1 993.0" style="fill:none;stroke:#000000;stroke-width:2"/>
<polyline points="712.2 921.2,712.2 924.2,713.7 928.5,713.7 932.9,715.2 940.3,715.2 944.7,716.6 949.0,718.1 954.9,718.1 959.3,719.6 965.2,721.0 975.4,722.5 979.8,722.5 984.2,724.0 988.6,724.0 991.5,722.5 993.0,719.6 991.5" style="fill:none;stroke:#000000;stroke-width:2"/>
<polyline points="731.3 925.6,732.7 927.1,732.7 930.0,734.2 941.7,734.2 944.7,735.7 949.0,735.7 953.4,737.1 957.8,738.6 965.2,738.6 968.1,740.1 969.5,738.6 971.0" style="fill:none;stroke:#000000;stroke-width:2"/>
<polyline points="734.2 946.1,732.7 949.0,731.3 950.5,728.3 952.0,726.9 953.4,724.0 953.4,721.0 954.9,718.1 954.9,712.2 957.8" style="fill:none;stroke:#000000;stroke-width:2"/>
<polyline points="650.8 883.2,653.7 884.6,658.1 884.6,663.9 883.2,666.9 881.7,671.2 878.8,674.2 877.3,681.5 872.9,684.4 872.9,693.2 875.8" style="fill:none;stroke:#000000;stroke-width:2"/>
<polyline points="713.7 851.0,718.1 851.0,719.6 852.4,722.5 852.4,725.4 853.9,729.8 856.8,731.3 859.7,732.7 861.2,732.7 864.1,731.3 867.1,729.8 871.4,728.3 874.4,718.1 883.2" style="fill:none;stroke:#000000;stroke-width:2"/>
<polyline points="967.1 459.6,965.5 461.2,960.7 459.6,959.1 461.2,952.6 469.2,949.4 472.5,944.6 480.5,941.4 485.3,933.3 498.2,931.7 503.1,926.9 511.1,925.3 515.9,923.7 525.6,922.0 536.9,922.0 543.3,923.7 556.2,925.3 562.6,926.9 567.5,931.7 573.9,934.9 575.5,947.8 577.1" style="fill:none;stroke:#000000;stroke-width:2"/>
<polyline points="1028.3 509.5,1020.3 511.1,1017.1 512.7,1013.8 515.9,1009.0 522.4,1004.2 527.2,1002.6 532.0,999.3 536.9,994.5 546.5,992.9 553.0,991.3 557.8,991.3 569.1,992.9 580.4,994.5 583.6,997.7 585.2,999.3 588.4,1002.6 590.0,1009.0 591.6,1012.2 591.6,1017.1 590.0,1020.3 588.4,1026.7 583.6,1028.3 580.4,1031.6 578.8,1039.6 573.9" style="fill:none;stroke:#000000;stroke-width:2"/>
<polyline points="1058.9 507.9,1058.9 512.7,1057.3 522.4,1057.3 527.2,1058.9 543.3,1058.9 549.8,1060.5 554.6,1060.5 561.0,1062.2 565.9,1062.2 570.7,1063.8 582.0,1063.8 578.8,1065.4 572.3,1065.4 569.1,1067.0 564.3,1068.6 561.0,1073.4 554.6,1075.0 553.0,1078.3 551.4,1081.5 551.4,1083.1 553.0,1084.7 556.2,1086.3 562.6,1086.3 565.9,1084.7 582.0,1084.7 585.2,1087.9 591.6" style="fill:none;stroke:#000000;stroke-width:2"/>
<polyline points="1112.1 549.8,1110.5 546.5,1108.9 544.9,1105.6 546.5,1104.0 548.2,1100.8 553.0,1097.6 559.4,1097.6 564.3,1099.2 578.8,1102.4 578.8,1104.0 575.5,1110.5 564.3,1112.1 557.8,1112.1 554.6,1113.7 553.0,1113.7 556.2,1115.3 561.0,1115.3 565.9,1116.9 570.7,1118.5 572.3,1123.4 572.3,1129.8 575.5" style="fill:none;stroke:#000000;stroke-width:2"/>
<polyline points="1136.2 562.6,1137.9 561.0,1137.9 557.8,1139.5 548.2,1139.5 544.9,1141.1 541.7,1144.3 536.9,1147.5 538.5,1150.7 538.5,1152.3 540.1,1158.8 543.3,1160.4 544.9,1163.6 546.5,1165.2 549.8,1165.2 554.6,1163.6 561.0,1162.0 564.3,1158.8 569.1,1157.2 570.7,1154.0 570.7,1152.3 569.1,1155.6 564.3" style="fill:none;stroke:#000000;stroke-width:2"/>
<polyline points="1174.9 477.3,1174.9 480.5,1176.5 507.9,1176.5 514.3,1178.1 520.8,1178.1 525.6,1179.7 530.4,1181.3 536.9,1181.3 541.7,1182.9 544.9,1187.8 554.6" style="fill:none;stroke:#000000;stroke-width:2"/>
<polyline points="1211.9 538.5,1215.2 536.9,1216.8 533.7,1218.4 532.0,1220.0 528.8,1218.4 527.2,1216.8 524.0,1213.5 524.0,1210.3 525.6,1207.1 528.8,1202.3 536.9,1200.7 540.1,1200.7 544.9,1202.3 557.8,1203.9 561.0,1207.1 561.0,1213.5 559.4,1218.4 557.8,1226.4 554.6,1231.3 553.0,1239.3 551.4" style="fill:none;stroke:#000000;stroke-width:2"/>
<polyline points="1247.4 551.4,1245.8 554.6" style="fill:none;stroke:#000000;stroke-width:2"/>
<polyline points="1247.4 549.8,1249.0 548.2,1249.0 544.9,1250.6 540.1,1250.6 536.9,1252.2 527.2,1252.2 524.0,1253.8 520.8,1253.8 517.6,1255.4 515.9,1258.6 515.9,1260.2 519.2,1261.9 520.8,1266.7 524.0,1269.9 527.2,1274.7 530.4,1276.4 533.7,1278.0 535.3,1278.0 538.5,1276.4 554.6,1273.1 559.4,1269.9 557.8,1268.3 556.2,1266.7 548.2" style="fill:none;stroke:#000000;stroke-width:2"/>
<polyline points="1276.4 445.1,1279.6 446.7,1284.4 449.9,1289.2 454.7,1295.7 459.6,1302.1 466.0,1321.4 487.0,1324.7 495.0,1327.9 504.7,1329.5 514.3,1329.5 525.6,1326.3 548.2,1324.7 557.8,1319.8 567.5,1313.4 573.9,1295.7 590.0" style="fill:none;stroke:#000000;stroke-width:2"/>
<polyline points="833.5 712.4,831.9 714.0,828.6 714.0,827.0 715.6,823.8 715.6,822.2 718.9,820.6 720.5,815.7 726.9,814.1 731.8,810.9 738.2,809.3 743.0,807.7 749.5,806.1 757.5,806.1 764.0,804.5 772.0,802.9 786.5,802.9 794.6,804.5 810.7,806.1 815.5,809.3 817.1,815.7 818.7,828.6 815.5" style="fill:none;stroke:#000000;stroke-width:2"/>
<polyline points="875.3 717.3,876.9 715.6,873.7 717.3,872.1 718.9,867.3 722.1,865.7 723.7,862.5 728.5,860.8 731.8,859.2 738.2,859.2 744.6,860.8 749.5,862.5 751.1,867.3 754.3,872.1 754.3,889.8 751.1" style="fill:none;stroke:#000000;stroke-width:2"/>
<polyline points="905.9 731.8,904.3 730.1,897.9 730.1,894.7 731.8,893.1 733.4,891.4 738.2,891.4 741.4,893.1 746.2,896.3 746.2,905.9 744.6,907.5 743.0,910.8 738.2,910.8 741.4,912.4 749.5,914.0 752.7,915.6 751.1,920.4 744.6,922.0 743.0,922.0 738.2,923.7 736.6,923.7 733.4,925.3 731.8,931.7 728.5,934.9 728.5,939.8 730.1,941.4 735.0,941.4 739.8,939.8 744.6,936.5 746.2,939.8 744.6" style="fill:none;stroke:#000000;stroke-width:2"/>
<polyline points="1012.2 706.0,1002.6 707.6,999.3 707.6,994.5 709.2,991.3 710.8,988.1 710.8,983.2 712.4,980.0 714.0,976.8 714.0,973.6 714.0" style="fill:none;stroke:#000000;stroke-width:2"/>
<polyline points="999.3 704.4,999.3 707.6,997.7 710.8,999.3 714.0,999.3 717.3,1001.0 723.7,1002.6 726.9,1007.4 731.8,1010.6 736.6,1013.8 739.8,1017.1 744.6,1018.7 746.2,1018.7 751.1,1015.5 752.7,1010.6 752.7,1005.8 754.3,1002.6 754.3,994.5 752.7,999.3 752.7" style="fill:none;stroke:#000000;stroke-width:2"/>
<polyline points="1068.6 747.9,1067.0 749.5,1062.2 746.2,1062.2 743.0,1060.5 741.4,1060.5 738.2,1062.2 733.4,1062.2 730.1,1063.8 728.5,1067.0 728.5,1073.4 730.1,1075.0 731.8,1079.9 738.2,1081.5 743.0,1081.5 746.2,1079.9 744.6,1079.9 739.8,1081.5 733.4,1083.1 730.1,1086.3 728.5,1091.1 730.1,1092.8 731.8,1096.0 733.4,1097.6 735.0,1099.2 738.2,1102.4 739.8,1100.8 738.2,1100.8 733.4,1102.4 730.1,1102.4 726.9,1104.0 728.5,1110.5 736.6,1112.1 738.2,1115.3 738.2,1116.9 736.6,1116.9 733.4,1118.5 726.9,1120.1 730.1,1125.0 738.2,1128.2 738.2,1129.8 736.6" style="fill:none;stroke:#000000;stroke-width:2"/>
<polyline points="1116.9 696.3,1115.3 694.7,1116.9 697.9,1118.5 699.5,1120.1 704.4,1121.7 706.0,1123.4 709.2" style="fill:none;stroke:#000000;stroke-width:2"/>
<polyline points="1129.8 681.8,1131.4 685.0,1133.0 686.7,1133.0 689.9,1134.6 694.7,1134.6 697.9,1136.2 702.8,1136.2 707.6,1137.9 710.8,1139.5 715.6,1141.1 723.7,1142.7 726.9,1142.7 730.1,1144.3 731.8,1149.1 738.2" style="fill:none;stroke:#000000;stroke-width:2"/>
<polyline points="1160.4 726.9,1162.0 730.1,1163.6 731.8,1163.6 735.0,1165.2 736.6,1166.8 733.4" style="fill:none;stroke:#000000;stroke-width:2"/>
<polyline points="1158.8 693.1,1157.2 694.7,1158.8 696.3,1160.4 707.6" style="fill:none;stroke:#000000;stroke-width:2"/>
<polyline points="1186.2 723.7,1187.8 722.1,1191.0 715.6,1187.8 717.3,1186.2 718.9,1184.6 725.3,1184.6 728.5,1186.2 731.8,1187.8 733.4,1192.6 736.6,1197.4 736.6,1200.7 735.0,1205.5 731.8,1205.5 728.5,1207.1 726.9,1207.1 723.7,1205.5 718.9,1207.1 720.5,1207.1 725.3,1208.7 728.5,1211.9 736.6,1213.5 738.2,1216.8 733.4,1216.8 730.1,1220.0 723.7,1224.8 730.1,1226.4 733.4,1231.3 739.8,1232.9 741.4,1236.1 735.0,1237.7 733.4,1237.7 730.1,1239.3 725.3,1242.5 723.7,1245.8 723.7,1249.0 725.3,1250.6 726.9,1253.8 733.4,1253.8 738.2,1253.8 741.4" style="fill:none;stroke:#000000;stroke-width:2"/>
<polyline points="1308.6 710.8,1307.0 706.0,1305.3 704.4,1302.1 702.8,1298.9 702.8,1286.0 704.4,1284.4 706.0,1282.8 710.8,1284.4 712.4,1284.4 715.6,1286.0 718.9,1287.6 720.5,1292.5 722.1,1295.7 722.1,1298.9 720.5,1303.7 715.6,1307.0 714.0,1308.6 710.8,1308.6 706.0,1310.2 702.8,1310.2 696.3,1308.6 688.3,1308.6 683.4,1307.0 680.2,1307.0 677.0,1310.2 678.6,1313.4 685.0" style="fill:none;stroke:#000000;stroke-width:2"/>
<polyline points="1332.7 726.9,1334.3 725.3,1335.9 720.5,1335.9 717.3,1332.7 709.2,1331.1 710.8,1327.9 712.4,1327.9 715.6,1329.5 720.5,1331.1 722.1,1335.9 725.3,1339.2 726.9,1342.4 726.9,1348.8 725.3,1352.0 725.3,1358.5 722.1,1366.5 718.9" style="fill:none;stroke:#000000;stroke-width:2"/>
<polyline points="1435.8 662.5,1421.3 664.1,1418.1 665.7,1413.2 668.9,1410.0 670.6,1410.0 673.8,1411.6 680.2,1411.6 683.4,1413.2 686.7,1413.2 689.9,1414.9 731.8,1416.5 730.1,1419.7 728.5,1421.3 726.9,1426.1 726.9,1427.7 728.5,1431.0 726.9,1434.2 726.9,1442.2 728.5" style="fill:none;stroke:#000000;stroke-width:2"/>
<polyline points="1485.7 677.0,1487.3 675.4,1485.7 673.8,1482.5 673.8,1477.7 675.4,1474.4 675.4,1471.2 677.0,1468.0 677.0,1466.4 678.6,1463.2 680.2,1461.6 681.8,1460.0 685.0,1460.0 688.3,1458.3 689.9,1458.3 693.1,1460.0 699.5,1460.0 702.8,1461.6 709.2,1463.2 712.4,1463.2 715.6,1464.8 718.9,1468.0 723.7,1469.6 725.3,1472.8 725.3,1476.1 723.7,1477.7 722.1,1480.9 720.5,1482.5 718.9,1485.7 712.4,1485.7 709.2,1484.1 702.8,1480.9 699.5,1477.7 701.2,1469.6 706.0,1468.0 707.6" style="fill:none;stroke:#000000;stroke-width:2"/>
<polyline points="1514.7 673.8,1514.7 677.0,1513.1 680.2,1513.1 685.0,1514.7 699.5,1514.7 704.4,1516.3 714.0,1516.3 718.9,1517.9 722.1,1519.5 726.9,1521.2 722.1" style="fill:none;stroke:#000000;stroke-width:2"/>
<polyline points="1551.8 667.3,1537.3 668.9,1527.6 668.9,1524.4 670.6,1521.2 670.6,1509.9 672.2" style="fill:none;stroke:#000000;stroke-width:2"/>
<polyline points="1537.3 696.3,1535.6 697.9,1532.4 697.9,1519.5 699.5,1516.3 701.2" style="fill:none;stroke:#000000;stroke-width:2"/>
<polyline points="1559.8 651.2,1563.0 651.2,1564.6 649.6,1569.5 648.0,1571.1 646.4,1575.9 643.2,1580.7 641.6,1584.0 641.6,1601.7 643.2,1601.7 646.4,1600.1 648.0,1595.2 654.4,1592.0 656.1,1590.4 659.3,1587.2 667.3,1585.6 670.6,1584.0 678.6,1584.0 681.8,1585.6 693.1,1585.6 696.3,1587.2 701.2,1588.8 704.4,1590.4 712.4,1592.0 715.6,1593.6 720.5,1593.6 723.7,1590.4 730.1,1588.8 731.8,1585.6 733.4,1579.1 735.0,1574.3 735.0,1556.6 733.4" style="fill:none;stroke:#000000;stroke-width:2"/>
<polyline points="896.3 805.8,897.9 807.4,897.9 810.7,899.5 815.5,904.3 815.5,905.9 813.9,909.2 813.9,910.8 812.3,914.0 810.7,922.0 805.8,923.7 804.2,926.9 797.8,926.9 794.6,925.3 792.9,922.0 794.6,918.8 794.6,914.0 796.2,912.4 797.8,905.9 805.8,904.3 807.4,902.7 810.7,904.3 812.3,907.5 817.1,909.2 818.7,920.4 828.4,923.7 828.4,930.1 826.8,933.3 825.2,934.9 823.5,938.1 821.9,943.0 818.7" style="fill:none;stroke:#000000;stroke-width:2"/>
<polyline points="959.1 792.9,959.1 797.8,960.7 818.7,962.3 823.5,962.3 826.8,963.9 828.4,965.5 831.6,967.1 833.2,972.0 831.6" style="fill:none;stroke:#000000;stroke-width:2"/>
<polyline points="975.2 807.4,972.0 805.8,968.7 805.8,965.5 804.2,959.1 805.8,955.9 807.4,951.0 810.7,947.8 813.9,946.2 817.1,947.8 821.9" style="fill:none;stroke:#000000;stroke-width:2"/>
<polyline points="1054.1 797.8,1054.1 801.0,1052.5 802.6,1052.5 807.4,1050.9 813.9,1050.9 817.1,1049.3 826.8,1049.3 830.0,1050.9 841.3,1052.5 842.9,1054.1 846.1" style="fill:none;stroke:#000000;stroke-width:2"/>
<polyline points="1068.6 836.4,1062.2 834.8,1057.3 833.2,1054.1 831.6,1050.9 831.6,1039.6 833.2,1034.8 834.8,1031.6 836.4,1017.1 844.5,1013.8 847.7" style="fill:none;stroke:#000000;stroke-width:2"/>
<polyline points="1065.4 789.7,1038.0 788.1,1031.6 788.1,1025.1 789.7,1020.3 789.7,1018.7 791.3,1015.5 792.9,1015.5 796.2,1017.1 804.2" style="fill:none;stroke:#000000;stroke-width:2"/>
<polyline points="1128.2 833.2,1123.4 831.6,1121.7 830.0,1121.7 826.8,1123.4 817.1,1125.0 815.5,1126.6 812.3,1128.2 810.7,1133.0 809.1,1134.6 810.7,1137.9 812.3,1139.5 813.9,1141.1 820.3,1142.7 821.9,1142.7 818.7,1144.3 817.1,1149.1 815.5,1152.3 815.5,1154.0 817.1,1157.2 818.7,1163.6 818.7,1165.2 817.1,1168.4 817.1,1170.1 818.7,1171.7 821.9,1173.3 823.5,1181.3 826.8,1184.6 823.5" style="fill:none;stroke:#000000;stroke-width:2"/>
<polyline points="1191.0 812.3,1191.0 815.5,1192.6 818.7,1194.2 820.3,1195.8 823.5,1197.4 825.2,1199.0 823.5" style="fill:none;stroke:#000000;stroke-width:2"/>
<polyline points="1191.0 792.9,1195.8 794.6" style="fill:none;stroke:#000000;stroke-width:2"/>
<polyline points="1210.3 767.2,1210.3 770.4,1211.9 801.0,1213.5 809.1,1213.5 812.3,1215.2 815.5,1220.0 820.3" style="fill:none;stroke:#000000;stroke-width:2"/>
<polyline points="1229.6 810.7,1229.6 813.9,1231.3 815.5,1232.9 820.3,1234.5 821.9,1237.7 825.2" style="fill:none;stroke:#000000;stroke-width:2"/>
<polyline points="1232.9 786.5,1234.5 788.1,1236.1 791.3,1236.1 794.6" style="fill:none;stroke:#000000;stroke-width:2"/>
<polyline points="1253.8 821.9,1255.4 820.3,1255.4 815.5,1257.0 812.3,1255.4 809.1,1253.8 810.7,1252.2 813.9,1252.2 817.1,1253.8 831.6,1255.4 834.8,1258.6 836.4,1263.5 833.2,1265.1 831.6,1266.7 828.4,1268.3 826.8,1268.3 823.5,1269.9 821.9" style="fill:none;stroke:#000000;stroke-width:2"/>
<polyline points="1266.7 815.5,1268.3 817.1,1268.3 820.3,1269.9 826.8,1269.9 830.0,1271.5 831.6,1273.1 834.8,1274.7 836.4,1276.4 839.7,1279.6 839.7,1282.8 836.4,1284.4 831.6,1284.4 825.2,1282.8 813.9" style="fill:none;stroke:#000000;stroke-width:2"/>
<polyline points="1353.7 815.5,1353.7 812.3,1352.0 810.7,1345.6 807.4,1342.4 807.4,1340.8 809.1,1335.9 809.1,1334.3 810.7,1329.5 820.3,1329.5 823.5,1331.1 825.2,1335.9 825.2,1340.8 823.5,1342.4 821.9,1345.6 821.9,1347.2 818.7,1350.4 817.1,1352.0 813.9,1355.3 809.1,1356.9 804.2,1358.5 792.9,1358.5 788.1,1360.1 780.1,1360.1 775.2,1358.5 767.2,1358.5 762.4,1356.9 757.5,1356.9 760.7,1358.5 765.6,1360.1 770.4" style="fill:none;stroke:#000000;stroke-width:2"/>
<polyline points="1369.8 820.3,1373.0 820.3,1377.8 818.7,1379.4 817.1,1381.0 813.9,1382.6 812.3,1382.6 809.1,1384.3 807.4,1381.0 809.1,1373.0 815.5,1371.4 817.1,1369.8 821.9,1371.4 825.2,1374.6 828.4,1377.8 830.0,1381.0 830.0,1385.9 831.6,1390.7 831.6,1397.1 830.0,1402.0 828.4,1408.4 826.8,1413.2 823.5,1418.1 818.7,1422.9 812.3" style="fill:none;stroke:#000000;stroke-width:2"/>
<polyline points="1476.1 775.2,1463.2 776.8,1460.0 776.8,1458.3 778.5,1455.1 778.5,1453.5 780.1,1453.5 783.3,1455.1 789.7,1455.1 792.9,1453.5 818.7,1453.5 821.9,1451.9 826.8,1451.9 830.0,1455.1 834.8,1458.3 833.2,1461.6 833.2,1464.8 831.6,1466.4 830.0,1469.6 828.4,1476.1 826.8,1479.3 826.8,1479.3 830.0" style="fill:none;stroke:#000000;stroke-width:2"/>
<polyline points="1506.7 791.3,1505.0 792.9,1505.0 796.2,1503.4 797.8,1503.4 801.0,1505.0 815.5,1505.0 818.7,1508.3 825.2,1509.9 823.5,1513.1 821.9" style="fill:none;stroke:#000000;stroke-width:2"/>
<polyline points="1530.8 786.5,1532.4 789.7,1532.4 792.9,1530.8 796.2,1530.8 799.4,1532.4 821.9,1530.8 820.3,1532.4 818.7" style="fill:none;stroke:#000000;stroke-width:2"/>
<polyline points="1526.0 801.0,1521.2 802.6,1517.9 802.6,1508.3 804.2,1505.0 804.2,1500.2 805.8,1497.0 805.8" style="fill:none;stroke:#000000;stroke-width:2"/>
<polyline points="1582.4 767.2,1580.7 768.8,1574.3 773.6,1571.1 773.6,1569.5 775.2,1566.2 776.8,1564.6 778.5,1558.2 786.5,1556.6 789.7,1556.6 792.9,1555.0 794.6,1555.0 799.4,1553.4 805.8,1553.4 809.1,1551.8 818.7,1553.4 820.3,1561.4 826.8,1563.0 828.4,1566.2 828.4,1569.5 826.8,1574.3 825.2,1575.9 821.9,1577.5 820.3,1582.4 812.3,1584.0 809.1,1584.0 805.8,1585.6 804.2,1585.6 801.0,1582.4 801.0,1577.5 802.6,1571.1 805.8,1567.9 805.8,1566.2 804.2,1566.2 801.0" style="fill:none;stroke:#000000;stroke-width:2"/>
<polyline points="1604.9 775.2,1606.5 773.6,1609.7 773.6,1611.3 772.0,1616.2 772.0,1622.6 773.6,1624.2 775.2,1622.6 776.8,1621.0 781.7,1616.2 794.6,1614.6 797.8,1609.7 810.7,1609.7 813.9,1611.3 818.7,1613.0 821.9,1614.6 823.5,1617.8 830.0,1619.4 831.6,1619.4 834.8,1617.8 836.4,1604.9 842.9,1601.7 842.9,1593.6 844.5,1588.8 844.5,1580.7 846.1,1579.1 847.7" style="fill:none;stroke:#000000;stroke-width:2"/>
<polyline points="1645.2 691.5,1646.8 694.7,1651.6 702.8,1653.2 706.0,1656.4 714.0,1656.4 718.9,1658.0 723.7,1658.0 730.1,1656.4 754.3,1650.0 776.8,1646.8 791.3,1641.9 804.2,1637.1 818.7,1632.3 831.6,1624.2 846.1,1617.8 859.0,1601.7 884.7" style="fill:none;stroke:#000000;stroke-width:2"/>
<polyline points="69.9 1162.3,67.3 1164.9,64.7 1157.1,67.3 1154.5,77.7 1149.3,80.3 1146.8,88.1 1144.2,93.2 1141.6,103.6 1139.0,111.4 1139.0,132.2 1136.4,139.9 1136.4,145.1 1141.6,142.5 1144.2,137.3 1157.1" style="fill:none;stroke:#000000;stroke-width:2"/>
<polyline points="80.3 1198.6,85.5 1198.6,101.0 1201.2,108.8 1198.6,116.6 1198.6,121.8 1196.0,129.6 1193.4,142.5 1190.8,150.3 1188.3,160.7 1183.1,163.3 1180.5,160.7 1172.7" style="fill:none;stroke:#000000;stroke-width:2"/>
<polyline points="145.1 1123.4,150.3 1126.0,152.9 1128.6,165.9 1133.8,171.1 1133.8,178.8 1136.4,186.6 1136.4,194.4 1139.0,210.0 1146.8,215.2 1151.9,235.9 1177.9,235.9 1185.7,233.3 1193.4,228.1 1198.6,222.9 1206.4,215.2 1214.2,197.0 1227.2,189.2 1232.3,168.5 1247.9" style="fill:none;stroke:#000000;stroke-width:2"/>
<polyline points="376.0 1113.0,376.0 1118.2,373.4 1123.4,373.4 1128.6,376.0 1133.8,376.0 1139.0,373.4 1159.7,373.4 1164.9,370.8 1180.5,370.8 1185.7,368.2 1188.3,368.2 1193.4,373.4 1190.8" style="fill:none;stroke:#000000;stroke-width:2"/>
<polyline points="407.1 1190.8,394.1 1193.4,388.9 1193.4,383.7 1196.0,376.0 1198.6,357.8 1201.2,350.0 1201.2,342.2 1198.6,331.9 1196.0,324.1 1193.4,318.9 1190.8,308.5 1188.3,303.3 1183.1,298.2 1177.9" style="fill:none;stroke:#000000;stroke-width:2"/>
<polyline points="425.2 1100.1,414.9 1097.5,409.7 1097.5,378.6 1100.1,370.8 1100.1,363.0 1102.7,347.4 1105.3,342.2 1107.8,337.1 1107.8,334.5 1110.4,329.3 1110.4,326.7 1113.0" style="fill:none;stroke:#000000;stroke-width:2"/>
<polyline points="534.2 1110.4,529.0 1105.3,521.2 1102.7,516.0 1097.5,508.2 1094.9,503.1 1092.3,495.3 1089.7,490.1 1089.7,484.9 1092.3,479.7 1092.3,477.1 1094.9,471.9 1097.5,469.3 1102.7,466.7 1105.3,461.6 1105.3,459.0 1107.8,453.8 1110.4" style="fill:none;stroke:#000000;stroke-width:2"/>
<polyline points="495.3 1102.7,495.3 1110.4,492.7 1115.6,492.7 1120.8,490.1 1157.1,490.1 1164.9,487.5 1172.7,484.9 1177.9,482.3 1188.3,479.7 1193.4,477.1 1201.2,469.3 1209.0,464.2 1209.0,448.6 1206.4,446.0 1203.8,435.6 1188.3" style="fill:none;stroke:#000000;stroke-width:2"/>
<polyline points="404.5 1063.8,407.1 1066.3,412.3 1066.3,425.2 1068.9,430.4 1068.9,443.4 1066.3,448.6 1066.3,459.0 1063.8,464.2 1063.8,474.5 1061.2,479.7 1056.0" style="fill:none;stroke:#000000;stroke-width:2"/>
<polyline points="495.3 1040.4,497.9 1043.0,508.2 1050.8,513.4 1056.0,516.0 1063.8,513.4 1066.3,508.2 1068.9,505.7 1071.5,503.1 1076.7,500.5 1079.3,495.3 1081.9,490.1 1081.9" style="fill:none;stroke:#000000;stroke-width:2"/>
<polyline points="562.7 1216.8,560.1 1219.4,560.1 1224.6,557.5 1245.3,554.9 1253.1,552.3 1263.5,549.7 1281.6,547.2 1289.4,547.2 1297.2,544.6 1302.4,544.6 1310.2" style="fill:none;stroke:#000000;stroke-width:2"/>
<polyline points="619.8 1110.4,622.4 1113.0,622.4 1120.8,622.4 1222.0,625.0 1245.3,625.0 1250.5,627.6 1247.9" style="fill:none;stroke:#000000;stroke-width:2"/>
<polyline points="695.0 1102.7,671.7 1105.3,663.9 1107.8,653.5 1110.4,635.3 1115.6,627.6 1118.2,622.4 1120.8,614.6 1123.4,612.0 1128.6" style="fill:none;stroke:#000000;stroke-width:2"/>
<polyline points="648.3 1172.7,645.7 1175.3,637.9 1177.9,632.7 1180.5,630.2 1188.3,625.0 1193.4,622.4 1198.6,619.8 1201.2,614.6 1206.4" style="fill:none;stroke:#000000;stroke-width:2"/>
<polyline points="731.3 1120.8,731.3 1126.0,728.7 1131.2,728.7 1136.4,726.1 1144.2,726.1 1149.3,728.7 1203.8,728.7 1214.2,731.3 1229.8" style="fill:none;stroke:#000000;stroke-width:2"/>
<polyline points="710.6 1154.5,710.6 1146.8,713.2 1136.4,718.3 1133.8,726.1 1131.2,733.9 1131.2,741.7 1128.6,754.7 1128.6,775.4 1126.0,785.8 1128.6,793.6 1128.6,801.3 1131.2,806.5 1136.4,809.1 1146.8,809.1 1154.5,806.5 1164.9,803.9 1172.7,798.7 1183.1,788.4 1201.2,780.6 1209.0,765.0 1222.0,757.2 1224.6,736.5 1229.8,728.7 1232.3" style="fill:none;stroke:#000000;stroke-width:2"/>
<polyline points="679.4 1058.6,684.6 1061.2,692.4 1063.8,697.6 1063.8,710.6 1061.2,715.7 1061.2,723.5 1058.6,728.7 1058.6,749.5 1058.6" style="fill:none;stroke:#000000;stroke-width:2"/>
<polyline points="759.8 1045.6,765.0 1048.2,767.6 1050.8,772.8 1050.8,778.0 1048.2,788.4 1045.6,791.0 1048.2,791.0 1056.0,785.8 1066.3,783.2 1074.1,778.0 1079.3,770.2 1081.9,757.2 1089.7" style="fill:none;stroke:#000000;stroke-width:2"/>
<polyline points="899.9 1206.4,897.3 1203.8,905.1 1201.2,907.7 1198.6,912.9 1196.0,915.5 1193.4,925.8 1180.5,928.4 1172.7,928.4 1164.9,931.0 1154.5,931.0 1149.3,928.4 1146.8,923.2 1146.8,915.5 1157.1,912.9 1164.9,907.7 1170.1,907.7 1177.9,905.1 1185.7,902.5 1198.6,902.5 1203.8,905.1 1209.0,915.5 1211.6,920.6 1209.0,933.6 1198.6,946.6 1177.9" style="fill:none;stroke:#000000;stroke-width:2"/>
<polyline points="969.9 1050.8,972.5 1053.4,972.5 1058.6,969.9 1092.3,969.9 1102.7,967.3 1113.0,967.3 1126.0,969.9 1172.7,969.9 1180.5,972.5 1190.8,977.7 1183.1" style="fill:none;stroke:#000000;stroke-width:2"/>
<polyline points="977.7 1144.2,975.1 1146.8,967.3 1151.9,962.1 1154.5,951.8 1157.1,949.2 1159.7,944.0 1162.3" style="fill:none;stroke:#000000;stroke-width:2"/>
<polyline points="1042.6 1105.3,1042.6 1113.0,1045.1 1115.6,1045.1 1120.8,1047.7 1157.1,1047.7 1164.9,1050.3 1175.3,1050.3 1180.5,1050.3 1185.7" style="fill:none;stroke:#000000;stroke-width:2"/>
<polyline points="1029.6 1089.7,1034.8 1087.1,1047.7 1081.9,1052.9 1081.9,1068.5 1084.5,1073.7 1087.1,1081.5 1089.7,1089.2 1094.9,1094.4 1097.5,1099.6 1102.7,1102.2 1107.8,1107.4 1123.4,1107.4 1128.6,1104.8 1136.4,1099.6 1154.5,1094.4 1162.3,1086.6 1170.1,1081.5 1177.9,1073.7 1185.7,1065.9 1188.3,1060.7 1190.8,1050.3 1193.4" style="fill:none;stroke:#000000;stroke-width:2"/>
<polyline points="1133.3 1089.7,1135.9 1092.3,1135.9 1097.5,1138.5 1136.4,1138.5 1146.8,1141.1 1177.9" style="fill:none;stroke:#000000;stroke-width:2"/>
<polyline points="1159.3 1089.7,1159.3 1094.9,1156.7 1097.5,1154.1 1105.3,1154.1 1113.0,1156.7 1149.3,1156.7 1157.1,1159.3 1164.9" style="fill:none;stroke:#000000;stroke-width:2"/>
<polyline points="1151.5 1133.8,1141.1 1131.2,1133.3 1128.6,1123.0 1126.0,1115.2 1126.0,1097.0 1128.6,1089.2 1128.6,1081.5 1131.2,1084.1 1136.4" style="fill:none;stroke:#000000;stroke-width:2"/>
<polyline points="1040.0 1043.0,1042.6 1045.6,1055.5 1040.4,1060.7 1040.4,1076.3 1037.8,1084.1 1035.2,1089.2 1035.2,1104.8 1037.8,1110.0 1040.4,1112.6 1043.0,1117.8 1053.4" style="fill:none;stroke:#000000;stroke-width:2"/>
<polyline points="1107.4 1019.7,1112.6 1019.7,1115.2 1022.3,1120.4 1022.3,1151.5 1024.8,1159.3 1024.8,1169.6 1027.4,1177.4 1030.0,1182.6 1032.6,1190.4 1035.2,1193.0 1037.8,1193.0 1043.0,1185.2 1053.4,1177.4 1058.6,1164.5 1061.2,1117.8 1068.9" style="fill:none;stroke:#000000;stroke-width:2"/>
<polyline points="1276.0 1146.8,1273.4 1144.2,1276.0 1139.0,1281.2 1136.4,1286.4 1136.4,1291.6 1133.8,1296.7 1128.6,1304.5 1123.4,1309.7 1118.2,1317.5 1113.0,1325.3 1100.1,1330.5 1094.9,1335.6 1087.1,1338.2 1081.9,1333.1 1084.5,1327.9 1092.3,1330.5 1097.5,1333.1 1100.1,1338.2 1102.7,1340.8 1105.3,1346.0 1113.0,1348.6 1115.6,1351.2 1123.4,1348.6 1131.2,1346.0 1136.4,1340.8 1144.2,1335.6 1146.8,1333.1 1149.3,1327.9 1146.8,1320.1 1139.0,1322.7 1133.8,1330.5 1128.6" style="fill:none;stroke:#000000;stroke-width:2"/>
<polyline points="1353.8 1118.2,1369.4 1110.4,1377.1 1105.3,1379.7 1102.7,1374.6 1105.3,1372.0 1107.8,1364.2 1120.8,1364.2 1126.0,1366.8 1141.6,1369.4 1144.2,1379.7 1149.3,1384.9 1149.3,1395.3 1146.8,1400.5 1144.2,1403.1 1139.0,1405.7 1136.4,1408.3 1131.2,1405.7 1123.4,1403.1 1120.8,1397.9 1118.2,1390.1 1115.6,1379.7 1115.6,1369.4 1118.2,1366.8 1120.8,1372.0 1120.8,1382.3 1126.0" style="fill:none;stroke:#000000;stroke-width:2"/>
<polyline points="1434.2 1144.2,1434.2 1139.0,1436.8 1115.6,1439.4 1110.4,1449.8 1094.9,1455.0 1089.7,1467.9 1081.9,1473.1 1084.5,1475.7 1089.7,1475.7 1094.9,1478.3 1100.1,1478.3 1107.8,1480.9 1115.6,1480.9 1120.8,1483.5 1126.0,1483.5 1110.4" style="fill:none;stroke:#000000;stroke-width:2"/>
<polyline points="1486.1 1011.9,1488.7 1009.3,1491.3 1017.1,1493.9 1022.3,1493.9 1030.0,1496.5 1037.8,1499.1 1048.2,1501.6 1056.0,1504.2 1066.3,1504.2 1074.1,1506.8 1081.9,1512.0 1094.9,1519.8 1105.3,1522.4 1110.4,1530.2 1113.0" style="fill:none;stroke:#000000;stroke-width:2"/>
<polyline points="1522.4 1068.9,1514.6 1071.5,1509.4 1071.5,1504.2 1076.7,1499.1 1079.3,1486.1 1087.1,1488.7 1089.7" style="fill:none;stroke:#000000;stroke-width:2"/>
<polyline points="1602.8 1068.9,1600.2 1066.3,1597.6 1071.5,1592.4 1076.7,1589.8 1081.9,1589.8 1087.1,1592.4 1105.3,1597.6 1107.8,1605.4 1107.8,1613.2 1105.3,1618.4 1102.7,1621.0 1100.1,1628.7 1094.9" style="fill:none;stroke:#000000;stroke-width:2"/>
<polyline points="1646.9 1068.9,1641.7 1071.5,1639.1 1074.1,1636.5 1081.9,1636.5 1087.1,1639.1 1102.7,1639.1 1107.8,1641.7 1110.4,1652.1 1115.6,1665.1 1115.6,1667.6 1110.4,1670.2 1107.8,1672.8 1100.1,1672.8 1094.9,1675.4 1092.3,1672.8 1087.1,1672.8 1081.9,1670.2 1079.3,1654.7 1071.5,1649.5 1071.5,1641.7 1074.1,1639.1 1079.3,1641.7 1087.1" style="fill:none;stroke:#000000;stroke-width:2"/>
<polyline points="1691.0 1068.9,1688.4 1079.3,1691.0 1084.5,1691.0 1089.7,1693.6 1097.5,1693.6 1107.8,1696.2 1115.6,1696.2 1126.0,1698.8 1136.4,1704.0 1164.9,1706.6 1175.3,1709.1 1177.9,1709.1 1172.7,1711.7 1167.5,1711.7 1159.7,1709.1 1151.9,1709.1 1144.2,1706.6 1136.4,1706.6 1128.6,1704.0 1118.2,1701.4 1110.4,1698.8 1094.9,1698.8 1087.1,1701.4 1079.3,1701.4 1071.5,1704.0 1066.3,1709.1 1058.6,1711.7 1056.0,1716.9 1056.0,1722.1 1058.6,1727.3 1058.6,1732.5 1061.2,1740.3 1066.3,1745.5 1068.9,1745.5 1074.1,1740.3 1079.3,1732.5 1084.5,1727.3 1084.5,1716.9 1087.1,1711.7 1084.5,1706.6 1084.5,1701.4 1081.9" style="fill:none;stroke:#000000;stroke-width:2"/>
<polyline points="1750.6 960.0,1753.2 962.6,1753.2 967.8,1755.8 998.9,1755.8 1006.7,1758.4 1014.5,1758.4 1022.3,1761.0 1066.3,1763.6 1068.9,1768.8 1074.1" style="fill:none;stroke:#000000;stroke-width:2"/>
<polyline points="1779.2 1074.1,1779.2 1068.9,1776.6 1066.3,1776.6 1061.2,1779.2 1053.4,1781.8 1043.0,1784.4 1040.4,1794.7 1035.2,1802.5 1040.4,1805.1 1043.0,1812.9 1053.4,1812.9 1061.2,1810.3 1063.8,1810.3 1068.9,1812.9 1074.1" style="fill:none;stroke:#000000;stroke-width:2"/>
<polyline points="1846.6 1056.0,1849.2 1050.8,1846.6 1048.2,1846.6 1043.0,1844.0 1040.4,1838.8 1043.0,1833.6 1043.0,1831.1 1048.2,1828.5 1050.8,1825.9 1058.6,1823.3 1061.2,1825.9 1063.8,1831.1 1058.6" style="fill:none;stroke:#000000;stroke-width:2"/>
<polyline points="1820.7 1053.4,1812.9 1050.8,1810.3 1048.2,1802.5 1048.2,1799.9 1045.6,1792.1 1043.0,1789.6 1040.4,1781.8 1043.0,1776.6 1045.6,1768.8 1048.2,1766.2 1050.8,1763.6 1061.2,1763.6 1068.9,1766.2 1074.1,1771.4 1081.9,1774.0 1084.5,1779.2 1087.1,1794.7 1089.7,1799.9 1089.7,1812.9 1087.1,1815.5 1084.5,1820.7 1076.7,1823.3 1071.5,1823.3 1066.3,1820.7 1058.6,1818.1 1056.0,1812.9 1056.0,1810.3 1058.6,1812.9 1063.8,1818.1 1071.5,1820.7 1076.7,1823.3 1079.3,1831.1 1081.9,1836.2 1079.3,1838.8 1076.7,1841.4 1068.9,1841.4 1061.2" style="fill:none;stroke:#000000;stroke-width:2"/>
<polyline points="1846.6 1066.3,1844.0 1063.8,1841.4 1058.6,1841.4 1053.4,1844.0 1040.4,1846.6 1037.8,1851.8 1037.8,1854.4 1040.4,1857.0 1045.6,1862.2 1058.6,1864.8 1061.2,1864.8 1066.3,1867.4 1074.1,1870.0 1066.3" style="fill:none;stroke:#000000;stroke-width:2"/>
<polyline points="1893.3 1056.0,1895.9 1053.4,1895.9 1048.2,1898.5 1043.0,1898.5 1037.8,1893.3 1037.8,1885.5 1040.4,1880.3 1045.6,1877.7 1053.4,1877.7 1058.6,1880.3 1068.9,1885.5 1068.9,1888.1 1066.3,1895.9 1056.0,1898.5 1050.8,1901.1 1053.4,1901.1 1061.2,1903.7 1063.8,1908.9 1071.5,1914.1 1071.5,1921.8 1068.9,1927.0 1063.8,1929.6 1056.0" style="fill:none;stroke:#000000;stroke-width:2"/>
<polyline points="1921.8 1027.4,1921.8 1035.2,1924.4 1048.2,1924.4 1053.4,1927.0 1058.6,1940.0 1061.2" style="fill:none;stroke:#000000;stroke-width:2"/>
<polyline points="1903.7 978.2,1901.1 975.6,1898.5 970.4,1895.9 967.8,1895.9 973.0,1898.5 975.6,1903.7 991.1" style="fill:none;stroke:#000000;stroke-width:2"/>
<polyline points="1953.0 1066.3,1955.6 1063.8,1953.0 1061.2,1953.0 1056.0,1955.6 1040.4,1958.1 1037.8,1963.3 1035.2,1973.7 1032.6,1976.3 1030.0,1978.9 1040.4" style="fill:none;stroke:#000000;stroke-width:2"/>
<polyline points="1991.9 1074.1,1997.1 1074.1,1999.6 1068.9,2004.8 1061.2,2007.4 1056.0,2010.0 1048.2,2007.4 1045.6,2007.4 1040.4,2002.2 1043.0,1999.6 1045.6,1997.1 1050.8,1994.5 1053.4,1991.9 1063.8,1994.5 1066.3,1997.1 1071.5,2004.8 1074.1,2012.6 1074.1,2015.2 1071.5,2025.6 1066.3,2028.2 1063.8,2030.8 1061.2" style="fill:none;stroke:#000000;stroke-width:2"/>
<polyline points="2054.1 1071.5,2056.7 1063.8,2056.7 1056.0,2054.1 1050.8,2054.1 1043.0,2056.7 1027.4,2059.3 1024.8,2064.5 1024.8,2067.1 1022.3,2072.3 1022.3,2082.6 1027.4,2085.2 1030.0,2090.4 1032.6,2093.0 1035.2,2095.6 1040.4,2095.6 1050.8,2093.0 1053.4,2087.8 1056.0,2067.1 1063.8,2061.9 1063.8,2059.3 1066.3,2051.5 1063.8" style="fill:none;stroke:#000000;stroke-width:2"/>
</svg>